<?xml version="1.0" standalone="no"?>
<!DOCTYPE svg PUBLIC "-//W3C//DTD SVG 20010904//EN"
 "http://www.w3.org/TR/2001/REC-SVG-20010904/DTD/svg10.dtd">
<svg version="1.0" xmlns="http://www.w3.org/2000/svg"
 width="700.000000pt" height="700.000000pt" viewBox="0 0 700.000000 700.000000"
 preserveAspectRatio="xMidYMid meet">
<metadata>
Created by potrace 1.14, written by Peter Selinger 2001-2017
</metadata>
<g transform="translate(0.000000,700.000000) scale(0.100000,-0.100000)"
fill="#000000" stroke="none">
<path d="M3278 6995 c-1 -1 -46 -6 -98 -9 -52 -4 -104 -9 -115 -11 -11 -2 -42
-7 -70 -10 -99 -12 -353 -67 -487 -106 -1001 -293 -1822 -1016 -2240 -1971
-107 -244 -219 -627 -243 -828 -4 -30 -9 -58 -11 -61 -2 -4 129 -5 291 -4 162
1 295 -1 295 -5 0 -7 -45 -75 -213 -320 -47 -69 -130 -190 -184 -270 -54 -80
-100 -147 -103 -150 -3 -3 -27 -37 -53 -76 l-48 -72 16 -108 c25 -174 18 -168
84 -72 55 79 283 415 533 783 63 94 156 230 207 304 50 74 91 138 91 141 0 4
-40 5 -90 3 -51 -2 -90 0 -90 5 0 11 54 196 80 272 89 262 267 581 456 820
140 175 396 415 589 551 228 160 512 299 785 382 202 62 345 91 560 114 146
15 572 8 650 -12 8 -2 37 -6 63 -10 281 -35 672 -171 962 -335 85 -48 330
-213 355 -240 3 -3 32 -27 65 -54 86 -71 301 -288 371 -376 239 -299 425 -651
515 -972 7 -27 16 -49 19 -49 3 -1 164 -3 358 -4 316 -1 352 0 348 14 -2 9
-14 57 -26 106 -18 78 -91 302 -144 445 -38 100 -199 413 -276 535 -88 139
-244 352 -331 450 -206 234 -550 528 -771 660 -9 5 -50 30 -90 55 -387 236
-912 413 -1383 466 -33 3 -73 8 -90 11 -34 5 -531 13 -537 8z m23 -207 c1 -7
2 -39 3 -70 1 -31 4 -59 7 -62 3 -3 24 28 48 69 36 64 46 75 69 75 l27 0 2
-123 2 -122 -25 -1 c-24 -2 -24 0 -24 78 l0 81 -23 -34 c-12 -19 -35 -55 -50
-81 -21 -37 -34 -48 -52 -48 -23 0 -25 4 -26 48 0 26 -1 82 -2 125 -2 74 -1
77 21 77 12 0 23 -6 23 -12z m269 -91 l0 -103 45 -1 c25 -1 46 2 46 5 1 4 3
41 4 82 2 41 3 85 4 98 1 18 6 23 24 20 21 -3 22 -7 22 -98 0 -52 4 -102 10
-110 5 -8 10 -31 10 -52 1 -27 -4 -38 -16 -41 -23 -6 -29 1 -29 30 0 22 -3 23
-74 23 -41 0 -80 2 -88 5 -9 4 -13 27 -11 88 1 45 2 99 2 120 1 33 4 37 26 37
l25 0 0 -103z m-399 71 c1 -26 8 -94 14 -123 2 -11 4 -30 4 -43 1 -13 5 -21
10 -18 12 8 21 -18 21 -60 0 -27 -4 -34 -20 -34 -15 0 -20 7 -20 25 0 25 -2
26 -42 20 -122 -16 -120 -15 -114 -40 6 -24 -20 -44 -35 -28 -13 14 -16 93 -3
93 17 0 21 26 17 123 -2 65 0 87 9 87 29 1 123 13 127 16 13 12 31 1 32 -18z
m674 -40 c-3 -35 -9 -71 -11 -80 -9 -30 1 -21 61 53 43 53 62 69 78 67 24 -3
26 -21 13 -133 -13 -115 -16 -122 -48 -110 -12 5 -13 18 -6 67 4 34 7 67 5 72
-2 6 -27 -20 -57 -57 -44 -57 -57 -68 -79 -65 -14 2 -25 8 -25 13 4 21 13 103
20 160 7 71 9 75 35 75 19 0 20 -4 14 -62z m-935 3 c0 -16 -11 -22 -57 -31
-72 -15 -71 -15 -66 -44 4 -21 9 -23 36 -20 18 3 44 9 59 14 29 9 38 5 38 -20
0 -13 -15 -20 -61 -29 -47 -10 -59 -16 -55 -27 3 -9 6 -24 6 -34 0 -16 4 -17
67 -4 54 12 68 12 75 2 4 -7 8 -16 8 -20 0 -6 -50 -18 -135 -34 -16 -3 -32 -7
-36 -10 -4 -2 -10 -1 -12 3 -4 6 -43 184 -50 227 -2 10 118 43 161 45 15 1 22
-5 22 -18z m1212 14 c3 -3 1 -24 -5 -46 -12 -48 -5 -57 47 -61 40 -3 40 -3 49
39 7 38 11 42 33 41 27 -3 27 -7 10 -83 -2 -11 -9 -47 -16 -81 -7 -34 -16 -67
-20 -74 -11 -18 -53 -3 -46 17 3 8 9 31 12 52 l6 37 -46 11 -46 10 -10 -36
c-5 -20 -10 -44 -10 -53 0 -19 -17 -23 -39 -9 -11 7 -10 26 8 112 12 57 24
110 26 117 4 12 37 17 47 7z m-1453 -92 c6 -21 19 -72 30 -113 21 -80 21 -85
-7 -92 -16 -5 -21 6 -37 74 -10 43 -20 76 -23 74 -2 -3 -4 -40 -4 -83 0 -76
-6 -92 -35 -93 -12 0 -93 133 -93 153 0 5 -2 8 -5 5 -3 -3 2 -32 11 -64 28
-101 28 -111 5 -117 -17 -4 -22 3 -35 47 -32 112 -50 186 -46 189 3 3 19 8 36
11 30 7 33 4 73 -64 23 -38 43 -70 45 -70 1 0 2 36 1 80 -2 86 5 99 52 100 17
0 24 -8 32 -37z m1827 -15 c14 -13 26 -34 29 -46 6 -33 -42 -31 -55 2 -19 50
-89 41 -109 -15 -16 -45 -14 -79 6 -101 20 -22 56 -23 73 -3 15 19 34 19 49 2
8 -11 7 -18 -7 -30 -46 -42 -108 -40 -152 5 -24 24 -30 38 -30 75 0 51 31 115
64 132 34 18 105 6 132 -21z m159 -66 c-36 -88 -30 -98 26 -48 33 31 46 36 67
31 33 -8 34 -9 27 -27 -4 -9 -14 -14 -23 -12 -9 2 -31 -9 -49 -26 -28 -25 -31
-33 -23 -57 5 -15 11 -49 13 -74 l4 -47 -29 10 c-15 6 -28 17 -29 26 -4 92
-21 137 -35 96 -26 -73 -32 -83 -53 -77 -12 3 -21 10 -21 17 0 12 71 194 83
214 13 19 51 -5 42 -26z m-2442 -172 c33 -75 42 -107 34 -112 -24 -15 -36 -7
-56 37 -18 41 -22 44 -39 34 -13 -8 -23 -33 -30 -72 -13 -68 -10 -62 -41 -72
-23 -7 -23 -6 -17 36 3 24 9 55 12 68 5 16 4 22 -4 17 -16 -10 -61 14 -69 38
-12 37 -12 46 6 67 19 24 143 81 152 71 4 -4 27 -54 52 -112z m2707 80 c18
-10 19 -19 14 -138 -3 -70 -7 -128 -9 -130 -2 -2 -13 1 -24 8 -14 7 -21 21
-21 41 0 26 -6 32 -42 48 -42 18 -44 18 -64 0 -23 -21 -32 -23 -54 -9 -12 8 2
27 75 100 49 49 93 90 98 90 5 0 17 -5 27 -10z m272 -144 l56 -32 -46 -85
c-71 -130 -73 -133 -96 -116 -19 14 -19 15 2 51 12 21 22 41 22 46 0 20 -37
18 -90 -6 -47 -21 -62 -24 -79 -15 -12 7 -21 14 -21 17 0 3 27 18 60 33 51 24
58 31 45 41 -23 19 -18 58 11 86 30 31 52 28 136 -20z m-3242 -57 c55 -45 98
-85 95 -89 -11 -17 -46 -17 -68 0 -22 17 -24 17 -65 -7 -38 -23 -42 -29 -37
-54 5 -21 2 -30 -14 -38 -28 -16 -28 -16 -36 42 -4 28 -8 59 -10 67 -1 8 -5
43 -9 77 -6 53 -4 63 11 72 10 6 21 11 25 11 4 0 53 -37 108 -81z m-260 -49
c-17 -10 -4 -107 15 -107 7 0 38 -12 69 -28 l56 -28 -27 -18 c-25 -17 -28 -17
-52 0 -31 22 -91 43 -91 32 0 -4 11 -22 25 -41 29 -40 31 -56 8 -68 -14 -8
-28 7 -86 90 -63 92 -68 102 -53 116 14 15 17 14 35 -4 10 -11 24 -30 30 -42
20 -37 33 -15 26 43 -6 46 -4 56 15 75 21 21 23 21 33 5 6 -12 6 -20 -3 -25z
m-176 -146 c14 -5 14 -8 0 -29 -12 -19 -20 -22 -37 -16 -14 5 -30 3 -44 -7
-44 -28 -21 -107 40 -138 28 -15 32 -14 56 4 20 15 25 26 23 49 -3 24 1 32 18
36 25 6 39 -21 32 -60 -6 -34 -67 -83 -103 -83 -88 0 -161 102 -129 181 22 52
93 83 144 63z m4056 -9 c10 -12 6 -36 -19 -127 -18 -62 -34 -119 -36 -126 -4
-10 -8 -10 -25 0 -17 11 -20 20 -15 48 5 32 2 37 -33 62 -36 25 -39 26 -65 10
-25 -15 -28 -15 -44 1 -16 16 -16 19 -3 27 211 129 218 132 240 105z m150
-127 c18 -12 18 -14 -15 -54 -19 -23 -32 -44 -29 -47 4 -3 27 3 53 13 39 15
52 16 72 6 29 -14 32 -42 4 -39 -11 2 -40 -2 -65 -8 -40 -10 -45 -15 -46 -40
-1 -15 -7 -49 -14 -74 l-13 -46 -22 21 c-22 20 -22 21 -5 73 24 70 10 83 -36
34 -29 -30 -39 -35 -50 -26 -22 18 -18 27 47 94 34 35 68 73 76 84 17 25 17
25 43 9z m-4410 -53 c0 -19 -24 -35 -47 -31 -21 5 -63 -26 -63 -45 0 -28 34
-78 65 -95 28 -15 38 -16 59 -6 22 10 26 18 26 51 0 26 5 41 16 45 25 9 34 -2
34 -42 -1 -67 -60 -115 -129 -104 -38 5 -110 72 -112 103 -5 64 -1 75 31 108
17 16 40 31 53 33 34 5 67 -3 67 -17z m-175 -240 c50 -113 56 -154 24 -174
-18 -11 -23 -11 -30 0 -4 8 -4 18 1 23 16 16 12 45 -7 54 -10 5 -53 17 -95 27
-77 19 -92 31 -64 54 10 9 29 6 77 -9 35 -11 65 -20 67 -20 1 0 -12 27 -29 60
-26 50 -29 63 -19 75 7 9 17 14 22 13 5 -2 29 -48 53 -103z m4801 81 c8 -8 14
-19 14 -24 0 -11 -90 -214 -101 -226 -4 -5 -15 -1 -25 8 -14 14 -15 22 -5 42
14 32 16 26 -23 67 -31 33 -35 35 -59 22 -23 -12 -28 -11 -43 6 -9 11 -15 20
-13 22 15 10 222 97 232 97 5 0 15 -6 23 -14z m194 -232 c51 -63 52 -65 33
-79 -61 -43 -141 -118 -138 -128 6 -15 -60 -61 -74 -52 -16 9 -13 32 4 39 22
8 19 15 -31 78 -44 56 -46 57 -68 43 -21 -14 -25 -14 -36 0 -7 9 -11 17 -9 18
2 2 19 15 36 29 20 17 40 24 52 21 21 -5 83 27 136 71 17 14 33 25 36 26 3 0
29 -29 59 -66z m-5142 23 c30 -28 28 -70 -5 -114 l-27 -35 38 -32 c37 -30 37
-32 19 -48 -18 -17 -23 -14 -111 58 -51 41 -92 79 -92 84 0 4 24 33 53 64 57
61 78 65 125 23z m5297 -239 c44 -67 46 -72 29 -85 -16 -11 -21 -7 -53 42 -19
30 -38 55 -41 55 -3 0 -13 -7 -23 -14 -17 -13 -16 -17 17 -69 34 -54 35 -56
15 -62 -11 -4 -22 -5 -23 -3 -2 1 -15 22 -30 46 -28 45 -40 50 -70 27 -18 -14
-18 -16 18 -71 35 -52 36 -57 19 -69 -16 -12 -22 -6 -65 62 -27 41 -48 77 -48
81 0 7 190 131 201 132 3 0 28 -32 54 -72z m-5420 22 c43 -26 67 -64 67 -105
0 -43 -15 -68 -57 -101 -29 -22 -41 -25 -72 -19 -126 23 -171 145 -82 220 38
31 98 34 144 5z m5525 -200 c13 -30 12 -32 -46 -85 -59 -55 -58 -64 6 -45 84
25 98 24 115 -10 9 -18 15 -33 13 -35 -2 -2 -51 -28 -109 -59 -89 -47 -108
-54 -113 -40 -10 27 -8 28 68 69 41 22 74 40 73 42 -2 1 -36 -7 -77 -17 -95
-25 -106 -25 -113 1 -6 21 6 34 106 122 30 26 16 21 -65 -23 -70 -38 -74 -39
-85 -20 -14 21 -8 25 107 85 30 15 64 34 74 41 24 16 30 13 46 -26z m-5582
-136 l-11 -24 -91 49 -92 49 -17 -30 c-21 -36 -21 -35 58 -77 89 -47 106 -75
73 -118 -14 -18 -39 -4 -36 20 2 17 -13 29 -77 64 -44 23 -84 44 -89 46 -8 3
42 111 67 144 7 10 35 -1 117 -44 104 -54 108 -57 98 -79z m-300 -103 c10 -6
8 -20 -13 -66 -14 -32 -24 -59 -23 -60 2 -1 12 -7 24 -13 19 -10 23 -6 45 39
26 57 31 61 53 53 13 -5 11 -14 -12 -60 -27 -56 -25 -66 15 -78 19 -6 25 1 49
54 28 63 30 65 53 51 10 -7 5 -26 -27 -95 l-41 -86 -58 29 c-32 16 -82 39
-110 51 -29 12 -53 24 -53 26 0 10 74 164 79 164 3 0 12 -4 19 -9z m6021 -30
c8 -15 7 -20 -7 -25 -37 -12 -137 -55 -132 -56 6 -2 26 -5 122 -21 54 -8 67
-14 72 -31 5 -22 -17 -47 -41 -48 -6 0 -48 -16 -94 -35 -64 -28 -84 -33 -91
-23 -16 26 -7 35 65 64 l72 28 -40 7 c-22 4 -62 10 -90 14 -46 6 -74 25 -75
50 0 9 190 92 217 94 7 1 17 -8 22 -18z m-6123 -248 c-4 -16 -8 -32 -10 -38
-17 -52 -18 -68 -5 -76 27 -17 37 -9 59 46 20 50 37 66 75 70 20 2 64 -25 70
-44 7 -23 1 -59 -22 -125 -9 -28 -18 -52 -18 -54 -4 -6 -230 77 -230 85 0 4
10 43 23 86 19 63 27 77 44 77 17 0 19 -4 14 -27z m6212 -13 c17 -18 68 -149
60 -154 -6 -5 -219 -76 -227 -76 -5 0 -11 9 -14 21 -4 15 1 23 21 30 15 6 37
15 50 20 38 15 12 44 -55 62 -48 14 -60 22 -69 46 l-11 28 37 -8 c21 -5 49
-13 64 -19 14 -5 26 -8 27 -7 0 1 2 11 4 22 5 27 42 55 71 55 13 0 32 -9 42
-20z"/>
<path d="M3064 6732 c-7 -4 -11 -39 -11 -84 0 -85 3 -88 65 -72 22 6 23 10 16
63 -4 31 -8 63 -10 71 -1 8 -3 18 -3 23 -1 9 -43 9 -57 -1z"/>
<path d="M2083 6443 c-22 -11 -33 -24 -33 -39 0 -34 34 -37 85 -7 16 10 17 15
7 37 -13 30 -16 30 -59 9z"/>
<path d="M4857 6398 c-15 -18 -27 -36 -27 -39 0 -6 34 -18 51 -19 3 0 6 20 8
45 1 25 0 45 -2 45 -1 0 -15 -15 -30 -32z"/>
<path d="M5087 6323 c-17 -16 -4 -43 29 -63 37 -23 47 -20 58 17 6 19 1 25
-30 38 -41 17 -48 18 -57 8z"/>
<path d="M1854 6274 c2 -16 4 -37 5 -46 1 -21 19 -23 43 -4 16 12 15 15 -17
46 l-34 33 3 -29z"/>
<path d="M5483 6008 c-39 -23 -40 -28 -10 -49 23 -17 23 -16 39 27 17 49 16
50 -29 22z"/>
<path d="M5842 5674 c-32 -14 -33 -16 -20 -36 19 -29 34 -33 42 -11 3 10 10
28 16 41 11 25 7 26 -38 6z"/>
<path d="M6021 5474 c-28 -19 -61 -38 -72 -43 -21 -7 -21 -8 11 -44 l32 -37
56 46 c32 26 58 50 60 55 2 5 -5 20 -16 33 l-19 25 -52 -35z"/>
<path d="M890 5475 l-24 -26 29 -24 30 -23 18 29 c37 58 -6 94 -53 44z"/>
<path d="M760 5277 c-38 -19 -48 -61 -24 -95 29 -38 71 -57 103 -46 33 12 56
57 42 81 -21 37 -28 43 -62 57 -28 12 -40 12 -59 3z"/>
<path d="M491 4518 c-23 -63 -23 -65 7 -76 27 -9 31 -8 41 14 6 14 11 38 11
54 0 25 -4 30 -25 30 -17 0 -28 -7 -34 -22z"/>
<path d="M6556 4537 c-16 -12 -17 -18 -5 -55 10 -36 15 -41 33 -36 36 11 40
21 25 60 -16 43 -28 50 -53 31z"/>
<path d="M3299 6216 c-2 -2 -40 -6 -84 -10 -88 -7 -276 -37 -346 -56 -24 -7
-51 -14 -60 -15 -123 -24 -393 -127 -567 -216 -257 -132 -476 -292 -682 -499
-309 -308 -532 -669 -665 -1075 -18 -55 -36 -114 -40 -132 l-6 -32 105 -3 106
-3 -148 -215 c-81 -118 -233 -339 -337 -490 -105 -151 -216 -313 -248 -360
-32 -47 -94 -137 -138 -200 -43 -63 -79 -118 -79 -122 0 -4 165 -7 366 -7 202
0 370 -3 374 -8 4 -4 20 -48 35 -97 202 -655 680 -1237 1294 -1574 51 -29 95
-52 96 -52 2 0 36 -15 77 -34 358 -167 753 -253 1158 -250 118 0 287 11 320
19 8 2 38 6 65 10 175 20 425 89 640 175 199 79 493 253 670 395 428 344 741
806 910 1343 l23 72 -105 0 -104 0 88 128 c77 113 369 537 750 1090 l122 177
-372 3 -372 2 -33 108 c-250 802 -835 1434 -1612 1742 -323 127 -635 186
-1000 189 -108 0 -199 -1 -201 -3z m685 -158 c-3 -4 -12 -8 -20 -8 -7 0 -40
-27 -73 -60 -43 -45 -74 -67 -122 -86 -181 -71 -235 -100 -249 -135 -8 -18
-18 -28 -26 -25 -8 3 -14 0 -14 -6 0 -9 -3 -9 -11 -1 -6 6 -13 40 -16 75 -11
139 45 180 264 193 64 4 108 13 163 34 71 28 114 36 104 19z m-573 -320 c21
-6 46 -19 55 -29 16 -18 17 -18 43 0 38 26 98 44 134 39 18 -3 86 -19 152 -36
66 -17 149 -33 185 -35 36 -2 75 -9 87 -15 12 -7 33 -12 47 -12 24 0 26 -3 26
-50 0 -27 3 -49 8 -48 13 3 66 -14 167 -54 403 -159 732 -426 1010 -818 l67
-95 -84 -3 c-72 -3 -85 0 -98 16 -204 260 -304 364 -510 526 -101 79 -311 191
-468 250 l-92 34 1 -52 c0 -28 3 -46 5 -39 6 14 85 -17 259 -103 218 -108 467
-309 627 -508 48 -60 85 -113 82 -117 -3 -5 -39 -9 -80 -9 -71 0 -75 1 -101
33 -15 17 -82 86 -148 152 -162 161 -350 288 -566 380 l-76 33 0 -39 c0 -22 5
-39 11 -39 6 0 64 -27 129 -59 189 -95 338 -203 481 -349 53 -53 96 -100 96
-104 0 -4 -40 -7 -88 -7 -88 0 -89 1 -128 37 -109 103 -248 203 -378 272 -108
58 -124 61 -122 23 l1 -28 -155 0 c-85 0 -171 3 -190 7 -64 13 -203 13 -208 0
-6 -18 -189 -16 -208 2 -8 8 -24 13 -37 11 -12 -2 -87 -6 -167 -10 -80 -3
-165 -8 -190 -11 -148 -15 -149 -15 -145 34 2 25 1 25 -23 13 -9 -5 -56 -27
-104 -49 -128 -60 -202 -112 -308 -222 l-95 -97 -94 -2 -93 -2 22 31 c25 35
218 231 264 269 53 43 186 131 239 157 88 45 179 76 187 64 4 -6 6 11 6 38
l-1 48 -48 -18 c-259 -98 -511 -283 -692 -508 -20 -25 -42 -52 -49 -61 -18
-22 -192 -28 -180 -7 45 76 183 240 293 348 178 175 383 304 580 366 94 30
102 38 93 90 -4 21 -4 21 -70 -6 -362 -148 -679 -384 -886 -661 -39 -52 -80
-107 -91 -122 -18 -25 -26 -27 -98 -28 -42 -1 -80 0 -82 3 -5 5 116 195 170
265 81 106 243 276 320 335 17 12 37 29 45 37 8 8 62 46 120 84 155 102 301
172 543 259 24 9 27 15 27 58 0 42 2 48 19 43 10 -3 32 2 49 11 16 8 67 18
113 22 52 4 125 19 189 40 116 36 144 40 201 22z m325 -980 c5 -36 -33 -76
-87 -92 -29 -9 -63 -16 -75 -16 -25 0 -41 -29 -22 -41 7 -5 23 -7 35 -4 13 2
25 -1 28 -6 7 -11 -43 -59 -61 -59 -9 0 -14 -12 -15 -32 -3 -82 -27 -243 -36
-234 -2 2 -6 14 -8 26 -2 13 -9 37 -15 54 -5 17 -11 64 -12 104 -3 70 -7 78
-39 74 -12 -2 -59 47 -59 60 0 9 13 12 45 10 33 -3 45 0 45 9 0 26 -15 35 -74
47 -33 6 -69 21 -82 33 -25 24 -40 69 -25 78 5 4 110 6 232 6 199 0 222 -2
225 -17z m771 -550 c1 -57 1 -116 2 -131 l1 -28 400 3 c220 2 400 3 401 3 0 0
3 -139 5 -310 3 -170 6 -311 8 -312 2 -2 96 136 210 307 114 171 212 313 219
315 21 8 767 10 767 3 0 -11 -590 -897 -603 -905 -6 -4 -200 -8 -429 -9 l-418
-2 -1 191 c0 106 -1 264 -2 352 l-2 160 -150 0 c-82 0 -155 -1 -161 -3 -7 -2
-10 -109 -8 -352 l3 -350 -22 -1 c-12 0 -65 -1 -117 -2 l-95 -2 -1 -170 c0
-93 -2 -176 -2 -182 -2 -10 -30 -13 -107 -13 l-104 0 -3 103 -3 102 -200 0
c-110 0 -210 -1 -221 -3 -15 -3 -42 -36 -84 -103 -56 -91 -64 -99 -93 -100
-18 0 -71 -2 -119 -3 -49 -1 -88 1 -88 5 0 4 17 33 39 65 21 33 74 113 116
179 l78 120 1 237 c1 131 -2 238 -5 238 -4 0 -75 -105 -160 -232 -84 -128
-157 -236 -162 -240 -14 -9 -167 -10 -168 0 -3 12 -7 188 -9 325 -1 70 -5 127
-8 127 -4 -1 -75 -103 -158 -228 l-151 -227 -198 0 -198 0 -2 218 c-2 120 -5
220 -7 223 -3 2 -72 -97 -153 -221 l-148 -225 -56 -1 c-31 0 -71 -2 -88 -4
-40 -4 -47 -18 101 208 62 95 140 216 175 269 l62 97 131 3 c71 2 132 0 134
-3 2 -3 5 -124 6 -267 2 -197 6 -258 14 -249 16 16 562 836 567 850 5 15 177
18 178 3 0 -6 1 -104 2 -218 1 -114 4 -204 8 -200 4 4 70 103 148 220 l141
212 99 0 98 0 1 -137 c0 -76 1 -214 1 -308 l1 -170 21 30 c11 17 142 213 290
438 148 224 270 407 272 407 2 0 4 -46 4 -102z m2162 -151 c8 -11 -28 -71
-157 -263 -92 -138 -246 -368 -342 -511 -96 -144 -182 -263 -190 -265 -8 -3
-239 -5 -512 -7 -471 -2 -497 -1 -506 16 -4 10 -8 165 -7 344 l2 326 -54 1
-53 0 0 -336 c1 -225 -3 -339 -10 -346 -6 -6 -53 -11 -108 -11 l-97 0 0 -165
c0 -91 -4 -171 -8 -177 -11 -18 -392 -18 -403 -1 -5 7 -9 50 -11 97 -1 46 -5
86 -7 89 -8 8 -290 2 -297 -6 -4 -4 -31 -49 -59 -99 -29 -51 -60 -95 -69 -98
-27 -8 -475 -10 -488 -2 -7 5 -13 12 -13 18 0 5 70 114 155 242 103 156 155
242 155 260 0 15 -3 27 -7 27 -5 0 -37 -44 -73 -98 l-65 -98 -157 -1 c-103 -1
-160 3 -165 10 -6 9 -10 66 -12 166 l-1 35 -34 -50 c-19 -27 -39 -53 -43 -59
-5 -5 -23 -31 -41 -57 l-33 -48 -142 -1 c-78 0 -371 -2 -652 -4 -455 -3 -1702
-7 -1747 -6 -21 1 -25 41 -5 42 18 1 1069 9 1837 13 371 2 678 5 682 5 6 1 89
115 157 217 24 36 39 50 52 47 22 -6 24 -24 24 -156 l0 -107 125 4 c69 2 128
4 131 5 3 1 43 58 89 127 118 176 131 179 133 25 0 -71 -2 -81 -31 -123 -18
-26 -36 -58 -41 -71 -5 -14 -23 -40 -39 -58 -42 -49 -173 -249 -168 -257 2 -4
55 -6 118 -5 62 1 151 2 198 2 l85 1 60 105 c58 101 61 105 95 106 218 4 312
4 322 -2 15 -9 17 -25 19 -121 l1 -78 159 0 159 0 0 183 0 183 33 -2 c68 -6
175 -6 184 -1 4 3 8 157 7 341 -1 334 -1 336 20 341 26 7 160 0 173 -8 6 -4
10 -126 9 -319 -1 -172 0 -323 2 -335 l4 -21 466 3 c257 2 470 3 474 4 3 1 77
106 164 234 87 127 185 273 219 322 34 50 110 162 170 250 142 210 141 209
164 182z m-4707 -31 c-5 -6 -35 -50 -66 -98 l-58 -88 -92 -1 c-50 -1 -163 -2
-251 -4 -88 -2 -215 -4 -283 -4 l-122 -1 -35 -55 c-20 -30 -38 -61 -40 -68 -4
-9 71 -11 360 -9 l366 3 -119 -178 c-65 -98 -149 -226 -187 -285 l-69 -106
-46 -4 c-76 -7 -850 -10 -850 -3 0 3 135 208 301 455 l301 449 41 3 c23 2 225
3 449 4 289 0 405 -3 400 -10z m370 -325 c14 -1 12 -10 -15 -56 l-31 -55 -178
-1 c-98 -1 -188 -2 -199 -3 -15 -1 -31 -17 -51 -53 l-29 -52 181 2 c100 1 183
-1 185 -4 2 -3 -15 -34 -38 -70 -36 -54 -47 -64 -72 -65 -17 -1 -104 -3 -194
-5 l-164 -3 -29 -40 -29 -41 190 -3 190 -2 -37 -60 -37 -60 -100 -1 c-55 0
-178 -2 -273 -3 -154 -3 -172 -1 -167 13 3 8 85 138 182 288 l175 273 182 2
c153 3 284 2 358 -1z m1398 -1307 c189 -21 262 -108 210 -248 -12 -31 -34 -68
-48 -82 -25 -24 -122 -74 -142 -74 -5 0 -11 -4 -14 -8 -3 -5 107 -7 244 -7
288 2 276 9 162 -96 -115 -106 -289 -192 -444 -219 -35 -6 -72 -13 -83 -15
-11 -2 -23 -4 -27 -4 -3 -1 -6 -17 -5 -36 l1 -34 61 0 c74 1 111 -15 130 -55
31 -67 24 -99 -30 -136 -25 -17 -45 -35 -45 -40 0 -17 68 -30 176 -35 60 -2
116 -5 124 -6 14 -1 -18 -13 -65 -24 -11 -2 -55 -13 -99 -24 -43 -11 -110 -23
-150 -26 -93 -8 -139 -14 -144 -20 -3 -2 -2 -11 2 -20 4 -12 16 -14 58 -10 29
3 82 7 118 10 127 9 247 41 365 96 44 21 61 25 67 16 10 -17 -7 -29 -80 -60
-94 -40 -215 -70 -333 -82 -35 -3 -77 -8 -94 -10 -16 -2 -45 -4 -62 -4 -39 -1
-41 -17 -14 -101 10 -30 17 -57 15 -59 -7 -8 -43 45 -70 100 l-27 57 -86 6
c-207 16 -491 98 -491 142 0 19 11 18 76 -11 52 -23 170 -61 218 -71 110 -22
240 -35 264 -26 6 2 12 10 12 17 0 14 -27 22 -104 30 -97 9 -235 38 -296 63
-21 8 -14 10 40 11 226 3 279 20 318 105 31 65 29 75 -10 69 -18 -4 -80 -7
-138 -7 -121 -1 -162 15 -192 73 -14 29 -15 38 -3 78 8 25 23 55 34 67 12 12
21 26 20 32 0 5 -32 25 -72 44 -49 24 -97 60 -156 117 -47 45 -83 84 -80 87 3
3 176 6 384 6 343 1 381 3 398 18 10 9 64 40 120 67 106 52 131 77 140 140 7
53 -10 82 -67 110 -92 45 -259 41 -412 -10 -70 -23 -148 -35 -159 -23 -10 10
119 116 155 127 33 10 221 7 330 -5z"/>
<path d="M3148 5406 c-18 -18 -41 -37 -52 -43 -11 -6 -16 -18 -14 -32 3 -21 3
-21 38 -2 l35 18 -1 -103 0 -104 28 0 28 0 0 144 c0 164 -6 176 -62 122z"/>
<path d="M3363 5432 c-34 -5 -73 -58 -73 -97 0 -66 66 -114 119 -85 16 8 18 6
12 -22 -9 -42 -34 -57 -59 -35 -23 21 -62 22 -62 2 0 -18 35 -55 53 -56 6 0
19 -2 29 -4 23 -4 77 31 87 58 24 64 16 174 -16 209 -19 21 -61 35 -90 30z
m45 -54 c17 -17 15 -73 -3 -88 -38 -32 -79 32 -49 78 16 25 34 28 52 10z"/>
<path d="M3574 5423 c-32 -16 -44 -31 -44 -53 0 -23 41 -22 57 0 16 23 36 26
51 8 13 -17 -3 -58 -22 -58 -28 0 -22 -34 9 -50 33 -17 40 -45 17 -72 -20 -24
-39 -23 -54 2 -8 12 -24 20 -41 20 -25 0 -27 -3 -21 -22 23 -74 140 -80 176
-10 19 40 7 91 -23 99 -17 5 -17 6 2 26 56 61 -31 150 -107 110z"/>
<path d="M3815 5395 c-61 -56 -77 -114 -19 -70 36 27 40 18 39 -72 0 -49 1
-94 3 -100 4 -14 51 -18 53 -5 0 4 1 65 2 136 2 96 -1 133 -11 143 -7 7 -14
13 -15 13 -2 0 -25 -20 -52 -45z"/>
<path d="M4141 5224 c0 -11 3 -14 6 -6 3 7 2 16 -1 19 -3 4 -6 -2 -5 -13z"/>
<path d="M2841 5034 c0 -11 3 -14 6 -6 3 7 2 16 -1 19 -3 4 -6 -2 -5 -13z"/>
<path d="M2835 4960 c-3 -5 -1 -10 4 -10 6 0 11 5 11 10 0 6 -2 10 -4 10 -3 0
-8 -4 -11 -10z"/>
<path d="M5880 3852 c-12 -3 -304 -418 -343 -487 -7 -13 10 -15 125 -15 l133
0 155 241 c85 133 156 246 158 253 2 8 -28 11 -105 11 -59 0 -115 -1 -123 -3z"/>
<path d="M4249 3521 c-25 -36 -90 -129 -143 -206 -54 -77 -100 -145 -103 -151
-3 -7 42 -10 146 -10 l149 1 4 40 c2 22 1 119 -2 216 l-5 177 -46 -67z"/>
<path d="M981 3482 c-75 -2 -97 -6 -108 -20 -20 -24 -83 -120 -83 -126 0 -7
555 0 568 8 14 8 81 110 85 128 2 11 -246 17 -462 10z"/>
<path d="M3194 1663 c-52 -56 -47 -117 11 -136 32 -11 256 10 266 25 6 9 11
88 6 88 -1 0 -29 5 -62 10 -33 6 -75 13 -94 16 -19 3 -45 10 -58 15 -35 13
-41 12 -69 -18z"/>
<path d="M3633 1512 c-40 -4 -42 -18 -10 -85 l22 -47 33 20 c37 23 53 55 42
85 -8 22 -40 32 -87 27z"/>
<path d="M6740 3843 c-118 -175 -264 -389 -324 -478 -60 -88 -160 -235 -222
-327 -63 -92 -117 -173 -120 -181 -4 -12 10 -14 85 -11 50 3 91 1 91 -3 -1
-20 -71 -249 -105 -338 -36 -97 -139 -314 -192 -405 -53 -92 -174 -268 -244
-355 -96 -120 -321 -344 -439 -437 -156 -123 -385 -269 -517 -329 -26 -12 -77
-35 -113 -52 -205 -93 -547 -189 -763 -213 -29 -3 -63 -8 -77 -11 -60 -12
-481 -11 -590 2 -129 15 -198 24 -220 30 -8 2 -31 6 -51 9 -20 3 -96 21 -170
40 -912 236 -1635 911 -1921 1793 l-43 133 -356 0 -356 0 17 -72 c91 -377 253
-753 459 -1068 52 -80 152 -221 176 -247 5 -6 39 -48 75 -92 148 -184 435
-446 663 -605 388 -270 885 -479 1332 -560 106 -20 146 -26 190 -31 28 -4 61
-8 74 -10 159 -26 747 -26 851 0 8 2 38 6 65 10 265 33 576 117 855 232 765
316 1397 895 1776 1628 127 244 213 467 279 720 36 137 75 330 75 369 l0 23
-294 -2 -295 -2 17 26 c9 14 80 118 157 231 78 113 199 291 270 395 71 105
137 201 147 215 18 25 18 31 3 140 -9 63 -19 123 -23 132 -5 13 -62 -64 -222
-299z m-5955 -1648 c23 -52 35 -89 29 -94 -5 -5 -55 -30 -112 -55 -102 -45
-103 -45 -111 -23 -8 20 -1 26 84 67 l94 45 -22 41 c-25 46 -19 46 -125 -3
-85 -39 -88 -39 -95 -12 -5 18 5 26 71 56 113 52 136 62 143 63 4 0 24 -38 44
-85z m5559 -6 c58 -28 106 -53 106 -56 0 -2 -5 -13 -10 -24 -11 -19 -11 -19
-50 1 -22 11 -43 20 -49 20 -23 0 -19 -36 9 -87 28 -49 29 -56 17 -80 l-14
-26 -27 45 c-14 25 -26 50 -26 56 0 15 -13 15 -27 1 -29 -29 -96 -7 -107 36
-4 17 3 47 25 95 18 39 36 70 40 70 4 0 55 -23 113 -51z m-5475 -184 c35 -18
71 -87 65 -123 -16 -92 -145 -146 -208 -87 -50 46 -62 106 -31 156 17 28 86
69 117 69 16 0 42 -7 57 -15z m5349 -56 c53 -34 98 -62 100 -64 6 -6 -11 -35
-22 -35 -6 0 -35 16 -65 35 -30 19 -56 33 -58 31 -3 -2 12 -36 31 -75 38 -74
41 -87 27 -110 -7 -11 -30 -2 -115 48 -58 35 -106 67 -106 71 0 4 7 13 15 20
11 9 25 5 72 -24 32 -20 61 -36 65 -36 4 0 -11 34 -33 76 -28 53 -39 84 -35
100 4 13 11 24 16 24 6 0 54 -27 108 -61z m-5172 -195 c37 -25 57 -98 35 -132
-7 -11 -12 -12 -29 -1 -16 10 -18 18 -12 35 11 28 -22 74 -53 74 -42 0 -94
-48 -103 -96 -3 -20 23 -44 52 -46 47 -3 62 -42 20 -50 -85 -17 -149 98 -96
172 44 61 128 81 186 44z m5030 -41 c49 -36 91 -67 93 -69 1 -1 -3 -12 -11
-23 -14 -20 -15 -20 -58 11 l-43 32 -28 -35 c-16 -19 -29 -37 -29 -41 0 -4 18
-20 40 -34 44 -29 45 -32 27 -55 -11 -15 -23 -10 -105 51 -113 82 -106 74 -92
100 l11 21 34 -25 c19 -14 38 -26 44 -26 5 0 22 16 37 36 24 31 26 37 13 45
-40 22 -62 47 -56 62 11 28 30 20 123 -50z m-4896 -130 c1 -5 23 -33 51 -63
l50 -55 -48 -43 c-26 -24 -69 -61 -94 -83 -44 -37 -47 -38 -63 -21 -17 20 -23
13 115 133 24 21 24 23 -2 53 l-22 25 -70 -60 c-39 -32 -76 -59 -82 -59 -18 0
-55 30 -55 45 0 20 19 29 34 16 10 -8 20 -6 42 11 16 12 31 25 34 29 3 4 25
23 48 43 43 35 62 44 62 29z m4685 -99 c44 -14 94 -30 112 -35 29 -9 31 -12
20 -30 -10 -16 -19 -19 -47 -14 -31 5 -38 2 -64 -31 -28 -36 -29 -38 -14 -65
15 -25 15 -29 -1 -44 -22 -19 -25 -16 -75 80 -21 39 -45 84 -55 100 -16 28
-17 32 -2 52 9 13 22 20 31 17 8 -3 51 -17 95 -30z m-4419 -222 c-14 -14 -20
-11 -61 33 -45 49 -45 49 -65 30 -20 -20 -20 -20 21 -63 35 -36 39 -44 29 -58
-12 -13 -19 -10 -59 29 l-46 45 -24 -23 -24 -23 48 -51 c41 -44 46 -53 34 -67
-12 -14 -20 -9 -76 51 -35 38 -63 71 -63 75 0 5 39 44 88 89 l87 80 63 -66
c57 -59 62 -68 48 -81z m4249 60 c7 -25 15 -32 36 -32 39 0 65 -37 60 -86 0
-7 -26 -38 -57 -69 l-56 -58 -84 84 c-46 46 -84 88 -84 94 0 13 94 98 118 106
29 10 56 -6 67 -39z m-4109 -146 c17 -14 39 -33 50 -40 21 -16 24 -10 -61
-111 -28 -33 -50 -67 -48 -75 2 -9 -10 -29 -26 -44 -25 -24 -33 -27 -45 -17
-14 11 -14 15 -1 28 22 22 20 28 -40 79 -54 45 -56 46 -75 29 -16 -15 -22 -16
-35 -5 -14 12 -12 17 16 46 18 18 36 31 42 27 12 -8 63 31 116 88 39 42 47 47
60 35 9 -7 30 -25 47 -40z m3912 -16 c42 -26 72 -76 72 -123 0 -28 -8 -46 -33
-73 -59 -65 -148 -52 -197 28 -40 66 -16 143 54 174 43 18 66 17 104 -6z
m-3772 -136 c-9 -16 -28 -44 -42 -61 -33 -41 -22 -41 69 -2 59 25 76 28 95 19
27 -12 32 -1 -63 -137 -51 -73 -59 -80 -84 -64 -11 7 -5 22 33 75 52 73 56 71
-62 22 -49 -21 -67 -24 -82 -16 -30 16 -36 4 83 169 35 47 41 51 54 38 13 -13
13 -18 -1 -43z m3540 -29 c10 -16 14 -34 10 -51 -5 -17 -3 -23 4 -19 19 12 52
-7 65 -38 11 -28 11 -36 -3 -60 -19 -32 -77 -66 -105 -61 -41 6 -48 13 -37 34
8 15 17 18 39 14 31 -7 61 16 61 46 0 22 -18 30 -45 20 -11 -4 -26 -3 -33 3
-10 8 -9 13 4 28 22 24 10 59 -21 59 -22 0 -43 -21 -43 -45 -1 -11 -40 -27
-45 -17 -2 4 -2 13 -1 20 1 6 2 19 3 27 2 21 71 65 103 65 18 0 33 -8 44 -25z
m-3256 -111 c44 -25 80 -50 80 -54 0 -6 -96 -180 -114 -207 -1 -1 -11 4 -23
10 -22 12 -22 13 27 97 27 47 50 88 50 91 0 7 -80 52 -84 48 -2 -2 -25 -43
-51 -90 -46 -81 -51 -86 -72 -76 l-22 10 26 46 c82 148 95 171 99 171 3 0 41
-21 84 -46z m3024 -46 c28 -24 57 -49 64 -56 8 -7 29 -24 48 -39 32 -24 34
-28 19 -42 -14 -14 -18 -14 -49 3 -31 16 -36 17 -64 2 -38 -20 -47 -34 -44
-67 3 -20 -2 -28 -19 -32 -13 -4 -24 -5 -25 -4 -1 1 -5 29 -8 62 -4 33 -11 89
-16 124 -8 56 -7 66 8 77 25 19 29 18 86 -28z m-2729 -162 c-72 -160 -80 -173
-103 -165 -25 9 -25 12 30 126 l34 71 -34 16 c-19 9 -35 16 -36 14 0 -2 -19
-39 -41 -83 -42 -84 -62 -98 -104 -75 -25 13 -17 42 11 38 22 -3 34 14 77 114
l30 67 79 -36 80 -35 -23 -52z m2551 87 c44 -41 28 -100 -36 -133 l-39 -20 19
-42 c19 -42 15 -57 -16 -58 -10 0 -109 194 -109 214 0 11 115 64 138 63 11 -1
30 -11 43 -24z m-248 -85 c2 -9 -9 -20 -28 -27 -16 -6 -43 -16 -60 -22 -31
-12 -36 -24 -21 -48 8 -12 17 -12 63 1 63 18 91 11 110 -29 18 -37 12 -70 -16
-88 -34 -22 -139 -56 -147 -48 -16 17 -80 216 -72 223 12 12 146 59 158 56 6
-1 11 -10 13 -18z m-2089 -23 c102 -52 54 -234 -62 -235 -49 0 -93 23 -112 60
-20 39 -19 76 5 126 33 68 97 87 169 49z m185 -55 c24 -9 25 -14 28 -92 l3
-83 38 67 c21 37 41 69 45 71 4 2 22 0 40 -5 37 -10 37 2 -6 -149 -27 -93 -36
-106 -61 -90 -10 7 -11 16 -2 42 31 98 39 129 36 129 -2 0 -23 -33 -46 -72
-23 -40 -43 -75 -45 -77 -2 -2 -14 -1 -27 3 -23 5 -24 8 -19 96 2 49 2 90 -1
90 -2 0 -14 -38 -27 -83 -21 -79 -23 -84 -47 -79 -13 2 -22 10 -20 16 2 6 16
54 31 106 34 122 34 120 45 120 5 0 21 -4 35 -10z m1646 -16 c36 -22 60 -73
60 -129 0 -35 -6 -49 -31 -74 -30 -31 -42 -34 -107 -34 -56 0 -102 62 -102
138 0 88 103 144 180 99z m-1356 -69 c-1 -11 -3 -33 -5 -49 -3 -25 0 -29 21
-32 14 -2 35 -6 48 -9 12 -3 22 -4 22 -3 10 67 14 84 22 89 12 8 49 -1 44 -10
-2 -3 -7 -24 -10 -46 -28 -189 -27 -185 -53 -185 -24 0 -25 2 -18 55 7 60 12
54 -67 70 -18 3 -23 -6 -34 -67 -4 -28 -11 -38 -25 -38 -27 0 -31 14 -20 77 6
32 13 72 15 88 14 79 17 86 39 83 15 -2 22 -10 21 -23z m913 -39 c32 -38 40
-106 17 -153 -22 -45 -54 -63 -111 -63 -82 0 -137 89 -107 175 16 47 22 53 69
69 49 17 103 5 132 -28z m-565 24 c11 0 35 -15 54 -34 29 -29 34 -41 34 -80 0
-83 -43 -136 -112 -136 -54 0 -85 15 -109 52 -26 42 -22 127 7 159 23 26 74
50 92 44 8 -3 23 -5 34 -5z m313 -25 c0 -16 -7 -20 -40 -22 -22 -1 -48 -2 -58
-2 -15 -1 -17 -11 -13 -95 4 -101 -1 -121 -30 -112 -17 5 -19 19 -22 125 l-2
120 27 3 c16 2 53 3 83 3 48 0 55 -2 55 -20z"/>
<path d="M6224 2143 c-28 -68 13 -93 54 -33 l23 34 -23 18 c-32 24 -36 23 -54
-19z"/>
<path d="M756 1936 c-40 -37 -41 -43 -24 -81 21 -45 88 -46 134 0 29 29 31 64
4 93 -31 33 -72 28 -114 -12z"/>
<path d="M5790 1455 c0 -2 10 -20 21 -40 l22 -37 21 21 c12 13 17 24 11 30
-11 9 -75 32 -75 26z"/>
<path d="M5625 1310 c-11 -4 -29 -17 -39 -29 -18 -20 -18 -22 -1 -41 17 -19
18 -19 46 3 26 21 38 60 22 70 -5 3 -17 1 -28 -3z"/>
<path d="M5670 1221 l-35 -29 25 -26 24 -27 26 28 c33 36 41 58 27 72 -17 17
-30 14 -67 -18z"/>
<path d="M1504 1138 c-11 -13 -37 -37 -58 -54 l-38 -32 37 -28 37 -28 49 54
c54 61 57 70 31 93 -25 22 -35 21 -58 -5z"/>
<path d="M5392 1114 c-52 -36 -3 -144 65 -144 68 0 87 73 34 129 -32 34 -64
39 -99 15z"/>
<path d="M4988 770 c4 -42 11 -47 44 -29 20 11 19 11 -8 40 -15 16 -30 29 -34
29 -3 0 -4 -18 -2 -40z"/>
<path d="M4758 724 c-26 -13 -26 -15 -11 -44 8 -17 18 -29 21 -27 46 21 62 33
62 48 0 33 -33 43 -72 23z"/>
<path d="M4555 537 c-16 -6 -31 -12 -33 -12 -1 -1 3 -16 9 -33 10 -30 11 -30
47 -18 41 14 58 36 49 60 -7 18 -28 19 -72 3z"/>
<path d="M2413 611 c-22 -21 -38 -81 -28 -110 7 -24 50 -43 81 -35 30 8 63 67
58 107 -6 54 -70 75 -111 38z"/>
<path d="M4246 539 c-32 -25 -34 -70 -6 -116 35 -58 120 -39 120 27 0 87 -59
132 -114 89z"/>
<path d="M3770 450 c-27 -27 -27 -89 1 -124 43 -55 119 -14 115 62 -1 23 -10
50 -21 62 -23 26 -69 26 -95 0z"/>
<path d="M3267 442 c-9 -10 -19 -35 -22 -57 -13 -78 58 -123 110 -71 19 19 23
32 21 71 -2 33 -9 52 -21 61 -26 19 -69 17 -88 -4z"/>
</g>
</svg>
