<svg width="22" height="15" viewBox="0 0 22 15" fill="none" xmlns="http://www.w3.org/2000/svg">
<path d="M4.75912 14.8061C2.13506 14.8061 0 12.7566 0 10.2372C0 7.71782 2.13506 5.66797 4.75912 5.66797C7.3834 5.66797 9.51824 7.71771 9.51824 10.2372C9.51842 12.7566 7.3834 14.8061 4.75912 14.8061ZM4.75912 6.59345C2.6663 6.59345 0.963838 8.22803 0.963838 10.2372C0.963838 12.2462 2.66652 13.8808 4.75912 13.8808C6.85194 13.8808 8.55444 12.2462 8.55444 10.2372C8.55462 8.22806 6.85194 6.59345 4.75912 6.59345Z" fill="black"/>
<path d="M17.2408 14.8061C14.6165 14.8061 12.4814 12.7566 12.4814 10.2372C12.4814 7.71782 14.6165 5.66797 17.2408 5.66797C19.8651 5.66797 21.9999 7.71771 21.9999 10.2372C22.0001 12.7566 19.8651 14.8061 17.2408 14.8061ZM17.2408 6.59345C15.1479 6.59345 13.4453 8.22803 13.4453 10.2374C13.4453 12.2463 15.1479 13.881 17.2408 13.881C19.3336 13.881 21.0361 12.2463 21.0361 10.2374C21.0363 8.22806 19.3336 6.59345 17.2408 6.59345Z" fill="black"/>
<path d="M0.913576 8.82712C0.862099 8.82712 0.809686 8.81898 0.758209 8.8021C0.506249 8.71973 0.371732 8.45696 0.457504 8.21511L2.86433 1.4315C3.00446 0.896851 3.40794 0.466016 4.00316 0.216433C4.55968 -0.0169298 5.22741 -0.0633469 5.88317 0.0857749C6.14207 0.144616 6.30243 0.393889 6.24093 0.642609C6.17982 0.891157 5.92095 1.04549 5.66091 0.986097C5.20714 0.882633 4.7553 0.910587 4.38885 1.0644C4.06963 1.19837 3.85916 1.41269 3.7961 1.66803L3.78338 1.71045L1.36983 8.51349C1.30142 8.70596 1.11424 8.82712 0.913576 8.82712Z" fill="black"/>
<path d="M21.0537 8.82739C20.8531 8.82739 20.6659 8.70619 20.5975 8.51372L18.1712 1.6681C18.1081 1.41275 17.8977 1.19847 17.5784 1.06443C17.212 0.911236 16.7602 0.882695 16.3064 0.986159C16.0464 1.04483 15.7876 0.891047 15.7263 0.642671C15.665 0.393951 15.8252 0.144678 16.0841 0.085837C16.7398 -0.0633193 17.4076 -0.01704 17.9641 0.216496C18.5592 0.466286 18.9628 0.89712 19.103 1.43156L21.5098 8.21513C21.5956 8.45702 21.4609 8.71958 21.2089 8.80213C21.1576 8.81925 21.1052 8.82739 21.0537 8.82739Z" fill="black"/>
<path d="M12.9632 10.7011C12.8895 10.7011 12.8147 10.6848 12.7448 10.6505C12.7394 10.648 12.0149 10.3069 10.9544 10.3069C9.91136 10.3069 9.28004 10.6378 9.2739 10.6411C9.04257 10.7649 8.74898 10.6868 8.61849 10.4655C8.488 10.2442 8.56666 9.96404 8.7964 9.83745C8.83012 9.81874 9.63762 9.38184 10.9544 9.38184C12.2586 9.38184 13.1451 9.80839 13.1823 9.82634C13.4195 9.94236 13.5137 10.2211 13.3928 10.4485C13.3078 10.6088 13.1386 10.701 12.9632 10.7011Z" fill="black"/>
</svg>
