<svg xmlns="http://www.w3.org/2000/svg" width="88" height="88">
  <path fill-rule="evenodd"
    d="M43.932 9.783c16.003 0 29.459 10.917 33.302 25.676l9.412.004L74.55 53.028h2.598C73.19 67.621 59.813 78.395 43.932 78.395c-15.876 0-29.253-10.782-33.21-25.367l-9.45-.005L13.368 35.45l-2.734.005C14.453 20.66 27.908 9.783 43.932 9.783Zm34.234 24.868 8.955.005C82.794 14.837 65.098 0 43.933 0 21.661 0 3.233 16.431.177 37.808l7.492-.06L0 48.984a42.95 42.95 0 0 0 .51 3.378l11.296-16.618-2.407.07C13.138 20.244 27.18 8.67 43.932 8.67c16.334 0 30.094 11 34.234 25.98Zm-68.04 19.28-8.955-.005C5.502 73.744 22.902 88 44.068 88c22.275 0 40.698-16.435 43.758-37.808l-7.496.06L88 39.016a45.039 45.039 0 0 0-.505-3.378l-11.3 16.618 2.406-.07C74.866 67.756 60.82 79.33 44.068 79.33c-16.334 0-29.798-10.417-33.942-25.398Zm-1.433-5.133.005-.013-.005.013Zm.636-.013v.005l5.511-.03.862-.049 1.45-.06 2.895-4.425h.004l.279-.421.535-.79.649-1 .374-.538-1.128.009-3.517.017-3.778.026-.836.005.191-.326.897-1.36h.009l6.068-.073 2.512-.056.788-.014.814-1.15.492-.782.392-.525-.619.004-1.519.009-2.116.008-1.71.014-1.763.008-2.551.013-1.002.009-.104.13-.418.639-.975 1.459-1.402 2.08-2.355 3.508-2.342 3.509-.096.151.153-.004 2.716.013h.004l.431-.004.205-.005v-.004Zm7.679-2.731-3.774.022-2.752.03h-.248l-.078.004v.005h-.139l-.022-.005-.013-.004-.018-.065.01-.104.4-.639.013-.017.013-.022.078-.113.109-.165.06-.087.084-.117.33-.408.118-.126h.044l.461-.004 6.138-.035.492.004-1.236 1.846h-.07Zm5.533-4.573-4.671 7.265 6.939-.1.958-1.507-4.798.026.549-.864.27-.247 4.814-.091 1.102-1.755-4.754.026.792-1.32 1.794-.03 1.998-.009 1.193-.008.814-1.425-7 .04Zm2.834 7.239 4.71-7.239 3.36-.021.057 6.787 5.063-7.56 2.32-3.54 2.129-.012.013 2.588.013 2.34.005.604 1.623-2.445 1.567-2.349.505-.76 2.495-.017.013 1.893.013 2.57.017 2.532.005.751 3.992-6.04 3.364-5.102.014 2.328.008 1.05 10.156-.056.009 1.541.052 5.68.022.747 5.333-8.007 9.842-.06-7.661 11.528-7.396.039-.105-3.122.096 3.117h-.253l-.109.005-2.816.035-.109-.092-.035-8.762-4.048.022.052 8.87-2.938-.017.008 1.364.022 3.235-2.73.017-.017-2.6-5.546.06-1.654 2.584-3.06.047 2.734-4.22.296-.448-.01-4.872-.008-1.246-1.158 1.724-1.162 1.776-.81 1.194-.718 1.116-.213.33-2.181.035-.087-4.872-.009-1.107-.618.955-2.36 3.5-1.005 1.528-2.965.018v-.014l-1.98.035-.07-5.862-1.21 1.833-2.63 3.99-2.237.074Zm24.83-.373 3.849-5.528.03 5.506-3.879.022Zm22.637-2.476 4.11-6.352-3.148.022-4.349 6.352 3.387-.022Zm10.16-8.389-8.136 11.976-11.94.048.013-8.094-.005-.273-.117-.196-2.142-.065-.296.139.004 3.956.009 1.667.013 1.88.004 1.06-1.628-.052-1.24-.048.03 1.45.035 2.857.022.257-3.814.021h-.213l-.026-.898-.048-1.234-.04-.217-.038-.078-.1-.117-.157-.057h-.47l-1.633.03-1.963.031-.218.022-.078.039-.23.395-.528.903-.487.847-.253.469-1.158.009-1.18.004-.783.004-.827.005-.666.004-.453.004h-.117l.409-.647.448-.707.527-.79.388-.609.857-.985.213-.547.51-.808.291-.413-.004-.764-.009-.96.018-.334-.157-.313-.218-.017-.078.017-.196.2-.483.725-.666.964-.505.769-.466.708-.905.004-.884.026-1.236.026-.179.022-.026-1.077-.03-1.845v-.135l-.118-.195-.157-.118h-.117l-.122.04-.253.373-.348.495-.392.569-.7 1.003-.527.73-.118.195-1.254.008-4.026.005-6.66.039-19.076.108-.627.005-.235.06-.04.291.061.157.096.078 4.227-.022h3.3l2.237-.013 3.065-.017 4.597-.026 11.118-.065h3.478l1.929-2.719.048 1.685.004.452.061.234.1.235.213.06 3.753-.021 1.81-2.636.027.86-1.441 2.162-2.316 3.483-.1.117-.017.178v.178l.278.152 5.755-.052.274-.06.157-.04.836-1.455.544-.903.118-.2 3.3-.017.413-.004.043 1.042.026.842.005.526.274.156 1.907-.009 1.728-.013 1.097-.004.274-.317-.035-2.684-.008-1.45.748-.004 1.629.013.391-.2-.03-8.506 1.358-.005-.017 4.19-.018 3.665.005.513.078.156.1.117 12.394-.052h.022v-.004l.422-.03 8.375-12.463.175-.252.034-.047.009-.048.004-.035.005-.052-.005-.052-.004-.044-.009-.034-.013-.035-.013-.026-.017-.026-.013-.017-.018-.014-.017-.013-.009-.004-.022-.017-.021-.009-.022-.009-.013-.004-.035-.009h-.061l-.04.005-.038.004-.026.004-.048.018-.044.017-.03.013-.022.009-.074.113-.087.121-.183.27-.03.047ZM45.91 70.588l-.091.039-.057-.105-.083-.143-.109-.17-.087-.142-.013-.074-.022-.091-.017-.074-.022-.065-.026-.07-.022-.035-.017-.026-.022-.013-.017-.07-.026-.134-.018-.091-.017-.104-.018-.14h-.008.008l.65-.103.2-.018.252.013.235.074.126.065.091.135.07.217-.017.252-.066.178-.165.234-.17.161-.265.182-.257.118Zm6.904-6.987.035-.044.06-.078.014-.013c.048-.056.091-.117.14-.178l-.07.092-.07.086-.074.091-.026.035-.009.009Zm-9.124 4.99-.127.012-.465.035-.353.03-.261.026-.253.035-.383.07-.3.078h-.287l-.497.017-.256-.022-.34-.1-.257-.112-.113-.092-.109-.143-.026-.182.026-.226.074-.313.13-.286.149-.243.126-.144.218-.178.191-.104.684.204.209.04.335.056.357.06.618.122.618.096.357.056-.009.235-.034.655-.022.317ZM35.73 19.33l-.013.8h-.035l.013.026c-4.279 1.641-7.775 3.908-10.478 6.804a23.98 23.98 0 0 0-1.493 1.759 24.228 24.228 0 0 0-1.31 1.906l-.026-.018v.03l-2.116.083-.005-.034-.026-.013v-.005a30.281 30.281 0 0 1 1.567-2.492 27.582 27.582 0 0 1 1.764-2.25c3.186-3.647 7.235-6.213 12.14-7.694l.01.03h.004l-.005-1.202.597-.005.553-.3.16-.021.453-.043.893-.061.535-.065.636-.161 1.763-.547.413-.122h.38l.395-.004.536.195.34.157.356.278.044.278.039-.044.017-.156.179-.16.296-.2.335-.161.418-.14.335-.06.636.035.953.252.875.251.714.196.474.095.28.018.456.039.614.035.557.056.418.295.653-.026.096 9.683-.457-.056-.753-.035-.893.026-1.17.005-.453.004-.48-.04-.317-.056-.218-.095-2.163-.048-.04.178-.156.1-2.36.013-.078-.278-.775.005-1.188.047-.893.044-.814.047-1.031.066-.871.06-1.25.109-.03-7.412Zm-.109 1.92h.035l.018 1.828h-.018l.009.026c-2.795.947-5.302 2.514-7.514 4.698-.43.426-.849.873-1.258 1.342-.41.474-.805.968-1.193 1.485l-.026-.017v.03l-2.159.035-.004-.03-.027-.018.005-.004a33.347 33.347 0 0 1 1.52-2.032 28.186 28.186 0 0 1 1.58-1.802c2.755-2.888 5.763-4.746 9.028-5.571l.004.03Zm-8.845 9.357v-.004c.391-.482.783-.942 1.18-1.376.395-.439.796-.847 1.196-1.234 2.077-1.984 4.24-3.313 6.5-3.986l.008.03h.035l-.035 1.911v.022l-.021.009c-1.96.694-3.618 1.693-4.985 2.996a12.02 12.02 0 0 0-.766.794c-.24.274-.474.565-.696.865l-.01.013h-.017l-2.363.013v-.03l-.026-.023Zm25.387-4.802.536.239.844.425.71.374.466.273.605.391.535.356.431.326.47.36.38.304.504.413.536.495.448.408.226.221 2.325.022-.33-.46-1.938-1.95-.814-.664-.296-.226-.553-.408-.5-.356-.501-.36-.623-.409-1.105-.612-.693-.373-1.105-.513-.588-.234.03 1.958Zm10.204 4.637 2.112-.06-1.18-1.52-1.014-1.216-1.184-1.133-1.837-1.598-1.55-1.146-.71-.465-.3-.183-.405-.217-.505-.247-1.315-.665-1.04-.477-.84-.33-.475-.148.048 1.893.253.13.753.3.557.265.81.395.788.4.622.382 1.162.73.81.599.64.447 1.132.999.557.551.557.547.98 1.103.422.5.152.165ZM52.13 20.035h-.035l-.009-1.867v-.043l.04.013c3.225.972 6.142 2.479 8.74 4.515 2.604 2.037 4.894 4.603 6.87 7.7l-.026.017v.034l-2.068.01-.009.008c-2.69-3.8-5.78-6.652-9.268-8.563a22.824 22.824 0 0 0-4.244-1.794h-.005l.014-.03ZM43.4 29.54H43.253l-.07-.004-.16-.013-.13-.013-.053-.004-.087-.014-.074-.012-.057-.014-.174-.026-.078-.021-.066-.013-.087-.018-.074-.021-.082-.026-.07-.018-.105-.03-.23-.126-.074-.065-.074-.065-.057-.052-.083-.096-.047-.074-.061-.104-.03-.083-.023-.073-.013-.066-.021-.108-.01-.074-.003-.082-.013-.105-.005-.086-.004-.07.261-.004h.492l.366-.005h.474l.187-.004H43.384l.266-.004H44.189l.854-.009h.535l.492-.004.479-.005h.444l-.005.144-.013.134-.021.113-.03.13-.04.109-.06.13-.08.13-.051.074-.105.135-.091.096-.096.065-.17.065-.187.06-.14.04-.195.052-.248.052-.162.03-.343.044-.179.017-.144.009h-.043l-.013.208-.005.243v.109h.453l.227.004.143.013.23.013-.121.157-.213.2-.11.104-.164.164-.188.122-.217.044-.127.034v.243l-.004.409-.017.195-.005.252-.074.725-.07.39-.052.253-.039.16-.056.217-.061.291-.074.465-.026-.182-.035-.244-.03-.208-.031-.213-.013-.117-.048-.056-.074-.148-.057-.187-.043-.247-.026-.174-.035-.365-.013-.23-.013-.243-.01-.221-.008-.287-.004-.404-.113-.022-.183-.03-.218-.026-.152-.056-.113-.087-.135-.109-.135-.13-.079-.1-.039-.074-.03-.1-.14-.195.405.022.396.021.257.018.183.017h.04l-.018-.122-.048-.23-.03-.178-.014-.126Zm3.418 33.622.566-.252.33-.143.21-.091.3-.13.318-.16.209-.162.156-.138.222-.244.148-.217.179-.334.096-.27.06-.156.04-.152.026-.147.06-.291.04-.24-.013-.23-.061-.26-.144-.347-.13-.187-.14-.148-.17-.182-.213-.165-.209-.13-.2-.109-.24-.095-.19-.07-.301-.078-.222-.048-.24-.039-.24-.03-.278-.026-.2-.022-.392-.026-.3-.009-.118-.008-.24-.009-.239-.017-.243-.022-.248-.017-.331-.018-.48-.026-.169-.008-.178-.01h-.005v-.003l-.265.004-.048.008h-.005l-.27.066-.156.034-.388.092-.108.026-.27.234-.113.087-.17.13-.179.152-.335.317-.209.174-.23.2-.149.139-.021.052.16.1.37-.014.392-.034.288-.03.191-.04.196-.082.1-.052.67-.222.64-.165.497-.1.531-.082.318-.035.261-.022.43-.021.68.008.379.048.34.057.321.078.37.139.28.134.282.191.261.235.122.239.03.39-.039.387-.078.3-.157.382-.07.13-.156.13-.361.26-.318.214-.749.32-.466.2-.618.287-.178.187-.035.03-.292.235-9.703.056c1.18 1.507 2.538 2.55 4.088 3.131l-.188.221-.413.53-.126.295-.183.543.013.27.017.273.092.187.204.308.244.217.496.248.244.065.57.078.523.022.383-.009.344-.026.378-.035.4-.056.789-.091-.005.108-.017.009.013.082-.004.087-.005.03-.043.165-.092.226-.174.374-.052.117-.017.026-.14.195-.165.165h.004l-.004.005-.057.047-.039.035-.03.03-.087.062-.074.047-.074.057-.083.047-.074.044-.052.03-.096.044-.078.039-.114.039-.056.017-.109.013v.005l-3.308.16.021.065.71.183.662.174 1.236.29 1.15.135.726.087.727.095.004.118.014.112.03.24h-.688l-.514-.022-.374-.04-.379-.038-.265-.044-.166-.026-.304-.04-.283-.051-.235-.057-.349-.065-.335-.082-.209-.057-.296-.095-.348-.096-.57-.19-.488-.166-.644-.286-.31-.152-.139-.026-.165-.014-.152.083.013.126.03.126.336.165.444.19.478.21.248.095.575.204.514.152.6.148.797.134 1.158.23 2.007.17.152.013.2.582.17.29.392.682.296.343.152.083.013-.083-.07-.26-.1-.278-.1-.295-.095-.304-.074-.291-.057-.348v-.113l.945-.104 1.558-.147 1.184-.157 1.02-.256.918-.217 1.998-.847v-.36l-.1-.07-.11.044-.195.056-1.445.647-1.128.382-.47.118-.335.082-.462.074-.988.13-.54.03-.322.018-1.227.104-.366.03v-.004l-.013-.182.004-.187.013-.165.066-.004.618-.035.283-.013.235-.022.361-.035.475-.06.365-.044.383-.06.366-.057.505-.1.387-.113.21-.056.265-.078.24-.07.221-.065.231-.056.153-.048.309-.087.121-.026h.131v-.087h-.231l-.13-.009h-.2l-.253.005-.244-.013-.2.004-.196-.013-.244-.009-.33-.008-.388-.022-.287-.017-.174-.022-.188-.022-.387-.065-.244-.096-.209-.078-.113-.043.057-.087.108-.117.07-.07v.005l.244-.204.291-.187.266-.178.1-.174.066-.17.034-.134.018-.143-.005-.126-.017-.109-.017-.1-.04-.13-.104-.226-.118-.225-.135-.235-.126-.117-.144-.109-.17-.039-.226-.056-.335-.057-.274-.017h-.244l-.252.022-.318.052-.1.013-.04-.621-.026-.334.096-.013.31-.04.517-.065.444-.073.31-.066.383-.086.64-.165.309-.1.505-.165.478-.2.854-.4.291-.182a7.838 7.838 0 0 0 1.023-.634l.048-.03v-.005c.379-.282.74-.599 1.08-.95l.26-.244.066-.065.052-.056.061-.066.044-.052.04-.039.047-.052.057-.07.06-.069.044-.06.035-.053.04-.06.025-.044.018-.039.008-.03.005-.03-.013.017.013-.022-6.36.04v-.023h.013Zm3.526-51.412-.3-.013-.314.018-.366.082-.465.165-.392.178-.627.239-.34.056-.435.026-.453.018h-.313l-.41.03-.583.074-.435.082-.3.1-.357.135-.31.165-.152.139-.187.3-.135.286-.065.165-.07.421.048.612.057.465.26.652.027-.326.383-.03.2-.504.013-.03.135-.179.819-.425.679-.304.679-.26.596-.235.492-.183.3-.152.257-.165.192-.19.213-.261.135-.135.126-.082.014-.013.27-.317.147-.135.148-.113.218-.121.178-.07.192-.082.23-.083ZM40.359 23.38h-.706v-2.654a2.48 2.48 0 0 1-.91.535v-.639a2.07 2.07 0 0 0 .601-.343 1.34 1.34 0 0 0 .444-.59h.57v3.69Zm1.07-.847.684-.078c.017.139.06.243.13.308.075.065.166.1.28.1.147 0 .269-.065.373-.2.1-.134.166-.412.196-.834a.838.838 0 0 1-.666.309.979.979 0 0 1-.748-.335c-.214-.221-.318-.512-.318-.868 0-.373.113-.673.335-.903a1.14 1.14 0 0 1 .844-.343c.375 0 .684.147.923.434.24.29.357.764.357 1.424 0 .669-.122 1.155-.374 1.45-.248.3-.575.448-.975.448-.288 0-.518-.074-.697-.23-.178-.152-.291-.383-.344-.682Zm1.598-1.542c0-.225-.052-.403-.157-.53a.46.46 0 0 0-.361-.186c-.13 0-.24.052-.327.152-.087.104-.13.274-.13.508 0 .235.048.412.144.521a.43.43 0 0 0 .352.165.434.434 0 0 0 .34-.156c.096-.109.14-.265.14-.474Zm1.228 1.416.679-.082c.026.173.083.303.178.395a.466.466 0 0 0 .349.139.481.481 0 0 0 .365-.165c.1-.113.148-.26.148-.448 0-.173-.043-.317-.14-.42a.46.46 0 0 0-.352-.157c-.087 0-.196.017-.322.056l.079-.573c.191.004.335-.039.435-.126a.444.444 0 0 0 .152-.352.417.417 0 0 0-.109-.295.402.402 0 0 0-.296-.108.415.415 0 0 0-.309.125.568.568 0 0 0-.157.365l-.648-.108c.043-.226.113-.404.204-.534a.898.898 0 0 1 .38-.313c.165-.078.348-.117.548-.117.348 0 .627.113.836.334a.85.85 0 0 1 .26.612c0 .322-.178.578-.53.769a.879.879 0 0 1 .505.304.88.88 0 0 1 .191.569c0 .321-.117.599-.357.825a1.217 1.217 0 0 1-.88.338c-.334 0-.609-.095-.83-.286a1.122 1.122 0 0 1-.38-.747Zm4.692.973h-.71v-2.654a2.48 2.48 0 0 1-.909.535v-.639a2.07 2.07 0 0 0 .6-.343c.218-.169.366-.364.445-.59h.574v3.69ZM9.368 59.289l1.032 2.262-2.852 1.294-.26-.573 2.372-1.077-.51-1.111-2.372 1.072-.261-.573 2.851-1.294Zm-.017 3.608a2.08 2.08 0 0 1 .766-.282c.174-.017.348-.009.518.035.174.043.322.113.448.208.17.126.318.296.449.517.235.395.3.786.191 1.168-.104.382-.379.704-.818.964-.435.252-.85.334-1.232.243-.388-.09-.697-.338-.927-.734-.235-.399-.3-.79-.196-1.168.104-.382.374-.699.8-.95Zm.348.552c-.305.178-.496.386-.57.62a.787.787 0 0 0 .082.674c.127.217.31.347.549.395.235.048.514-.017.827-.204.31-.182.5-.382.57-.608.074-.226.044-.447-.087-.673a.805.805 0 0 0-.553-.408c-.23-.044-.505.022-.818.204Zm2.481 4.538.2.612c-.335.121-.63.139-.892.06-.261-.082-.492-.26-.688-.534-.24-.338-.322-.699-.248-1.08.079-.383.318-.717.718-1 .427-.303.832-.425 1.224-.373.392.052.714.256.97.612.223.309.31.63.262.956-.027.19-.122.39-.283.595l-.483-.426a.667.667 0 0 0 .178-.408.64.64 0 0 0-.135-.43.707.707 0 0 0-.531-.317c-.218-.022-.479.078-.784.295-.322.226-.513.447-.566.66a.68.68 0 0 0 .118.6.643.643 0 0 0 .379.26c.156.035.348.009.561-.082Zm2.46-.03 1.454 1.64-2.347 2.068-.422-.474 1.955-1.72-.627-.703-1.001.886a5.872 5.872 0 0 1-.627.5.566.566 0 0 1-.388.09c-.13-.017-.265-.104-.405-.26a6.732 6.732 0 0 1-.252-.317l.366-.321.095.104c.087.1.157.156.214.165.056.013.14-.03.244-.122l.4-.356 1.34-1.18Zm-.14 4.463 2.273-2.15 1.598 1.681-.388.365-1.158-1.225-.505.478 1.08 1.138-.383.36-1.08-1.138-.622.587 1.205 1.267-.383.36-1.636-1.723Zm4.65.113 1.645 1.403-1.698 1.975.21.178-.784.916-.4-.338.443-.517-1.497-1.281-.444.517-.4-.339.787-.916.2.17c.27-.118.54-.296.802-.54.26-.242.57-.568.918-.976l.218-.252Zm.117.79c-.622.721-1.136 1.19-1.55 1.407l.902.773 1.354-1.576-.706-.604Zm2.225 1.103.479.343-1.21 1.694 2.241-.956.514.365-1.82 2.54-.483-.343 1.189-1.659-2.22.925-.514-.369 1.824-2.54Zm2.699 1.85 2.168 1.224-1.546 2.719-.548-.313 1.284-2.258-1.067-.603-1.284 2.257-.553-.308 1.546-2.718Zm3.082 1.676 1.998.912-1.302 2.84-.574-.26 1.08-2.363-.858-.39-.558 1.21c-.156.348-.278.587-.365.713a.58.58 0 0 1-.318.247c-.126.035-.283.009-.474-.078-.07-.03-.188-.095-.362-.186l.205-.448.126.061c.122.056.209.078.266.065.056-.013.113-.082.174-.213l.222-.486.74-1.624Zm2.146 2.636c.117-.295.261-.53.427-.695.126-.122.27-.217.43-.29.162-.07.323-.11.48-.114.213-.004.435.04.674.135.431.17.718.434.87.803.153.365.136.786-.051 1.26-.183.468-.458.785-.819.95-.361.165-.757.161-1.184-.008-.43-.17-.723-.439-.875-.804-.152-.364-.135-.777.048-1.237Zm.614.217c-.13.33-.153.612-.07.838.087.23.248.39.479.486a.806.806 0 0 0 .679-.026c.218-.108.392-.334.527-.668.13-.335.157-.613.074-.834-.079-.222-.244-.378-.483-.474a.808.808 0 0 0-.688.018c-.213.104-.388.326-.518.66Zm2.546 2.501.845-3.01.91.253-.026 2.206 1.114-1.902.914.252-.84 3.009-.566-.157.662-2.366-1.263 2.201-.583-.165.061-2.535-.662 2.37-.566-.156Zm3.983.955.523-3.078.622.104-.204 1.211 1.223.204.205-1.211.622.104-.518 3.083-.622-.104.226-1.346-1.223-.209-.227 1.346-.627-.104Zm3.535-1.085c.026-.322.096-.582.21-.79a1.45 1.45 0 0 1 .326-.404c.13-.113.274-.196.422-.248.205-.065.431-.087.684-.07.46.04.818.21 1.07.517.253.304.362.713.318 1.22-.039.504-.209.886-.505 1.147-.296.26-.675.373-1.132.339-.465-.04-.822-.209-1.075-.513-.248-.304-.357-.703-.318-1.198Zm.653.03c-.026.352.03.625.183.82a.789.789 0 0 0 .6.322.79.79 0 0 0 .64-.221c.175-.17.275-.43.306-.795.03-.356-.03-.625-.17-.816a.808.808 0 0 0-.605-.313.795.795 0 0 0-.649.217c-.174.165-.274.426-.305.786Zm3.117-1.39 2.125-.052.013.526-1.49.039.066 2.597-.635.017-.079-3.126Zm2.625 1.499c-.03-.317-.008-.59.066-.812.056-.165.139-.317.252-.456.109-.135.235-.243.374-.317.188-.1.41-.16.662-.187.462-.043.84.065 1.145.321.3.257.479.643.527 1.147.048.504-.053.907-.3 1.22-.249.308-.601.482-1.059.525-.461.048-.844-.06-1.144-.317-.3-.256-.475-.63-.523-1.124Zm.649-.083c.03.352.14.608.318.778a.817.817 0 0 0 .648.212.8.8 0 0 0 .592-.33c.144-.195.2-.473.166-.834-.035-.356-.14-.616-.314-.777-.17-.16-.387-.226-.648-.204a.811.811 0 0 0-.601.326c-.144.195-.196.469-.161.83Zm5.333-.76c-.079-.308-.1-.577-.061-.812.026-.169.087-.334.174-.486a1.23 1.23 0 0 1 .322-.373c.17-.13.374-.226.622-.287.449-.117.84-.07 1.18.139.34.208.575.556.7 1.05.127.487.092.904-.104 1.247-.196.347-.513.573-.962.69-.448.113-.844.07-1.18-.134-.339-.209-.57-.552-.691-1.034Zm.626-.182c.087.343.235.582.436.716a.805.805 0 0 0 .674.113.793.793 0 0 0 .532-.42c.113-.214.121-.496.034-.848-.091-.347-.235-.586-.43-.716-.196-.135-.423-.165-.675-.1a.808.808 0 0 0-.544.413c-.11.212-.118.495-.027.842Zm2.538-2.34 2.207-.778.175.495-1.611.57.24.68.796-.281c.222-.079.413-.113.579-.113.165.004.322.06.479.169.152.109.26.26.33.452.07.2.079.39.027.568a.865.865 0 0 1-.248.417c-.114.096-.297.191-.54.278l-1.393.49-1.04-2.948Zm1.463 2.24.579-.204c.187-.065.313-.117.383-.165a.422.422 0 0 0 .152-.191.395.395 0 0 0 0-.265c-.048-.139-.135-.221-.252-.247-.122-.03-.296 0-.531.082l-.61.213.279.777Zm2.93-.53-1.346-2.822.92-.434c.343-.165.578-.257.696-.278a.818.818 0 0 1 .54.082c.178.091.317.248.426.474a.995.995 0 0 1 .113.481.87.87 0 0 1-.109.391.963.963 0 0 1-.23.274c-.127.091-.314.2-.575.321l-.37.178.505 1.064-.57.27Zm-.544-2.614.378.8.314-.148c.226-.105.37-.191.43-.257a.414.414 0 0 0 .114-.225.388.388 0 0 0-.044-.248.4.4 0 0 0-.209-.213.446.446 0 0 0-.291-.017 3.11 3.11 0 0 0-.418.178l-.275.13Zm5.693.005-.605.33-.579-.495-1.1.595.112.746-.592.317-.418-3.326.588-.317 2.594 2.15Zm-1.61-.535-.936-.812.183 1.22.753-.408Zm1.371-2.049-.592.217c-.17-.495.004-.916.522-1.255.305-.204.584-.286.828-.256.243.03.426.139.548.317.083.126.122.26.113.408a1.084 1.084 0 0 1-.143.478c.213-.057.4-.057.557-.009.156.052.291.16.396.317.152.23.187.47.113.72-.074.253-.279.492-.614.709-.274.182-.518.278-.735.29-.218.014-.453-.078-.697-.273l.379-.478c.152.126.287.183.4.174a.766.766 0 0 0 .353-.13c.165-.109.261-.226.292-.347a.388.388 0 0 0-.048-.322.365.365 0 0 0-.3-.174c-.131-.008-.284.044-.453.157l-.122.082-.261-.395.06-.039c.161-.109.262-.226.3-.352a.426.426 0 0 0-.06-.373.398.398 0 0 0-.266-.174.498.498 0 0 0-.361.1c-.222.148-.292.348-.209.608Zm2.36-.682c-.2-.247-.336-.482-.401-.707a1.595 1.595 0 0 1-.048-.517c.018-.174.061-.335.135-.474.1-.186.248-.36.444-.525.357-.29.731-.412 1.128-.37.396.044.757.266 1.08.657.321.39.465.781.434 1.176-.03.395-.226.738-.578 1.03-.362.295-.736.42-1.128.373-.396-.043-.749-.256-1.067-.643Zm.491-.43c.222.274.457.43.701.47a.811.811 0 0 0 .658-.187.798.798 0 0 0 .304-.604c.01-.239-.1-.504-.33-.782-.231-.277-.462-.434-.693-.468a.788.788 0 0 0-.653.19.793.793 0 0 0-.317.608c-.01.24.1.496.33.773Zm1.376-3.122.892-.873c.179-.173.318-.295.418-.364.1-.07.21-.117.323-.14a.834.834 0 0 1 .356.023c.122.03.231.095.323.19a.73.73 0 0 1 .2.374.734.734 0 0 1-.035.421.82.82 0 0 1 .51-.108c.17.026.317.104.443.23a.94.94 0 0 1 .253.786.936.936 0 0 1-.2.4c-.07.082-.244.264-.531.55l-.762.743-2.19-2.232Zm.814-.07.51.517.295-.29c.175-.17.283-.283.318-.33a.397.397 0 0 0 .105-.257.34.34 0 0 0-.105-.238.343.343 0 0 0-.222-.113.384.384 0 0 0-.248.087c-.048.039-.178.165-.392.373l-.26.252Zm.875.887.583.599.418-.408c.166-.161.261-.265.296-.317a.385.385 0 0 0 .079-.252.392.392 0 0 0-.122-.252.44.44 0 0 0-.218-.122.406.406 0 0 0-.244.035c-.078.04-.226.16-.43.36l-.362.357Zm4.723-3.11-.44.53-.722-.243-.797.964.383.651-.426.513-1.637-2.927.427-.512 3.212 1.025Zm-1.697.11-1.171-.409.626 1.064.545-.656Zm2.224-.67-2.516-1.862.374-.508.993.733.74-.99-.993-.734.379-.508 2.516 1.863-.378.508-1.102-.816-.736.994 1.097.812-.374.508Zm-.583-4.58.309-.504 1.776 1.09-1.11-2.167.326-.539 2.669 1.637-.31.504-1.74-1.068 1.08 2.145-.332.538-2.668-1.637Zm5.306-3.101-1.18-.564-.056.117c-.083.178-.118.317-.1.417.017.1.122.304.305.608l.417.707-.326.678-.388-.604c-.152-.243-.256-.421-.304-.547a1.47 1.47 0 0 1-.092-.417c-.165.243-.348.391-.544.439a.87.87 0 0 1-.596-.07.883.883 0 0 1-.396-.347.669.669 0 0 1-.1-.47c.021-.164.1-.386.235-.668l.574-1.198 2.826 1.35-.275.569Zm-2.346-1.12-.213.443a5.463 5.463 0 0 0-.2.451.337.337 0 0 0 .017.235c.035.078.1.143.196.186.095.048.187.061.27.04a.353.353 0 0 0 .2-.135c.052-.07.13-.222.244-.456l.2-.421-.714-.343ZM3.988 32.04l.761-2.21.497.17-.553 1.615.683.234.279-.799c.074-.221.165-.395.27-.52a.814.814 0 0 1 .426-.27.924.924 0 0 1 .562.022c.204.07.357.178.461.334a.864.864 0 0 1 .174.452c.005.152-.034.347-.117.595l-.483 1.393-2.96-1.016Zm2.668.248.2-.582c.066-.182.1-.317.11-.4a.374.374 0 0 0-.057-.238.367.367 0 0 0-.21-.165c-.134-.048-.252-.03-.348.043-.095.074-.187.23-.265.465l-.214.608.784.269Zm1.302-2.262-2.839-1.32.98-2.102.479.226-.714 1.528.631.291.666-1.42.475.222-.662 1.42.77.36.74-1.58.48.22-1.006 2.155Zm-1.454-4.364L7.53 23.73l2.769 1.468-.3.556-2.295-1.22-.444.833 1.18.626c.34.178.57.317.692.408a.593.593 0 0 1 .226.33c.027.126-.008.282-.108.469a6.312 6.312 0 0 1-.21.347l-.43-.23.07-.122c.06-.117.086-.204.078-.26-.013-.056-.079-.117-.2-.182l-.48-.252-1.575-.838Zm2.79-1.85c-.27-.174-.466-.356-.596-.556a1.41 1.41 0 0 1-.2-.478 1.174 1.174 0 0 1-.018-.49 1.66 1.66 0 0 1 .266-.63c.248-.386.57-.62.962-.695.391-.078.8.022 1.227.3.422.278.68.608.77.99.092.386.01.773-.239 1.155-.256.39-.574.621-.962.7-.391.073-.792-.023-1.21-.296Zm.335-.556c.3.195.57.274.81.235a.794.794 0 0 0 .57-.374.783.783 0 0 0 .11-.669c-.062-.23-.25-.447-.554-.647-.3-.19-.566-.273-.8-.238a.79.79 0 0 0-.562.382.804.804 0 0 0-.122.673c.065.23.248.443.548.638Zm2.908-1.615-2.433-1.967.64-.786c.24-.296.409-.482.509-.552a.828.828 0 0 1 .522-.156c.196.004.392.087.588.239.148.121.253.252.31.386a.87.87 0 0 1-.017.747c-.07.14-.197.317-.38.539l-.257.32.919.74-.4.49Zm-1.623-2.124.692.56.217-.269c.157-.195.248-.334.275-.417.03-.086.03-.169.004-.251a.38.38 0 0 0-.144-.209.42.42 0 0 0-.283-.1.429.429 0 0 0-.265.113c-.061.048-.161.16-.305.339l-.191.234Zm.883-2.032.475-.525 1.697.543-.792-1.546.444-.49 1.062 2.374c.114.257.179.474.2.652a.596.596 0 0 1-.16.482c-.122.139-.231.238-.318.3l-.353-.318c.065-.06.122-.117.17-.173.1-.109.148-.204.152-.287.005-.082-.043-.204-.135-.365l-2.442-.647Zm5.067-2.423.584-.278c.16.313.222.608.174.877-.044.27-.192.517-.436.747-.304.283-.652.413-1.044.387-.388-.026-.75-.217-1.089-.578-.352-.382-.53-.768-.53-1.16 0-.394.16-.742.482-1.037.28-.26.584-.39.915-.386.196 0 .405.065.627.2l-.357.533a.663.663 0 0 0-.431-.121.653.653 0 0 0-.41.191.7.7 0 0 0-.243.564c.008.222.139.465.396.739.27.286.513.447.731.473.218.026.41-.04.58-.195a.642.642 0 0 0 .208-.413c.013-.16-.04-.343-.157-.543Zm2.56-2.14.605-.222c.135.326.17.621.1.886s-.24.5-.505.708a1.354 1.354 0 0 1-1.07.295c-.384-.06-.732-.282-1.032-.669-.322-.412-.466-.812-.431-1.203.034-.395.226-.725.57-.994.3-.234.618-.339.945-.304.195.018.396.1.609.256l-.4.5a.692.692 0 0 0-.423-.161.69.69 0 0 0-.422.152.708.708 0 0 0-.292.547c-.013.217.096.473.327.769.244.312.474.49.688.534a.698.698 0 0 0 .592-.143.613.613 0 0 0 .244-.391c.03-.161-.005-.348-.105-.56Zm-.122-2.423.518-.36.766 1.09c.11-.092.166-.179.174-.253.005-.078-.026-.256-.091-.53-.087-.356-.1-.603-.04-.742.062-.143.21-.3.45-.465.012-.008.034-.03.073-.056l.266.382-.074.048a.638.638 0 0 0-.205.204.351.351 0 0 0-.035.204c.009.074.04.213.096.421.03.113.052.209.057.295a.654.654 0 0 1-.079.304.67.67 0 0 1 .423-.004c.148.048.326.13.544.248l.84.455-.605.426-.775-.447c-.009-.005-.03-.018-.065-.035-.013-.004-.061-.03-.148-.074-.157-.078-.266-.121-.331-.121a.425.425 0 0 0-.23.086l.787 1.12-.518.366-1.798-2.562Zm6.49-.387-.604.334-.584-.49-1.092.608.117.742-.588.326-.448-3.322.584-.326 2.616 2.128Zm-1.619-.517-.94-.807.192 1.22.748-.413Zm3.661-.469-.53-1.19-.118.053c-.183.082-.3.165-.349.252-.052.086-.108.308-.165.66l-.144.807-.687.304.1-.712c.039-.282.078-.482.122-.608.043-.126.109-.252.2-.378-.283.079-.518.07-.701-.021a.826.826 0 0 1-.405-.435.876.876 0 0 1-.074-.52.673.673 0 0 1 .227-.426c.121-.109.326-.226.613-.356l1.215-.539 1.275 2.853-.579.256Zm-1.057-2.37-.453.2c-.227.104-.379.173-.444.216a.34.34 0 0 0-.14.187.37.37 0 0 0 .027.27c.043.1.104.169.182.208a.349.349 0 0 0 .24.021c.083-.017.244-.082.483-.186l.427-.191-.322-.725Zm4.514.868-.81-3.018.914-.243 1.102 1.91-.009-2.201.914-.247.814 3.017-.57.152-.636-2.375.035 2.536-.587.156-1.237-2.214.64 2.375-.57.152Zm3.596-.99-.653-3.057 2.272-.482.109.517-1.65.351.144.678 1.536-.326.11.517-1.538.326.179.829 1.71-.36.11.512-2.33.495Zm2.768-3.717 2.15-.26.319 2.579.27-.035.147 1.198-.522.066-.083-.678-1.954.239.082.677-.522.066-.148-1.199.266-.03c.091-.283.139-.6.139-.956-.005-.356-.04-.803-.105-1.337l-.039-.33Zm.662.447c.117.943.117 1.642 0 2.093l1.18-.143-.253-2.063-.927.113Zm2.612-.842.592-.009.035 2.08 1.232-2.102.63-.013.053 3.127-.592.009-.035-2.041-1.232 2.062-.63.013-.053-3.126Zm3.321-.03.632.008-.044 2.601 1.223.022.048-2.601.631.013-.043 2.597.261.004-.022 1.207-.526-.009.013-.681-2.23-.04.057-3.122Zm3.587.143.588.074-.257 2.062 1.515-1.91.627.078-.383 3.1-.588-.074.248-2.023-1.506 1.871-.627-.078.383-3.1Zm2.773 3.521.653-3.057.619.13-.257 1.203 1.21.257.257-1.203.618.134-.649 3.053-.618-.13.283-1.338-1.21-.256-.288 1.338-.618-.13Zm5.42.165.535.356c-.182.3-.404.504-.661.6-.253.1-.544.104-.867.013-.4-.118-.692-.348-.87-.69-.179-.348-.2-.756-.065-1.23.143-.499.387-.85.727-1.055.335-.2.713-.243 1.136-.121.37.104.64.3.805.581.1.17.148.383.148.643l-.64-.03a.676.676 0 0 0-.117-.434.68.68 0 0 0-.375-.252.725.725 0 0 0-.614.087c-.182.117-.326.356-.43.716-.11.378-.118.669-.027.868a.7.7 0 0 0 .466.396.65.65 0 0 0 .462-.035c.143-.07.274-.209.387-.413Zm1.976-1.415.588.226-.474 1.241c.135.035.239.035.304 0 .066-.034.196-.16.388-.373.248-.265.444-.417.596-.447.152-.03.366.008.64.113.013.004.04.017.083.03l-.166.434-.082-.03a.688.688 0 0 0-.283-.06.41.41 0 0 0-.188.086 3.426 3.426 0 0 0-.3.317 1.355 1.355 0 0 1-.213.208.605.605 0 0 1-.296.105c.117.086.2.204.24.351.043.144.078.339.1.586l.09.951-.696-.264-.056-.89a.52.52 0 0 0-.013-.074c0-.013-.01-.07-.018-.165a1.06 1.06 0 0 0-.083-.34c-.034-.056-.104-.103-.204-.142l-.492 1.28-.588-.23 1.123-2.913Zm3.958 5.076-.627-.278.039-.76-1.145-.508-.523.543-.613-.27 2.39-2.362.61.274-.131 3.36Zm-.558-1.602.079-1.234-.862.89.783.344Zm2.525 2.783.636-1.138-.113-.065c-.175-.095-.314-.134-.414-.126-.1.013-.31.104-.627.265l-.731.373-.662-.364.631-.348c.253-.139.44-.23.566-.269.122-.043.266-.065.422-.065-.235-.182-.37-.373-.409-.573-.035-.2 0-.395.105-.586a.938.938 0 0 1 .374-.374.706.706 0 0 1 .475-.074c.16.03.383.122.657.274l1.162.647-1.519 2.731-.553-.308Zm1.263-2.267-.431-.239a4.36 4.36 0 0 0-.44-.225.363.363 0 0 0-.235 0 .384.384 0 0 0-.2.182.422.422 0 0 0-.057.27.374.374 0 0 0 .126.208c.066.052.214.143.44.269l.413.226.384-.69Zm4.066 6.105-.545-.42.227-.73-.988-.769-.645.404-.526-.412 2.89-1.716.527.413-.94 3.23Zm-.157-1.689.379-1.176-1.05.65.67.526Zm2.581-.295.466.43-.91.973c.113.087.205.126.283.117.074-.009.244-.074.5-.2.327-.156.567-.221.719-.191.152.03.335.143.548.343.014.009.035.03.07.06l-.318.34-.065-.061a.635.635 0 0 0-.24-.16.367.367 0 0 0-.204.008 3.339 3.339 0 0 0-.396.182 1.501 1.501 0 0 1-.279.113.655.655 0 0 1-.313-.013.687.687 0 0 1 .091.417c-.017.148-.06.343-.13.577l-.27.917-.544-.504.278-.847c0-.008.009-.034.018-.07.004-.012.017-.069.043-.164.044-.165.061-.283.048-.343-.009-.066-.056-.135-.13-.209l-.936 1.003-.462-.43 2.133-2.288Zm1.802 6.196-.478-.495.322-.69-.87-.899-.693.309-.466-.483 3.104-1.293.461.482-1.38 3.07Zm.083-1.693.536-1.116-1.132.5.596.616Zm2.778.4 1.362 1.68-2.024 1.637.174.213-.94.755-.331-.404.53-.43-1.24-1.528-.53.43-.332-.408.936-.76.17.204a2.83 2.83 0 0 0 .884-.386c.3-.191.661-.456 1.084-.795l.257-.209Zm-.031.798c-.74.595-1.332.964-1.776 1.108l.749.92 1.615-1.307-.588-.72Zm-.588 3.526 2.63-1.702 1.262 1.941-.444.287-.919-1.412-.583.378.858 1.316-.444.287-.858-1.316-.714.46.954 1.468-.444.286-1.298-1.993Zm1.602 2.493 2.765-1.468.444.834-1.62 1.502 2.15-.508.445.838-2.765 1.468-.274-.517 2.177-1.155-2.469.604-.287-.534 1.885-1.703-2.177 1.155-.274-.516Zm4.623 2.088.222.547-1.932.782 2.407.395.235.582-2.904 1.168-.222-.547 1.898-.764-2.372-.408-.235-.582 2.903-1.173Zm-1.114 5.95 1.236-.426-.043-.122c-.061-.187-.135-.308-.222-.369-.083-.056-.296-.13-.64-.221l-.797-.209-.244-.712.701.16c.279.066.48.122.601.174.122.053.24.13.357.235-.052-.291-.026-.521.083-.695a.86.86 0 0 1 .47-.369.915.915 0 0 1 .527-.026c.17.043.304.13.404.26.1.13.2.348.3.643l.436 1.255-2.964 1.016-.205-.595Zm2.46-.847-.162-.465a3.895 3.895 0 0 0-.174-.46.317.317 0 0 0-.178-.157.385.385 0 0 0-.27.005.406.406 0 0 0-.218.16.352.352 0 0 0-.048.24c.014.082.061.247.148.494l.153.443.749-.26Z"
    clip-rule="evenodd" fill="#fff" />
</svg>