<svg width="762" height="747" viewBox="0 0 762 747" id="arrows" xmlns="http://www.w3.org/2000/svg">
  <path
    d="M757.689 158.272L637.913 5.832C631.689 -1.944 619.246 -1.944 613.022 5.832L490.137 159.832C487.027 164.499 485.47 170.723 488.579 176.941C491.689 183.165 496.355 186.275 502.579 186.275H567.913V730.715C567.913 740.048 574.137 746.272 583.47 746.272H664.361C673.694 746.272 679.918 740.048 679.918 730.715L679.913 184.715H745.246C754.579 184.715 760.803 178.491 760.803 169.157C762.356 164.496 760.803 161.381 757.689 158.272L757.689 158.272ZM665.913 153.605C656.579 153.605 650.355 159.829 650.355 169.163V715.163H599.022V169.163C599.022 159.829 592.798 153.605 583.465 153.605H533.689L623.913 40.048L714.137 153.605H665.913Z" />
  <path
    d="M393.689 158.273C390.579 155.163 385.913 152.049 381.246 152.049C376.579 152.049 371.913 153.606 368.803 158.273L247.47 312.273C244.361 316.939 242.803 323.163 245.913 329.382C249.022 335.606 253.689 338.716 259.913 338.716H325.246V730.715C325.246 740.049 331.47 746.273 340.803 746.273H421.694C431.027 746.273 437.251 740.049 437.251 730.715L437.246 337.169H502.58C511.913 337.169 518.137 330.945 518.137 321.611C518.137 316.945 516.58 312.278 513.47 310.721L393.689 158.273ZM421.689 306.046C412.355 306.046 406.131 312.27 406.131 321.604L406.137 715.164H356.361L356.355 321.604C356.355 312.27 350.131 306.046 340.798 306.046H291.022L381.246 192.489L471.47 306.046H421.689Z" />
  <path
    d="M149.475 309.166C143.251 301.39 130.809 301.39 124.585 309.166L3.25131 463.166C0.14198 467.833 -1.41535 474.057 1.69398 480.275C4.80332 484.942 9.46998 489.609 15.694 489.609H81.0273V730.715C81.0273 740.049 87.2513 746.273 96.5846 746.273H177.475C186.809 746.273 193.033 740.049 193.033 730.715L193.027 489.609H258.361C267.694 489.609 273.918 483.385 273.918 474.051C273.918 469.385 272.361 464.718 269.251 463.161L149.475 309.166ZM177.475 458.499C168.142 458.499 161.918 464.723 161.918 474.057V715.163H112.142V474.043C112.142 464.71 105.918 458.486 96.5846 458.486L48.3606 458.491L138.585 344.934L228.809 458.491L177.475 458.499Z" />
</svg>