<svg width="664" height="499" viewBox="0 0 664 499" id="books" xmlns="http://www.w3.org/2000/svg">
  <path
    d="M563 498.397C561.599 498.397 560.192 498.121 558.875 497.569C556.26 496.475 554.182 494.387 553.109 491.762L372.496 51.6949C371.423 49.0699 371.433 46.1272 372.522 43.5127C373.621 40.893 375.704 38.82 378.329 37.7419L468.34 0.804556C473.798 -1.44024 480.043 1.17434 482.288 6.63269L662.901 446.713C665.146 452.176 662.531 458.421 657.073 460.661L567.062 497.603C565.766 498.135 564.385 498.405 563.005 498.405L563 498.397ZM396.333 53.4637L568.826 473.757L639.056 444.934L466.563 24.6411L396.333 53.4637Z" />
  <path
    d="M549.973 385.783C545.764 385.783 541.775 383.283 540.077 379.148C537.837 373.684 540.447 367.44 545.91 365.2L580.197 351.127C585.655 348.887 591.905 351.496 594.145 356.96C596.384 362.418 593.775 368.663 588.311 370.908L554.025 384.981C552.697 385.523 551.322 385.783 549.973 385.783V385.783Z" />
  <path
    d="M562.96 417.438C558.757 417.438 554.762 414.938 553.069 410.802C550.829 405.339 553.439 399.094 558.897 396.854L593.189 382.781C598.648 380.536 604.897 383.151 607.137 388.614C609.377 394.078 606.767 400.323 601.304 402.562L567.017 416.636C565.689 417.177 564.314 417.438 562.96 417.438L562.96 417.438Z" />
  <path
    d="M364.266 498.397H10.6927C4.7864 498.397 0 493.611 0 487.704C0 481.803 4.7864 477.017 10.6927 477.017H364.266C383.031 477.017 398.297 461.752 398.297 442.986C398.297 424.221 383.031 408.956 364.266 408.956H10.6927C4.7864 408.956 0 404.169 0 398.263C0 392.357 4.7864 387.57 10.6927 387.57H364.266C394.823 387.57 419.678 412.43 419.678 442.986C419.678 473.538 394.823 498.398 364.266 498.398V498.397Z" />
  <path
    d="M27.2129 497.65C21.3118 497.65 16.5254 492.869 16.5254 486.962V437.072C16.5254 431.165 21.3118 426.379 27.2129 426.379C33.1191 426.379 37.9055 431.165 37.9055 437.072V486.962C37.9055 492.869 33.1191 497.65 27.2129 497.65V497.65Z" />
  <path
    d="M414.16 408.944H60.5862C54.68 408.944 49.8936 404.163 49.8936 398.257C49.8936 392.35 54.68 387.564 60.5862 387.564H414.16C432.925 387.564 448.19 372.299 448.19 353.533C448.19 334.768 432.925 319.503 414.16 319.503H60.5862C54.68 319.503 49.8936 314.716 49.8936 308.81C49.8936 302.904 54.68 298.117 60.5862 298.117H414.16C444.717 298.117 469.572 322.977 469.572 353.533C469.572 384.091 444.717 408.945 414.16 408.945V408.944Z" />
  <path
    d="M77.1059 407.851C71.1997 407.851 66.4185 403.07 66.4185 397.163V347.273C66.4185 341.366 71.1997 336.58 77.1059 336.58C83.0122 336.58 87.7986 341.366 87.7986 347.273V397.163C87.7986 403.07 83.0122 407.851 77.1059 407.851Z" />
  <path
    d="M364.266 229.344H10.6929C4.78666 229.344 0.00547125 224.558 0.00547125 218.652C0.00547125 212.745 4.78666 207.964 10.6929 207.964H364.266C383.032 207.964 398.297 192.694 398.297 173.934C398.297 155.163 383.032 139.898 364.266 139.898H10.6929C5.66693 139.898 1.3232 136.398 0.250263 131.486C-0.822657 126.58 1.67213 121.585 6.23987 119.491L129.995 62.7513C131.396 62.1107 132.911 61.7773 134.453 61.7773H352.48C358.386 61.7773 363.167 66.5637 363.167 72.47C363.167 78.3763 358.386 83.1575 352.48 83.1575H136.786L59.6663 118.517H364.266C394.818 118.517 419.678 143.377 419.678 173.933C419.678 204.485 394.824 229.345 364.266 229.345V229.344Z" />
  <path
    d="M27.2264 228.251C21.3201 228.251 16.5337 223.465 16.5337 217.559V167.668C16.5337 161.767 21.3201 156.98 27.2264 156.98C33.1274 156.98 37.9138 161.767 37.9138 167.668V217.559C37.9138 223.465 33.1274 228.251 27.2264 228.251Z" />
  <path
    d="M414.16 319.144H60.5862C54.68 319.144 49.8936 314.363 49.8936 308.456C49.8936 302.55 54.68 297.764 60.5862 297.764H414.16C432.925 297.764 448.19 282.498 448.19 263.733C448.19 244.968 432.925 229.702 414.16 229.702H60.5862C54.68 229.702 49.8936 224.916 49.8936 219.01C49.8936 213.103 54.68 208.322 60.5862 208.322H414.16C444.717 208.322 469.572 233.177 469.572 263.734C469.572 294.292 444.717 319.146 414.16 319.146V319.144Z" />
  <path
    d="M77.1059 318.05C71.1997 318.05 66.4185 313.269 66.4185 307.363V257.472C66.4185 251.566 71.1997 246.779 77.1059 246.779C83.0122 246.779 87.7986 251.566 87.7986 257.472V307.363C87.7986 313.269 83.0122 318.05 77.1059 318.05Z" />
</svg>