<svg width="482" height="664" viewBox="0 0 482 664" id="document" xmlns="http://www.w3.org/2000/svg">
  <path
    d="M468.925 663.702H11.6979C5.23428 663.702 0 658.463 0 652.005V11.6979C0 5.23947 5.23441 0 11.6979 0H379.405C385.863 0 391.097 5.2396 391.097 11.6979C391.097 18.1561 385.863 23.3957 379.405 23.3957H23.3912V640.316H457.218V102.489C457.218 96.0307 462.452 90.7912 468.916 90.7912C475.379 90.7912 480.614 96.0308 480.614 102.489V652.009C480.614 658.467 475.374 663.707 468.916 663.707L468.925 663.702Z" />
  <path
    d="M469.685 114.569H379.669C373.205 114.569 367.971 109.329 367.971 102.871V12.1935C367.971 7.45387 370.83 3.18827 375.21 1.38094C379.591 -0.426395 384.632 0.594484 387.965 3.95387L477.987 94.6312C481.315 97.9801 482.299 103.006 480.482 107.366C478.669 111.725 474.404 114.569 469.685 114.569H469.685ZM391.362 91.1727H441.591L391.362 40.5793V91.1727Z" />
  <path
    d="M383.564 194.09H96.6178C90.1542 194.09 84.9199 188.855 84.9199 182.392C84.9199 175.933 90.1543 170.699 96.6178 170.699H383.564C390.028 170.699 395.262 175.934 395.262 182.392C395.262 188.855 390.028 194.09 383.564 194.09Z" />
  <path
    d="M383.564 290.783H96.6178C90.1542 290.783 84.9199 285.549 84.9199 279.09C84.9199 272.627 90.1543 267.393 96.6178 267.393H383.564C390.028 267.393 395.262 272.627 395.262 279.09C395.262 285.549 390.028 290.783 383.564 290.783Z" />
  <path
    d="M383.564 387.462H96.6178C90.1542 387.462 84.9199 382.223 84.9199 375.764C84.9199 369.306 90.1543 364.066 96.6178 364.066H383.564C390.028 364.066 395.262 369.306 395.262 375.764C395.262 382.223 390.028 387.462 383.564 387.462Z" />
  <path
    d="M285.324 484.156H96.631C90.1674 484.156 84.9331 478.916 84.9331 472.458C84.9331 465.999 90.1675 460.76 96.631 460.76H285.324C291.783 460.76 297.017 465.999 297.017 472.458C297.017 478.916 291.783 484.156 285.324 484.156Z" />
</svg>