<svg width="11" height="19" id="fb" viewBox="0 0 11 19" xmlns="http://www.w3.org/2000/svg">
<path d="M7.67487 0C6.29131 0 5.09613 0.411779 4.25721 1.22542C3.41829 2.03905 2.96154 3.23158 2.96154 4.69514V6.6087H0.423077C0.310873 6.60871 0.203269 6.65223 0.123929 6.72969C0.044589 6.80714 1.12187e-05 6.9122 0 7.02174V10.3261C1.12187e-05 10.4356 0.044589 10.5407 0.123929 10.6181C0.203269 10.6956 0.310873 10.7391 0.423077 10.7391H2.96154V18.587C2.96155 18.6965 3.00613 18.8016 3.08547 18.879C3.16481 18.9565 3.27241 19 3.38461 19H6.76923C6.88143 19 6.98903 18.9565 7.06837 18.879C7.14771 18.8016 7.19229 18.6965 7.1923 18.587V10.7391H10.1538C10.2569 10.7391 10.3564 10.7024 10.4337 10.6359C10.511 10.5693 10.5607 10.4775 10.5736 10.3777L10.9967 7.07337C11.0042 7.01523 10.9989 6.9562 10.9813 6.90019C10.9636 6.84419 10.9339 6.7925 10.8942 6.74855C10.8545 6.7046 10.8057 6.6694 10.751 6.64529C10.6963 6.62117 10.6369 6.6087 10.5769 6.6087H7.1923V4.95652C7.1923 4.49529 7.56602 4.13043 8.03846 4.13043H10.5769C10.6891 4.13042 10.7967 4.0869 10.8761 4.00944C10.9554 3.93199 11 3.82693 11 3.71739V0.555834C10.9999 0.455735 10.9625 0.359088 10.8949 0.283857C10.8272 0.208627 10.7339 0.159931 10.6323 0.146824C10.2584 0.0983957 8.9088 0 7.67487 0ZM7.67487 0.826087C8.70627 0.826087 9.70331 0.90665 10.1538 0.947903V3.30435H8.03846C7.10882 3.30435 6.34615 4.04893 6.34615 4.95652V7.02174C6.34616 7.13128 6.39074 7.23633 6.47008 7.31379C6.54942 7.39125 6.65702 7.43477 6.76923 7.43478H10.0976L9.78034 9.91304H6.76923C6.65702 9.91305 6.54942 9.95657 6.47008 10.034C6.39074 10.1115 6.34616 10.2165 6.34615 10.3261V18.1739H3.80769V10.3261C3.80768 10.2165 3.7631 10.1115 3.68376 10.034C3.60442 9.95657 3.49682 9.91305 3.38461 9.91304H0.846153V7.43478H3.38461C3.49682 7.43477 3.60442 7.39125 3.68376 7.31379C3.7631 7.23633 3.80768 7.13128 3.80769 7.02174V4.69514C3.80769 3.39627 4.19705 2.44807 4.85381 1.8111C5.51058 1.17413 6.46033 0.826087 7.67487 0.826087Z"/>
</svg>
