<svg width="20" height="20" id="inst" viewBox="0 0 20 20" xmlns="http://www.w3.org/2000/svg">
<path d="M5.72 0C2.56629 0 0 2.56629 0 5.72V13.64C0 16.7937 2.56629 19.36 5.72 19.36H13.64C16.7937 19.36 19.36 16.7937 19.36 13.64V5.72C19.36 2.56629 16.7937 0 13.64 0H5.72ZM5.72 0.88H13.64C16.3181 0.88 18.48 3.04195 18.48 5.72V13.64C18.48 16.3181 16.3181 18.48 13.64 18.48H5.72C3.04195 18.48 0.88 16.3181 0.88 13.64V5.72C0.88 3.04195 3.04195 0.88 5.72 0.88ZM14.96 3.52C14.7266 3.52 14.5028 3.61271 14.3377 3.77775C14.1727 3.94278 14.08 4.16661 14.08 4.4C14.08 4.63339 14.1727 4.85722 14.3377 5.02225C14.5028 5.18729 14.7266 5.28 14.96 5.28C15.1934 5.28 15.4172 5.18729 15.5823 5.02225C15.7473 4.85722 15.84 4.63339 15.84 4.4C15.84 4.16661 15.7473 3.94278 15.5823 3.77775C15.4172 3.61271 15.1934 3.52 14.96 3.52ZM9.68 4.84C7.01215 4.84 4.84 7.01215 4.84 9.68C4.84 12.3478 7.01215 14.52 9.68 14.52C12.3478 14.52 14.52 12.3478 14.52 9.68C14.52 7.01215 12.3478 4.84 9.68 4.84ZM9.68 5.72C11.8723 5.72 13.64 7.48774 13.64 9.68C13.64 11.8723 11.8723 13.64 9.68 13.64C7.48774 13.64 5.72 11.8723 5.72 9.68C5.72 7.48774 7.48774 5.72 9.68 5.72Z"/>
</svg>
