<svg width="655" height="587" viewBox="0 0 655 587" id="raise" xmlns="http://www.w3.org/2000/svg">
  <path
    d="M488.491 0.00487501C488.1 -0.00554099 487.715 -0.000332656 487.324 0.0309167C481.897 0.421543 477.459 4.52052 476.636 9.90065C475.813 15.2809 478.819 20.5204 483.886 22.5204L534.037 43.7084L85.7304 225.415C79.7408 227.821 76.8293 234.629 79.2304 240.623C81.6367 246.618 88.444 249.529 94.4384 247.128L542.958 65.2216L522.021 115.352C520.542 118.243 520.334 121.613 521.443 124.665C522.552 127.712 524.88 130.16 527.87 131.42C530.86 132.68 534.24 132.639 537.198 131.311C540.151 129.977 542.422 127.472 543.459 124.399L575.245 48.4298H575.25C575.266 48.3829 575.282 48.3413 575.297 48.2944C575.428 47.9819 575.542 47.659 575.641 47.3361V47.3152C575.657 47.2736 575.672 47.2371 575.688 47.2006C575.724 47.0756 575.75 46.9559 575.782 46.8361C575.849 46.5756 575.912 46.3204 575.964 46.06C576.099 45.3465 576.167 44.6225 576.172 43.8933V43.7371C576.162 43.3986 576.136 43.0652 576.099 42.7319C576.094 42.6798 576.084 42.6277 576.073 42.5704C576.037 42.2371 575.985 41.9038 575.917 41.5704C575.912 41.5236 575.901 41.4767 575.896 41.435C575.74 40.7215 575.516 40.0288 575.235 39.3621C575.209 39.3152 575.188 39.2683 575.162 39.2215C575.026 38.9142 574.87 38.6069 574.709 38.31C574.683 38.2683 574.662 38.2215 574.636 38.1746C574.469 37.8777 574.282 37.5913 574.089 37.31C574.068 37.2683 574.042 37.2319 574.016 37.1954C572.766 35.4298 571.042 34.0496 569.053 33.2058L568.553 32.9767H568.547C568.506 32.9662 568.459 32.9506 568.412 32.935L493.005 0.986982C491.578 0.361982 490.036 0.0286498 488.474 0.00780979L488.491 0.00487501ZM447.021 188.125H447.016C443.907 188.114 440.922 189.344 438.719 191.542C436.521 193.745 435.292 196.729 435.302 199.838V563.532H388.114V268.225C388.135 261.782 382.932 256.538 376.489 256.517H278.145C275.046 256.522 272.078 257.756 269.895 259.954C267.708 262.152 266.489 265.126 266.499 268.225V563.532H219.311V336.598C219.322 333.489 218.093 330.5 215.895 328.302C213.692 326.104 210.707 324.874 207.598 324.885H109.343C106.234 324.874 103.249 326.104 101.046 328.302C98.8484 330.499 97.6192 333.489 97.6296 336.598V563.532H11.9323V563.527C8.79159 563.459 5.7552 564.657 3.5104 566.85C1.2656 569.047 0 572.053 0 575.193C0 578.334 1.26562 581.344 3.5104 583.537C5.7552 585.735 8.79159 586.933 11.9323 586.86H642.679C645.82 586.933 648.856 585.735 651.101 583.537C653.346 581.344 654.611 578.334 654.611 575.193C654.611 572.053 653.346 569.047 651.101 566.85C648.856 564.657 645.82 563.459 642.679 563.527H557.002V199.833C557.012 196.724 555.783 193.74 553.585 191.536C551.387 189.338 548.403 188.109 545.288 188.12L447.021 188.125ZM458.667 211.458H533.656L533.651 563.525H458.662L458.667 211.458ZM289.854 279.844H364.775V563.537H289.854V279.844ZM120.96 348.224H195.976V563.53H120.96V348.224Z" />
</svg>