<svg id="suitcase" width="658" height="583" viewBox="0 0 658 583" fill="none" xmlns="http://www.w3.org/2000/svg">
  <path
    d="M222.597 0C215.259 0.692707 209.035 7.56254 209.067 14.932V74.6667H29.8666C21.153 74.6667 14.2519 78.3593 9.10125 83.5312C3.95059 88.7031 0.00231467 95.8333 0.00231467 104.531C-0.00289333 251.731 0.00231467 391.731 0.00231467 544.838C0.00231467 554.854 2.78351 565.073 10.0335 572.369C17.2887 579.665 27.3775 582.4 37.3362 582.4H619.736C629.689 582.4 639.783 579.619 647.039 572.369C654.294 565.113 657.07 555.025 657.07 545.066V258.999C657.075 258.765 657.075 258.53 657.07 258.301C657.081 206.979 657.07 155.817 657.07 104.541C657.07 95.8277 653.117 88.6866 647.971 83.5413C642.825 78.3959 635.914 74.6767 627.206 74.6767H448.006V14.9421C448.006 7.12435 440.891 0.0100759 433.074 0.0100759H222.607L222.597 0ZM238.931 29.864H418.131V74.6667H238.931V29.864ZM29.8639 104.531H627.197C627.187 155.296 627.197 205.9 627.197 256.664C625.473 267.122 616.333 277.519 600.833 285.596C585.099 293.794 563.927 298.804 545.068 298.664H380.801V268.8C380.801 260.919 377.76 254.273 373.332 248.966C368.911 243.659 362.582 238.935 353.499 238.935H303.567C294.484 238.935 288.155 243.659 283.734 248.966C279.312 254.274 276.265 260.919 276.265 268.8V298.664H111.998C93.1383 298.804 71.9676 293.794 56.233 285.596C40.733 277.518 31.5877 267.123 29.869 256.664C29.8794 205.915 29.869 155.309 29.869 104.531H29.8639ZM306.131 268.797H350.933V358.396H306.131V268.797ZM29.8639 304.495C33.8795 307.338 38.0827 309.911 42.4629 312.193C63.3482 323.078 88.1135 328.703 111.994 328.526H276.26V358.39C276.26 366.27 279.302 372.917 283.729 378.223C288.151 383.531 294.479 388.254 303.562 388.254H353.494C362.578 388.254 368.906 383.53 373.328 378.223C377.749 372.916 380.796 366.27 380.796 358.39V328.526H545.063C568.943 328.703 593.709 323.078 614.594 312.193C618.979 309.906 623.177 307.338 627.193 304.495V545.068C627.193 550.047 626.24 550.922 626.026 551.136C625.813 551.355 624.703 552.537 619.724 552.537H37.3239C32.3447 552.537 31.2354 551.349 31.0218 551.136C30.8082 550.917 29.8551 549.938 29.8551 544.834L29.8639 304.495Z" />
</svg>