<svg width="19" height="17" viewBox="0 0 19 17" id="tg" xmlns="http://www.w3.org/2000/svg">
<path d="M17.879 0.00125071C17.6685 0.0103346 17.4637 0.0679619 17.2789 0.140745C17.0961 0.213041 16.0434 0.655097 14.4888 1.30901C12.9342 1.96292 10.9133 2.81444 8.91012 3.65882C4.90368 5.34756 0.966658 7.00916 0.966658 7.00916L0.995353 6.99837C0.995353 6.99837 0.757734 7.07651 0.516821 7.24165C0.396365 7.32422 0.266773 7.43082 0.160665 7.58623C0.0545572 7.74165 -0.0230148 7.9619 0.00621837 8.19486C0.108898 9.01312 0.970878 9.24522 0.970878 9.24522L0.974254 9.24688L4.82108 10.5422C4.91916 10.8641 5.98783 14.3733 6.22291 15.1164C6.35274 15.5273 6.47426 15.7643 6.60101 15.926C6.66444 16.0069 6.73091 16.0695 6.80441 16.1153C6.83361 16.1335 6.86433 16.1471 6.89472 16.1593C6.89536 16.1596 6.89576 16.159 6.8964 16.1593C6.90014 16.1609 6.90365 16.1611 6.90738 16.1626L6.89725 16.1601C6.90431 16.1629 6.91128 16.1677 6.91835 16.1701C6.93206 16.1748 6.94046 16.1747 6.95801 16.1784C7.39857 16.3297 7.76316 16.0489 7.76316 16.0489L7.77835 16.0372L10.1415 13.8809L13.9765 16.8227L14.0246 16.8443C14.6959 17.1375 15.3029 16.9739 15.6391 16.7048C15.9753 16.4357 16.1075 16.0887 16.1075 16.0887L16.1219 16.0522L18.9399 1.60211C19.012 1.27883 19.0222 0.999389 18.9542 0.746879C18.8862 0.494369 18.721 0.274864 18.5137 0.153199C18.3064 0.0315348 18.0895 -0.00783318 17.879 0.00125071ZM17.9018 0.865615C17.9873 0.861721 18.0506 0.871334 18.0706 0.883052C18.0906 0.89477 18.0995 0.893228 18.1187 0.964423C18.1379 1.03562 18.1483 1.18558 18.0959 1.42027L18.0942 1.42525L15.2922 15.7915C15.2856 15.8059 15.2272 15.9388 15.0939 16.0455C14.9579 16.1544 14.8066 16.2394 14.4052 16.0738L10.2115 12.8563L10.0934 12.7649L10.0908 12.7674L8.83669 11.8416L15.8847 3.68373C15.9389 3.6212 15.9734 3.54458 15.9843 3.46313C15.9951 3.38168 15.9817 3.29889 15.9458 3.22476C15.9098 3.15063 15.8527 3.08834 15.7816 3.04543C15.7104 3.00251 15.628 2.98081 15.5446 2.98293C15.463 2.98502 15.3837 3.00978 15.3159 3.05434L5.11731 9.74341L1.26458 8.44562C1.26458 8.44562 0.882005 8.23617 0.863694 8.09024C0.862678 8.08215 0.858161 8.08947 0.878041 8.06035C0.897921 8.03123 0.947893 7.98207 1.01054 7.93912C1.13585 7.85323 1.27893 7.80129 1.27893 7.80129L1.29328 7.79631L1.30762 7.79049C1.30762 7.79049 5.24485 6.1288 9.25109 4.44015C11.2542 3.59582 13.2747 2.74492 14.8289 2.09117C16.3827 1.43759 17.5054 0.967149 17.6005 0.92955C17.7087 0.886911 17.8163 0.869509 17.9018 0.865615ZM13.2279 5.44567L7.88301 11.6324L7.88048 11.6349C7.87213 11.6448 7.86424 11.655 7.85684 11.6656C7.84836 11.6771 7.84048 11.689 7.83321 11.7013C7.80318 11.7514 7.78394 11.8071 7.77667 11.8649C7.77666 11.866 7.77666 11.8671 7.77667 11.8682L7.08039 14.9487C7.06881 14.9154 7.06071 14.9032 7.04832 14.864V14.8632C6.82717 14.1641 5.8189 10.8546 5.6794 10.3969L13.2279 5.44567ZM8.48645 12.6462L9.44689 13.3553L8.03577 14.6423L8.48645 12.6462Z" />
</svg>
