<svg width="19" height="16" id="tw" viewBox="0 0 19 16" xmlns="http://www.w3.org/2000/svg">
<path d="M12.9996 0C10.7282 0 8.88109 1.89642 8.88109 4.22848C8.88109 4.36862 8.91521 4.50571 8.92856 4.6428C6.12006 4.3671 3.63646 2.97791 1.94958 0.853008C1.87095 0.750952 1.74929 0.696116 1.6217 0.705255C1.49559 0.714395 1.38283 0.789033 1.32052 0.901752C0.965935 1.5278 0.762678 2.24829 0.762678 3.02209C0.762678 3.95887 1.08908 4.81645 1.59351 5.52018C1.49559 5.47601 1.38877 5.45164 1.29678 5.39832C1.17958 5.33435 1.03863 5.3374 0.924394 5.40746C0.810154 5.47753 0.740424 5.60396 0.73894 5.73953V5.78827C0.73894 7.22468 1.46295 8.4722 2.53116 9.23686C2.51929 9.23534 2.50742 9.23991 2.49556 9.23686C2.365 9.21401 2.23295 9.26123 2.14542 9.36329C2.05788 9.46535 2.0297 9.60701 2.06827 9.73648C2.49259 11.0906 3.57564 12.1249 4.91684 12.5027C3.84862 13.1546 2.60979 13.5385 1.27305 13.5385C0.983739 13.5385 0.7063 13.5232 0.430346 13.4897C0.25231 13.4653 0.081693 13.572 0.022348 13.7456C-0.0384807 13.9193 0.0282825 14.1127 0.181096 14.2087C1.89469 15.3374 3.92874 16 6.11561 16C9.65999 16 12.4403 14.4798 14.3052 12.3077C16.1702 10.1356 17.1419 7.31455 17.1419 4.67936C17.1419 4.56816 17.133 4.46002 17.1301 4.35034C17.8259 3.8035 18.4475 3.16222 18.9341 2.4128C19.0306 2.26809 19.0202 2.07464 18.9089 1.94059C18.7991 1.80655 18.6137 1.76542 18.4594 1.84006C18.2635 1.92993 18.0351 1.93907 17.8303 2.01066C18.1004 1.64052 18.3318 1.24143 18.4713 0.792079C18.5187 0.638233 18.4668 0.469155 18.3437 0.368622C18.2205 0.269611 18.0484 0.257426 17.9134 0.341203C17.2651 0.73572 16.547 1.01295 15.7889 1.18203C15.053 0.475248 14.0842 0 12.9996 0ZM12.9996 0.779893C13.9684 0.779893 14.8438 1.20487 15.4565 1.87662C15.5485 1.97411 15.6835 2.01523 15.8126 1.98629C16.3081 1.88576 16.7784 1.738 17.2369 1.5476C16.9728 1.91318 16.6464 2.22544 16.2636 2.46154C16.09 2.54836 16.0084 2.754 16.0722 2.94136C16.1345 3.12719 16.3244 3.23534 16.5129 3.19269C16.8927 3.14547 17.2309 2.98705 17.593 2.88804C17.268 3.24905 16.912 3.57502 16.5247 3.86291C16.4194 3.94212 16.3615 4.07007 16.3704 4.20411C16.3764 4.36253 16.3823 4.51942 16.3823 4.67936C16.3823 7.11653 15.4714 9.76238 13.7355 11.7837C11.9997 13.805 9.4508 15.2201 6.11561 15.2201C4.60082 15.2201 3.17061 14.8759 1.87837 14.2696C3.48068 14.1432 4.95838 13.5613 6.15121 12.6002C6.27584 12.4981 6.3248 12.3275 6.27435 12.1721C6.22391 12.0168 6.08445 11.9101 5.9257 11.9056C4.67352 11.8827 3.6246 11.1348 3.06527 10.0777C3.08604 10.0777 3.10384 10.0777 3.12461 10.0777C3.49997 10.0777 3.87088 10.0289 4.21656 9.93145C4.38273 9.88119 4.49697 9.72277 4.49103 9.54455C4.4851 9.36634 4.36196 9.21401 4.19282 9.17593C2.84124 8.89566 1.82792 7.76542 1.59351 6.36101C1.97629 6.49657 2.36796 6.6032 2.79228 6.61691C2.96587 6.62757 3.12313 6.51638 3.17654 6.3473C3.22995 6.17822 3.16467 5.99238 3.01779 5.89794C2.11575 5.27799 1.5223 4.22239 1.5223 3.02209C1.5223 2.5773 1.63505 2.16908 1.78341 1.77913C3.68246 3.91927 6.34112 5.34044 9.34398 5.49581C9.46267 5.5019 9.57839 5.45164 9.65554 5.35872C9.73269 5.26428 9.76236 5.13938 9.73566 5.02056C9.6778 4.76771 9.64071 4.49962 9.64071 4.22848C9.64071 2.31836 11.1392 0.779893 12.9996 0.779893Z" />
</svg>
