<svg width="21" height="16" viewBox="0 0 21 16" id="yt" xmlns="http://www.w3.org/2000/svg">
<path d="M10.4286 0C7.21191 0 4.19124 0.25 2.58289 0.599609C1.51128 0.849609 0.584338 1.59961 0.390193 2.75C0.196048 3.94922 0 5.75 0 8C0 10.25 0.194145 12 0.437778 13.25C0.633826 14.3496 1.55887 15.1504 2.63047 15.4004C4.33781 15.75 7.25949 16 10.4762 16C13.6929 16 16.6146 15.75 18.32 15.4004C19.3935 15.1504 20.3186 14.4004 20.5127 13.25C20.7088 12 20.9524 10.2012 21 7.95117C21 5.70117 20.7564 3.90039 20.5127 2.65039C20.3186 1.55078 19.3935 0.75 18.32 0.5C16.6146 0.25 13.6434 0 10.4286 0ZM10.4286 1C13.9366 1 16.7612 1.29883 18.1259 1.54883C18.8568 1.75 19.4411 2.25 19.5382 2.90039C19.8313 4.5 20.0255 6.20117 20.0255 7.95117C19.9779 10.0996 19.7343 11.8496 19.5382 13.0996C19.3935 14.0488 18.419 14.3496 18.1259 14.4512C16.371 14.8008 13.4474 15.0488 10.5238 15.0488C7.6002 15.0488 4.62902 14.8496 2.92359 14.4512C2.19269 14.25 1.60836 13.75 1.51128 13.0996C1.12109 11.6992 0.974531 9.84961 0.974531 8C0.974531 5.69922 1.17058 4 1.36472 2.95117C1.51128 2 2.5334 1.69922 2.77703 1.59961C4.38539 1.25 7.35847 1 10.4286 1ZM7.79625 4V12L14.618 8L7.79625 4ZM8.77078 5.70117L12.6689 8L8.77078 10.2988V5.70117Z"/>
</svg>
