<svg xmlns="http://www.w3.org/2000/svg" width="22" height="15" fill="none"><path fill="#000" d="M4.76 14.806c-2.625 0-4.76-2.05-4.76-4.569 0-2.52 2.135-4.569 4.76-4.569 2.623 0 4.758 2.05 4.758 4.57 0 2.519-2.135 4.568-4.759 4.568Zm0-8.213c-2.094 0-3.796 1.635-3.796 3.644 0 2.01 1.703 3.644 3.795 3.644 2.093 0 3.795-1.635 3.795-3.644 0-2.009-1.702-3.644-3.795-3.644ZM17.24 14.806c-2.623 0-4.759-2.05-4.759-4.569 0-2.52 2.136-4.569 4.76-4.569 2.624 0 4.759 2.05 4.759 4.57 0 2.519-2.135 4.568-4.76 4.568Zm0-8.213c-2.092 0-3.795 1.635-3.795 3.644 0 2.01 1.703 3.644 3.796 3.644s3.795-1.635 3.795-3.644c0-2.009-1.702-3.644-3.795-3.644Z"/><path fill="#000" d="M.914 8.827a.498.498 0 0 1-.156-.025.458.458 0 0 1-.3-.587l2.406-6.784c.14-.534.544-.965 1.14-1.215.556-.233 1.223-.28 1.88-.13.258.059.418.308.357.557a.482.482 0 0 1-.58.343c-.454-.103-.906-.075-1.272.078-.32.134-.53.349-.593.604l-.013.042L1.37 8.513a.481.481 0 0 1-.456.314ZM21.054 8.827a.481.481 0 0 1-.456-.313L18.17 1.668c-.063-.255-.273-.47-.593-.604-.366-.153-.818-.181-1.272-.078a.483.483 0 0 1-.58-.343.462.462 0 0 1 .358-.557c.656-.15 1.324-.103 1.88.13.595.25.999.681 1.139 1.216l2.407 6.783a.458.458 0 0 1-.301.587.49.49 0 0 1-.155.025ZM12.963 10.701a.495.495 0 0 1-.218-.05c-.006-.003-.73-.344-1.79-.344-1.044 0-1.675.33-1.681.334a.494.494 0 0 1-.656-.175.451.451 0 0 1 .178-.629c.034-.018.842-.455 2.158-.455 1.305 0 2.191.426 2.228.444a.454.454 0 0 1 .21.622.485.485 0 0 1-.429.253Z"/></svg>