<svg xmlns="http://www.w3.org/2000/svg" xmlns:xlink="http://www.w3.org/1999/xlink"><symbol id="arrow" viewBox="0 0 762 747">
  <path d="M757.689 158.272L637.913 5.832C631.689 -1.944 619.246 -1.944 613.022 5.832L490.137 159.832C487.027 164.499 485.47 170.723 488.579 176.941C491.689 183.165 496.355 186.275 502.579 186.275H567.913V730.715C567.913 740.048 574.137 746.272 583.47 746.272H664.361C673.694 746.272 679.918 740.048 679.918 730.715L679.913 184.715H745.246C754.579 184.715 760.803 178.491 760.803 169.157C762.356 164.496 760.803 161.381 757.689 158.272L757.689 158.272ZM665.913 153.605C656.579 153.605 650.355 159.829 650.355 169.163V715.163H599.022V169.163C599.022 159.829 592.798 153.605 583.465 153.605H533.689L623.913 40.048L714.137 153.605H665.913Z"/>
  <path d="M393.689 158.273C390.579 155.163 385.913 152.049 381.246 152.049C376.579 152.049 371.913 153.606 368.803 158.273L247.47 312.273C244.361 316.939 242.803 323.163 245.913 329.382C249.022 335.606 253.689 338.716 259.913 338.716H325.246V730.715C325.246 740.049 331.47 746.273 340.803 746.273H421.694C431.027 746.273 437.251 740.049 437.251 730.715L437.246 337.169H502.58C511.913 337.169 518.137 330.945 518.137 321.611C518.137 316.945 516.58 312.278 513.47 310.721L393.689 158.273ZM421.689 306.046C412.355 306.046 406.131 312.27 406.131 321.604L406.137 715.164H356.361L356.355 321.604C356.355 312.27 350.131 306.046 340.798 306.046H291.022L381.246 192.489L471.47 306.046H421.689Z"/>
  <path d="M149.475 309.166C143.251 301.39 130.809 301.39 124.585 309.166L3.25131 463.166C0.14198 467.833 -1.41535 474.057 1.69398 480.275C4.80332 484.942 9.46998 489.609 15.694 489.609H81.0273V730.715C81.0273 740.049 87.2513 746.273 96.5846 746.273H177.475C186.809 746.273 193.033 740.049 193.033 730.715L193.027 489.609H258.361C267.694 489.609 273.918 483.385 273.918 474.051C273.918 469.385 272.361 464.718 269.251 463.161L149.475 309.166ZM177.475 458.499C168.142 458.499 161.918 464.723 161.918 474.057V715.163H112.142V474.043C112.142 464.71 105.918 458.486 96.5846 458.486L48.3606 458.491L138.585 344.934L228.809 458.491L177.475 458.499Z"/>
</symbol><symbol id="arr_desc" viewBox="0 0 20 31">
  <path fill-rule="evenodd" clip-rule="evenodd" d="M19.2424 30.6515C18.8826 31.0705 18.2512 31.1185 17.8322 30.7587L0.0628394 15.5L17.8322 0.241312C18.2512 -0.118486 18.8826 -0.0704937 19.2424 0.348509C19.6022 0.767509 19.5542 1.39885 19.1352 1.75865L3.1328 15.5L19.1352 29.2413C19.5542 29.6011 19.6022 30.2325 19.2424 30.6515Z"/>
</symbol><symbol id="arr_mob" viewBox="0 0 11 33">
  <path fill-rule="evenodd" clip-rule="evenodd" d="M10.4584 32.8884C9.96766 33.1417 9.36447 32.9492 9.11117 32.4584L0.874459 16.4998L9.11117 0.541145C9.36447 0.0503729 9.96767 -0.142136 10.4584 0.111168C10.9492 0.36447 11.1417 0.967661 10.8884 1.45843L3.12514 16.4998L10.8884 31.5411C11.1417 32.0319 10.9492 32.6351 10.4584 32.8884Z"/>
</symbol><symbol id="books" viewBox="0 0 664 499">
  <path d="M563 498.397C561.599 498.397 560.192 498.121 558.875 497.569C556.26 496.475 554.182 494.387 553.109 491.762L372.496 51.6949C371.423 49.0699 371.433 46.1272 372.522 43.5127C373.621 40.893 375.704 38.82 378.329 37.7419L468.34 0.804556C473.798 -1.44024 480.043 1.17434 482.288 6.63269L662.901 446.713C665.146 452.176 662.531 458.421 657.073 460.661L567.062 497.603C565.766 498.135 564.385 498.405 563.005 498.405L563 498.397ZM396.333 53.4637L568.826 473.757L639.056 444.934L466.563 24.6411L396.333 53.4637Z"/>
  <path d="M549.973 385.783C545.764 385.783 541.775 383.283 540.077 379.148C537.837 373.684 540.447 367.44 545.91 365.2L580.197 351.127C585.655 348.887 591.905 351.496 594.145 356.96C596.384 362.418 593.775 368.663 588.311 370.908L554.025 384.981C552.697 385.523 551.322 385.783 549.973 385.783V385.783Z"/>
  <path d="M562.96 417.438C558.757 417.438 554.762 414.938 553.069 410.802C550.829 405.339 553.439 399.094 558.897 396.854L593.189 382.781C598.648 380.536 604.897 383.151 607.137 388.614C609.377 394.078 606.767 400.323 601.304 402.562L567.017 416.636C565.689 417.177 564.314 417.438 562.96 417.438L562.96 417.438Z"/>
  <path d="M364.266 498.397H10.6927C4.7864 498.397 0 493.611 0 487.704C0 481.803 4.7864 477.017 10.6927 477.017H364.266C383.031 477.017 398.297 461.752 398.297 442.986C398.297 424.221 383.031 408.956 364.266 408.956H10.6927C4.7864 408.956 0 404.169 0 398.263C0 392.357 4.7864 387.57 10.6927 387.57H364.266C394.823 387.57 419.678 412.43 419.678 442.986C419.678 473.538 394.823 498.398 364.266 498.398V498.397Z"/>
  <path d="M27.2129 497.65C21.3118 497.65 16.5254 492.869 16.5254 486.962V437.072C16.5254 431.165 21.3118 426.379 27.2129 426.379C33.1191 426.379 37.9055 431.165 37.9055 437.072V486.962C37.9055 492.869 33.1191 497.65 27.2129 497.65V497.65Z"/>
  <path d="M414.16 408.944H60.5862C54.68 408.944 49.8936 404.163 49.8936 398.257C49.8936 392.35 54.68 387.564 60.5862 387.564H414.16C432.925 387.564 448.19 372.299 448.19 353.533C448.19 334.768 432.925 319.503 414.16 319.503H60.5862C54.68 319.503 49.8936 314.716 49.8936 308.81C49.8936 302.904 54.68 298.117 60.5862 298.117H414.16C444.717 298.117 469.572 322.977 469.572 353.533C469.572 384.091 444.717 408.945 414.16 408.945V408.944Z"/>
  <path d="M77.1059 407.851C71.1997 407.851 66.4185 403.07 66.4185 397.163V347.273C66.4185 341.366 71.1997 336.58 77.1059 336.58C83.0122 336.58 87.7986 341.366 87.7986 347.273V397.163C87.7986 403.07 83.0122 407.851 77.1059 407.851Z"/>
  <path d="M364.266 229.344H10.6929C4.78666 229.344 0.00547125 224.558 0.00547125 218.652C0.00547125 212.745 4.78666 207.964 10.6929 207.964H364.266C383.032 207.964 398.297 192.694 398.297 173.934C398.297 155.163 383.032 139.898 364.266 139.898H10.6929C5.66693 139.898 1.3232 136.398 0.250263 131.486C-0.822657 126.58 1.67213 121.585 6.23987 119.491L129.995 62.7513C131.396 62.1107 132.911 61.7773 134.453 61.7773H352.48C358.386 61.7773 363.167 66.5637 363.167 72.47C363.167 78.3763 358.386 83.1575 352.48 83.1575H136.786L59.6663 118.517H364.266C394.818 118.517 419.678 143.377 419.678 173.933C419.678 204.485 394.824 229.345 364.266 229.345V229.344Z"/>
  <path d="M27.2264 228.251C21.3201 228.251 16.5337 223.465 16.5337 217.559V167.668C16.5337 161.767 21.3201 156.98 27.2264 156.98C33.1274 156.98 37.9138 161.767 37.9138 167.668V217.559C37.9138 223.465 33.1274 228.251 27.2264 228.251Z"/>
  <path d="M414.16 319.144H60.5862C54.68 319.144 49.8936 314.363 49.8936 308.456C49.8936 302.55 54.68 297.764 60.5862 297.764H414.16C432.925 297.764 448.19 282.498 448.19 263.733C448.19 244.968 432.925 229.702 414.16 229.702H60.5862C54.68 229.702 49.8936 224.916 49.8936 219.01C49.8936 213.103 54.68 208.322 60.5862 208.322H414.16C444.717 208.322 469.572 233.177 469.572 263.734C469.572 294.292 444.717 319.146 414.16 319.146V319.144Z"/>
  <path d="M77.1059 318.05C71.1997 318.05 66.4185 313.269 66.4185 307.363V257.472C66.4185 251.566 71.1997 246.779 77.1059 246.779C83.0122 246.779 87.7986 251.566 87.7986 257.472V307.363C87.7986 313.269 83.0122 318.05 77.1059 318.05Z"/>
</symbol><symbol id="check" viewBox="0 0 256 256">
  <g>
    <path d="M250,107.8c-0.4-2.3-2.4-4.1-4.7-4.2c-0.1,0-0.5,0-0.6,0l-4.6,0c-3.9,0-7.9,0-11.9,0c-2.5-10.4-6.6-20.2-12.2-29.4l1.4-1.4   c3.5-3.5,7-7.1,10.6-10.5c1.8-1.7,2-4.5,0.6-6.5c-7.9-11-17.5-20.5-28.5-28.4c-2-1.4-4.8-1.2-6.5,0.6c-1.9,2-3.9,3.9-5.8,5.8   c-2.1,2-4.1,4.1-6.1,6.2c-9.2-5.6-19.1-9.6-29.5-12.1c0-1.4,0-2.9,0-4.3l0-2.4c0-0.2,0-0.4,0-0.6l0-2.9c0-2.1,0-4.3,0-6.7   c0-2.5-1.8-4.6-4.2-5c-13-2.1-26.5-2.1-39.5,0c-2.5,0.4-4.3,2.7-4.2,5.3c0.1,2.1,0.1,4.3,0,6.4l0,2.9c0,0.2,0,0.4,0,0.6l0,2.4   c0,1.5,0,2.9,0,4.3c-10.4,2.5-20.3,6.5-29.5,12.1c-2-2.1-4.1-4.1-6.1-6.2c-1.9-1.9-3.9-3.9-5.8-5.8c-1.7-1.8-4.5-2-6.5-0.6   c-11,7.9-20.6,17.5-28.5,28.4c-1.5,2-1.2,4.8,0.6,6.5c3.6,3.5,7.1,7,10.6,10.5l1.4,1.4c-5.6,9.1-9.7,19-12.2,29.4   c-4-0.1-8-0.1-11.9,0l-4.6,0c-0.1,0-0.5,0-0.6,0c-2.4,0.1-4.4,1.9-4.7,4.2c-1.1,6.6-1.6,13.4-1.6,20.2c0,6.7,0.5,13.5,1.6,20.1   c0.4,2.3,2.2,4,4.5,4.2c0.4,0,0.9,0.1,1.3,0.1c3.4,0,6.7,0,10.1,0c2,0,4,0,6,0c2.5,10.5,6.7,20.5,12.4,29.7   c-2.3,2.2-4.6,4.5-6.8,6.8l-3.8,3.8c-0.6,0.6-1.1,1.1-1.5,1.5c-1.6,1.8-1.8,4.4-0.4,6.3c7.9,10.9,17.4,20.3,28.3,28.2   c1.9,1.4,4.6,1.2,6.3-0.4c0.2-0.2,0.4-0.4,0.5-0.5c2.3-2.4,4.6-4.7,6.9-7c1.5-1.5,3.1-3.1,4.6-4.6c9.2,5.6,19.1,9.7,29.6,12.2   c0,2.8,0,5.6,0,8.5c0,2.7,0,5.3,0,8.1c0,0.1,0,0.6,0,0.7c0.1,2.3,1.9,4.3,4.2,4.6c6.4,1,13.1,1.6,19.7,1.6c6.6,0,13.2-0.5,19.7-1.6   c2.3-0.4,4.1-2.3,4.2-4.6c0-0.1,0-0.7,0-0.8c0-2.7,0-5.3,0-8c0-2.8,0-5.6,0-8.5c10.5-2.5,20.4-6.6,29.6-12.2   c1.5,1.6,3.1,3.1,4.6,4.6c2.3,2.3,4.6,4.6,6.9,6.9c0.2,0.2,0.4,0.4,0.6,0.6c1.8,1.6,4.4,1.8,6.3,0.4c10.9-7.8,20.5-17.3,28.3-28.2   c1.4-1.9,1.2-4.6-0.4-6.3c-0.4-0.4-0.9-1-1.5-1.5l-3.8-3.8c-2.2-2.2-4.5-4.5-6.8-6.8c5.7-9.2,9.8-19.2,12.4-29.7c2,0,4,0,6,0   c3.4,0,6.7,0,10,0c0.5,0,1,0,1.4,0c2.3-0.2,4.1-1.9,4.5-4.2c1.1-6.6,1.6-13.3,1.6-20.1C251.6,121.2,251.1,114.5,250,107.8z    M240.7,142.2c-2.2,0-4.4,0-6.6,0c-3.1,0-6.2,0-9.4,0c-0.4,0-0.7,0-1,0c-2.3,0.2-4.1,1.8-4.6,4c-2.4,12-7.1,23.3-14,33.5   c-1.2,1.7-1.1,4,0,5.7c0.4,0.6,0.9,1.2,1.6,1.8c2.9,2.8,5.8,5.7,8.7,8.6l2.1,2.1c-5.8,7.4-12.5,14.1-20,19.9   c-1.4-1.4-2.9-2.9-4.3-4.3c-2.2-2.2-4.3-4.3-6.5-6.5c-0.6-0.6-1.2-1.2-1.9-1.6c-1.7-1.1-3.8-1.1-5.5,0   c-10.2,6.8-21.4,11.4-33.3,13.7c-1.9,0.4-3.4,1.8-3.9,3.7c-0.2,0.9-0.3,1.9-0.3,3c0.1,3.6,0.1,7.1,0.1,10.7c0,1.4,0,2.7,0,4.1   c-9.1,1.1-18.5,1.1-27.7,0c0-1.4,0-2.7,0-4.1c0-3.6,0-7.1,0.1-10.7c0-1.1-0.1-2.1-0.3-3c-0.5-1.9-2-3.4-3.9-3.7   c-12-2.3-23.2-6.9-33.3-13.7c-1.7-1.1-3.8-1.1-5.5,0c-0.7,0.4-1.3,1-1.9,1.6c-2.1,2.2-4.3,4.4-6.5,6.5c-1.4,1.4-2.9,2.8-4.3,4.3   c-7.5-5.8-14.2-12.5-20-19.9l2.1-2.1c2.9-2.9,5.7-5.8,8.7-8.6c0.6-0.6,1.1-1.2,1.5-1.8c1.2-1.7,1.2-3.9,0-5.7   c-6.9-10.2-11.6-21.5-14-33.5c-0.4-2.2-2.3-3.9-4.6-4c-0.3,0-0.7-0.1-1.1,0c-3.1,0-6.2,0-9.3,0c-2.2,0-4.3,0-6.6,0   c-0.6-4.7-0.9-9.5-0.9-14.2c0-4.8,0.3-9.6,0.9-14.3l0.7,0c4.5,0,9.2,0,13.8,0.1c1.3,0,2.4-0.1,3.4-0.3c1.9-0.5,3.3-2,3.6-3.9   c2.4-11.8,7-22.9,13.7-33c1.1-1.7,1.1-3.8,0.1-5.5c-0.7-1.1-1.6-2-2.8-3.2l-2-2c-2.5-2.5-5-5-7.5-7.5C44.2,50.7,51,44,58.6,38.1   c0.9,0.9,1.9,1.9,2.8,2.8c2.5,2.5,5,5,7.4,7.5c0.7,0.7,1.8,1.7,3.3,2.4c1.6,0.7,3.4,0.5,4.8-0.4C87,43.7,98.1,39.1,110,36.8   c1.9-0.4,3.4-1.8,3.9-3.6c0.2-0.9,0.3-1.8,0.3-2.9c-0.1-2.3-0.1-4.5,0-6.8l0-3.1c0-0.2,0-0.4,0-0.6l0-2.2c0-0.8,0-1.6,0-2.4   c9.2-1.1,18.5-1.1,27.7,0c0,0.8,0,1.6,0,2.4l0,2.2c0,0.2,0,0.4,0,0.6l0,3.1c0,2.3,0,4.5,0,6.8c0,1.1,0.1,2,0.3,2.9   c0.5,1.8,2,3.3,3.9,3.6c11.9,2.3,23,6.9,33.1,13.6c1.4,0.9,3.2,1.1,4.8,0.4c1.5-0.7,2.6-1.7,3.3-2.4c2.4-2.5,4.9-5,7.4-7.5   c0.9-0.9,1.9-1.9,2.8-2.8c7.6,5.9,14.4,12.6,20.2,20.1c-2.5,2.5-5,5-7.5,7.5l-2,2c-1.2,1.2-2.1,2.1-2.8,3.2c-1.1,1.7-1,3.8,0.1,5.5   c6.7,10.1,11.3,21.2,13.7,33c0.4,1.9,1.8,3.4,3.6,3.9c1,0.3,2.1,0.4,3.4,0.3c4.6-0.2,9.3-0.1,13.8-0.1l0.7,0   c0.6,4.7,0.9,9.6,0.9,14.3C241.6,132.8,241.3,137.5,240.7,142.2z M244.6,108.7L244.6,108.7L244.6,108.7L244.6,108.7z"/>
    <path d="M180.7,90.1c-4.1-5.8-9.2-10.8-15-14.9c-8.1-5.8-17.6-9.7-27.4-11.3c-6.8-1.1-13.9-1.1-20.7,0c-9.8,1.6-19.3,5.5-27.4,11.3   c-5.8,4.1-10.8,9.2-15,14.9c-5.8,8.1-9.7,17.5-11.4,27.3c-0.6,3.5-0.9,7-0.9,10.6c0,3.5,0.3,7.1,0.8,10.5   c1.6,9.9,5.6,19.4,11.5,27.5c4.1,5.7,9.1,10.7,14.9,14.8c8.1,5.8,17.6,9.7,27.4,11.3c3.4,0.5,6.9,0.8,10.3,0.8   c3.4,0,6.9-0.3,10.3-0.8c9.8-1.6,19.3-5.5,27.4-11.3c5.7-4.1,10.7-9.1,14.9-14.8c5.9-8.1,9.9-17.6,11.5-27.5c0,0,0,0,0,0   c0.6-3.5,0.8-7,0.8-10.5c0-3.6-0.3-7.1-0.9-10.6C190.5,107.6,186.5,98.2,180.7,90.1z M182.2,136.9c-1.4,8.3-4.7,16.4-9.7,23.2   c-3.5,4.8-7.7,9-12.6,12.5c-6.8,4.9-14.8,8.2-23.1,9.5c-5.8,0.9-11.7,0.9-17.5,0c-8.3-1.3-16.3-4.6-23.2-9.5   c-4.8-3.5-9.1-7.7-12.6-12.5c-5-6.9-8.3-14.9-9.7-23.2c-0.5-2.9-0.7-5.9-0.7-8.9c0-3,0.2-6,0.7-9c1.4-8.3,4.7-16.3,9.6-23.1   c3.5-4.9,7.8-9.1,12.7-12.6c6.8-4.9,14.8-8.2,23.1-9.5c2.9-0.5,5.8-0.7,8.8-0.7s5.9,0.2,8.8,0.7c8.3,1.3,16.3,4.6,23.1,9.5   c4.9,3.5,9.2,7.8,12.7,12.6c4.9,6.8,8.2,14.8,9.6,23.1c0.5,2.9,0.7,5.9,0.7,9C182.9,131,182.6,134,182.2,136.9z"/>
    <path d="M153.5,105.8L118,139.5l-15.3-15.9c-1.9-2-5.1-2.1-7.1-0.1c-2,1.9-2.1,5.1-0.1,7.1l18.8,19.5c1,1,2.3,1.5,3.6,1.5   c1.2,0,2.5-0.5,3.5-1.4l39.2-37.2c2-1.9,2.1-5.1,0.2-7.1C158.7,103.9,155.6,103.8,153.5,105.8z"/>
  </g>
</symbol><symbol id="document" viewBox="0 0 482 664">
  <path d="M468.925 663.702H11.6979C5.23428 663.702 0 658.463 0 652.005V11.6979C0 5.23947 5.23441 0 11.6979 0H379.405C385.863 0 391.097 5.2396 391.097 11.6979C391.097 18.1561 385.863 23.3957 379.405 23.3957H23.3912V640.316H457.218V102.489C457.218 96.0307 462.452 90.7912 468.916 90.7912C475.379 90.7912 480.614 96.0308 480.614 102.489V652.009C480.614 658.467 475.374 663.707 468.916 663.707L468.925 663.702Z"/>
  <path d="M469.685 114.569H379.669C373.205 114.569 367.971 109.329 367.971 102.871V12.1935C367.971 7.45387 370.83 3.18827 375.21 1.38094C379.591 -0.426395 384.632 0.594484 387.965 3.95387L477.987 94.6312C481.315 97.9801 482.299 103.006 480.482 107.366C478.669 111.725 474.404 114.569 469.685 114.569H469.685ZM391.362 91.1727H441.591L391.362 40.5793V91.1727Z"/>
  <path d="M383.564 194.09H96.6178C90.1542 194.09 84.9199 188.855 84.9199 182.392C84.9199 175.933 90.1543 170.699 96.6178 170.699H383.564C390.028 170.699 395.262 175.934 395.262 182.392C395.262 188.855 390.028 194.09 383.564 194.09Z"/>
  <path d="M383.564 290.783H96.6178C90.1542 290.783 84.9199 285.549 84.9199 279.09C84.9199 272.627 90.1543 267.393 96.6178 267.393H383.564C390.028 267.393 395.262 272.627 395.262 279.09C395.262 285.549 390.028 290.783 383.564 290.783Z"/>
  <path d="M383.564 387.462H96.6178C90.1542 387.462 84.9199 382.223 84.9199 375.764C84.9199 369.306 90.1543 364.066 96.6178 364.066H383.564C390.028 364.066 395.262 369.306 395.262 375.764C395.262 382.223 390.028 387.462 383.564 387.462Z"/>
  <path d="M285.324 484.156H96.631C90.1674 484.156 84.9331 478.916 84.9331 472.458C84.9331 465.999 90.1675 460.76 96.631 460.76H285.324C291.783 460.76 297.017 465.999 297.017 472.458C297.017 478.916 291.783 484.156 285.324 484.156Z"/>
</symbol><symbol id="fb" viewBox="0 0 11 19">
<path d="M7.67487 0C6.29131 0 5.09613 0.411779 4.25721 1.22542C3.41829 2.03905 2.96154 3.23158 2.96154 4.69514V6.6087H0.423077C0.310873 6.60871 0.203269 6.65223 0.123929 6.72969C0.044589 6.80714 1.12187e-05 6.9122 0 7.02174V10.3261C1.12187e-05 10.4356 0.044589 10.5407 0.123929 10.6181C0.203269 10.6956 0.310873 10.7391 0.423077 10.7391H2.96154V18.587C2.96155 18.6965 3.00613 18.8016 3.08547 18.879C3.16481 18.9565 3.27241 19 3.38461 19H6.76923C6.88143 19 6.98903 18.9565 7.06837 18.879C7.14771 18.8016 7.19229 18.6965 7.1923 18.587V10.7391H10.1538C10.2569 10.7391 10.3564 10.7024 10.4337 10.6359C10.511 10.5693 10.5607 10.4775 10.5736 10.3777L10.9967 7.07337C11.0042 7.01523 10.9989 6.9562 10.9813 6.90019C10.9636 6.84419 10.9339 6.7925 10.8942 6.74855C10.8545 6.7046 10.8057 6.6694 10.751 6.64529C10.6963 6.62117 10.6369 6.6087 10.5769 6.6087H7.1923V4.95652C7.1923 4.49529 7.56602 4.13043 8.03846 4.13043H10.5769C10.6891 4.13042 10.7967 4.0869 10.8761 4.00944C10.9554 3.93199 11 3.82693 11 3.71739V0.555834C10.9999 0.455735 10.9625 0.359088 10.8949 0.283857C10.8272 0.208627 10.7339 0.159931 10.6323 0.146824C10.2584 0.0983957 8.9088 0 7.67487 0ZM7.67487 0.826087C8.70627 0.826087 9.70331 0.90665 10.1538 0.947903V3.30435H8.03846C7.10882 3.30435 6.34615 4.04893 6.34615 4.95652V7.02174C6.34616 7.13128 6.39074 7.23633 6.47008 7.31379C6.54942 7.39125 6.65702 7.43477 6.76923 7.43478H10.0976L9.78034 9.91304H6.76923C6.65702 9.91305 6.54942 9.95657 6.47008 10.034C6.39074 10.1115 6.34616 10.2165 6.34615 10.3261V18.1739H3.80769V10.3261C3.80768 10.2165 3.7631 10.1115 3.68376 10.034C3.60442 9.95657 3.49682 9.91305 3.38461 9.91304H0.846153V7.43478H3.38461C3.49682 7.43477 3.60442 7.39125 3.68376 7.31379C3.7631 7.23633 3.80768 7.13128 3.80769 7.02174V4.69514C3.80769 3.39627 4.19705 2.44807 4.85381 1.8111C5.51058 1.17413 6.46033 0.826087 7.67487 0.826087Z"/>
</symbol><symbol id="inst" viewBox="0 0 20 20">
<path d="M5.72 0C2.56629 0 0 2.56629 0 5.72V13.64C0 16.7937 2.56629 19.36 5.72 19.36H13.64C16.7937 19.36 19.36 16.7937 19.36 13.64V5.72C19.36 2.56629 16.7937 0 13.64 0H5.72ZM5.72 0.88H13.64C16.3181 0.88 18.48 3.04195 18.48 5.72V13.64C18.48 16.3181 16.3181 18.48 13.64 18.48H5.72C3.04195 18.48 0.88 16.3181 0.88 13.64V5.72C0.88 3.04195 3.04195 0.88 5.72 0.88ZM14.96 3.52C14.7266 3.52 14.5028 3.61271 14.3377 3.77775C14.1727 3.94278 14.08 4.16661 14.08 4.4C14.08 4.63339 14.1727 4.85722 14.3377 5.02225C14.5028 5.18729 14.7266 5.28 14.96 5.28C15.1934 5.28 15.4172 5.18729 15.5823 5.02225C15.7473 4.85722 15.84 4.63339 15.84 4.4C15.84 4.16661 15.7473 3.94278 15.5823 3.77775C15.4172 3.61271 15.1934 3.52 14.96 3.52ZM9.68 4.84C7.01215 4.84 4.84 7.01215 4.84 9.68C4.84 12.3478 7.01215 14.52 9.68 14.52C12.3478 14.52 14.52 12.3478 14.52 9.68C14.52 7.01215 12.3478 4.84 9.68 4.84ZM9.68 5.72C11.8723 5.72 13.64 7.48774 13.64 9.68C13.64 11.8723 11.8723 13.64 9.68 13.64C7.48774 13.64 5.72 11.8723 5.72 9.68C5.72 7.48774 7.48774 5.72 9.68 5.72Z"/>
</symbol><symbol id="logo" viewBox="0 0 88 88">
  <path fill-rule="evenodd" d="M43.932 9.783c16.003 0 29.459 10.917 33.302 25.676l9.412.004L74.55 53.028h2.598C73.19 67.621 59.813 78.395 43.932 78.395c-15.876 0-29.253-10.782-33.21-25.367l-9.45-.005L13.368 35.45l-2.734.005C14.453 20.66 27.908 9.783 43.932 9.783Zm34.234 24.868 8.955.005C82.794 14.837 65.098 0 43.933 0 21.661 0 3.233 16.431.177 37.808l7.492-.06L0 48.984a42.95 42.95 0 0 0 .51 3.378l11.296-16.618-2.407.07C13.138 20.244 27.18 8.67 43.932 8.67c16.334 0 30.094 11 34.234 25.98Zm-68.04 19.28-8.955-.005C5.502 73.744 22.902 88 44.068 88c22.275 0 40.698-16.435 43.758-37.808l-7.496.06L88 39.016a45.039 45.039 0 0 0-.505-3.378l-11.3 16.618 2.406-.07C74.866 67.756 60.82 79.33 44.068 79.33c-16.334 0-29.798-10.417-33.942-25.398Zm-1.433-5.133.005-.013-.005.013Zm.636-.013v.005l5.511-.03.862-.049 1.45-.06 2.895-4.425h.004l.279-.421.535-.79.649-1 .374-.538-1.128.009-3.517.017-3.778.026-.836.005.191-.326.897-1.36h.009l6.068-.073 2.512-.056.788-.014.814-1.15.492-.782.392-.525-.619.004-1.519.009-2.116.008-1.71.014-1.763.008-2.551.013-1.002.009-.104.13-.418.639-.975 1.459-1.402 2.08-2.355 3.508-2.342 3.509-.096.151.153-.004 2.716.013h.004l.431-.004.205-.005v-.004Zm7.679-2.731-3.774.022-2.752.03h-.248l-.078.004v.005h-.139l-.022-.005-.013-.004-.018-.065.01-.104.4-.639.013-.017.013-.022.078-.113.109-.165.06-.087.084-.117.33-.408.118-.126h.044l.461-.004 6.138-.035.492.004-1.236 1.846h-.07Zm5.533-4.573-4.671 7.265 6.939-.1.958-1.507-4.798.026.549-.864.27-.247 4.814-.091 1.102-1.755-4.754.026.792-1.32 1.794-.03 1.998-.009 1.193-.008.814-1.425-7 .04Zm2.834 7.239 4.71-7.239 3.36-.021.057 6.787 5.063-7.56 2.32-3.54 2.129-.012.013 2.588.013 2.34.005.604 1.623-2.445 1.567-2.349.505-.76 2.495-.017.013 1.893.013 2.57.017 2.532.005.751 3.992-6.04 3.364-5.102.014 2.328.008 1.05 10.156-.056.009 1.541.052 5.68.022.747 5.333-8.007 9.842-.06-7.661 11.528-7.396.039-.105-3.122.096 3.117h-.253l-.109.005-2.816.035-.109-.092-.035-8.762-4.048.022.052 8.87-2.938-.017.008 1.364.022 3.235-2.73.017-.017-2.6-5.546.06-1.654 2.584-3.06.047 2.734-4.22.296-.448-.01-4.872-.008-1.246-1.158 1.724-1.162 1.776-.81 1.194-.718 1.116-.213.33-2.181.035-.087-4.872-.009-1.107-.618.955-2.36 3.5-1.005 1.528-2.965.018v-.014l-1.98.035-.07-5.862-1.21 1.833-2.63 3.99-2.237.074Zm24.83-.373 3.849-5.528.03 5.506-3.879.022Zm22.637-2.476 4.11-6.352-3.148.022-4.349 6.352 3.387-.022Zm10.16-8.389-8.136 11.976-11.94.048.013-8.094-.005-.273-.117-.196-2.142-.065-.296.139.004 3.956.009 1.667.013 1.88.004 1.06-1.628-.052-1.24-.048.03 1.45.035 2.857.022.257-3.814.021h-.213l-.026-.898-.048-1.234-.04-.217-.038-.078-.1-.117-.157-.057h-.47l-1.633.03-1.963.031-.218.022-.078.039-.23.395-.528.903-.487.847-.253.469-1.158.009-1.18.004-.783.004-.827.005-.666.004-.453.004h-.117l.409-.647.448-.707.527-.79.388-.609.857-.985.213-.547.51-.808.291-.413-.004-.764-.009-.96.018-.334-.157-.313-.218-.017-.078.017-.196.2-.483.725-.666.964-.505.769-.466.708-.905.004-.884.026-1.236.026-.179.022-.026-1.077-.03-1.845v-.135l-.118-.195-.157-.118h-.117l-.122.04-.253.373-.348.495-.392.569-.7 1.003-.527.73-.118.195-1.254.008-4.026.005-6.66.039-19.076.108-.627.005-.235.06-.04.291.061.157.096.078 4.227-.022h3.3l2.237-.013 3.065-.017 4.597-.026 11.118-.065h3.478l1.929-2.719.048 1.685.004.452.061.234.1.235.213.06 3.753-.021 1.81-2.636.027.86-1.441 2.162-2.316 3.483-.1.117-.017.178v.178l.278.152 5.755-.052.274-.06.157-.04.836-1.455.544-.903.118-.2 3.3-.017.413-.004.043 1.042.026.842.005.526.274.156 1.907-.009 1.728-.013 1.097-.004.274-.317-.035-2.684-.008-1.45.748-.004 1.629.013.391-.2-.03-8.506 1.358-.005-.017 4.19-.018 3.665.005.513.078.156.1.117 12.394-.052h.022v-.004l.422-.03 8.375-12.463.175-.252.034-.047.009-.048.004-.035.005-.052-.005-.052-.004-.044-.009-.034-.013-.035-.013-.026-.017-.026-.013-.017-.018-.014-.017-.013-.009-.004-.022-.017-.021-.009-.022-.009-.013-.004-.035-.009h-.061l-.04.005-.038.004-.026.004-.048.018-.044.017-.03.013-.022.009-.074.113-.087.121-.183.27-.03.047ZM45.91 70.588l-.091.039-.057-.105-.083-.143-.109-.17-.087-.142-.013-.074-.022-.091-.017-.074-.022-.065-.026-.07-.022-.035-.017-.026-.022-.013-.017-.07-.026-.134-.018-.091-.017-.104-.018-.14h-.008.008l.65-.103.2-.018.252.013.235.074.126.065.091.135.07.217-.017.252-.066.178-.165.234-.17.161-.265.182-.257.118Zm6.904-6.987.035-.044.06-.078.014-.013c.048-.056.091-.117.14-.178l-.07.092-.07.086-.074.091-.026.035-.009.009Zm-9.124 4.99-.127.012-.465.035-.353.03-.261.026-.253.035-.383.07-.3.078h-.287l-.497.017-.256-.022-.34-.1-.257-.112-.113-.092-.109-.143-.026-.182.026-.226.074-.313.13-.286.149-.243.126-.144.218-.178.191-.104.684.204.209.04.335.056.357.06.618.122.618.096.357.056-.009.235-.034.655-.022.317ZM35.73 19.33l-.013.8h-.035l.013.026c-4.279 1.641-7.775 3.908-10.478 6.804a23.98 23.98 0 0 0-1.493 1.759 24.228 24.228 0 0 0-1.31 1.906l-.026-.018v.03l-2.116.083-.005-.034-.026-.013v-.005a30.281 30.281 0 0 1 1.567-2.492 27.582 27.582 0 0 1 1.764-2.25c3.186-3.647 7.235-6.213 12.14-7.694l.01.03h.004l-.005-1.202.597-.005.553-.3.16-.021.453-.043.893-.061.535-.065.636-.161 1.763-.547.413-.122h.38l.395-.004.536.195.34.157.356.278.044.278.039-.044.017-.156.179-.16.296-.2.335-.161.418-.14.335-.06.636.035.953.252.875.251.714.196.474.095.28.018.456.039.614.035.557.056.418.295.653-.026.096 9.683-.457-.056-.753-.035-.893.026-1.17.005-.453.004-.48-.04-.317-.056-.218-.095-2.163-.048-.04.178-.156.1-2.36.013-.078-.278-.775.005-1.188.047-.893.044-.814.047-1.031.066-.871.06-1.25.109-.03-7.412Zm-.109 1.92h.035l.018 1.828h-.018l.009.026c-2.795.947-5.302 2.514-7.514 4.698-.43.426-.849.873-1.258 1.342-.41.474-.805.968-1.193 1.485l-.026-.017v.03l-2.159.035-.004-.03-.027-.018.005-.004a33.347 33.347 0 0 1 1.52-2.032 28.186 28.186 0 0 1 1.58-1.802c2.755-2.888 5.763-4.746 9.028-5.571l.004.03Zm-8.845 9.357v-.004c.391-.482.783-.942 1.18-1.376.395-.439.796-.847 1.196-1.234 2.077-1.984 4.24-3.313 6.5-3.986l.008.03h.035l-.035 1.911v.022l-.021.009c-1.96.694-3.618 1.693-4.985 2.996a12.02 12.02 0 0 0-.766.794c-.24.274-.474.565-.696.865l-.01.013h-.017l-2.363.013v-.03l-.026-.023Zm25.387-4.802.536.239.844.425.71.374.466.273.605.391.535.356.431.326.47.36.38.304.504.413.536.495.448.408.226.221 2.325.022-.33-.46-1.938-1.95-.814-.664-.296-.226-.553-.408-.5-.356-.501-.36-.623-.409-1.105-.612-.693-.373-1.105-.513-.588-.234.03 1.958Zm10.204 4.637 2.112-.06-1.18-1.52-1.014-1.216-1.184-1.133-1.837-1.598-1.55-1.146-.71-.465-.3-.183-.405-.217-.505-.247-1.315-.665-1.04-.477-.84-.33-.475-.148.048 1.893.253.13.753.3.557.265.81.395.788.4.622.382 1.162.73.81.599.64.447 1.132.999.557.551.557.547.98 1.103.422.5.152.165ZM52.13 20.035h-.035l-.009-1.867v-.043l.04.013c3.225.972 6.142 2.479 8.74 4.515 2.604 2.037 4.894 4.603 6.87 7.7l-.026.017v.034l-2.068.01-.009.008c-2.69-3.8-5.78-6.652-9.268-8.563a22.824 22.824 0 0 0-4.244-1.794h-.005l.014-.03ZM43.4 29.54H43.253l-.07-.004-.16-.013-.13-.013-.053-.004-.087-.014-.074-.012-.057-.014-.174-.026-.078-.021-.066-.013-.087-.018-.074-.021-.082-.026-.07-.018-.105-.03-.23-.126-.074-.065-.074-.065-.057-.052-.083-.096-.047-.074-.061-.104-.03-.083-.023-.073-.013-.066-.021-.108-.01-.074-.003-.082-.013-.105-.005-.086-.004-.07.261-.004h.492l.366-.005h.474l.187-.004H43.384l.266-.004H44.189l.854-.009h.535l.492-.004.479-.005h.444l-.005.144-.013.134-.021.113-.03.13-.04.109-.06.13-.08.13-.051.074-.105.135-.091.096-.096.065-.17.065-.187.06-.14.04-.195.052-.248.052-.162.03-.343.044-.179.017-.144.009h-.043l-.013.208-.005.243v.109h.453l.227.004.143.013.23.013-.121.157-.213.2-.11.104-.164.164-.188.122-.217.044-.127.034v.243l-.004.409-.017.195-.005.252-.074.725-.07.39-.052.253-.039.16-.056.217-.061.291-.074.465-.026-.182-.035-.244-.03-.208-.031-.213-.013-.117-.048-.056-.074-.148-.057-.187-.043-.247-.026-.174-.035-.365-.013-.23-.013-.243-.01-.221-.008-.287-.004-.404-.113-.022-.183-.03-.218-.026-.152-.056-.113-.087-.135-.109-.135-.13-.079-.1-.039-.074-.03-.1-.14-.195.405.022.396.021.257.018.183.017h.04l-.018-.122-.048-.23-.03-.178-.014-.126Zm3.418 33.622.566-.252.33-.143.21-.091.3-.13.318-.16.209-.162.156-.138.222-.244.148-.217.179-.334.096-.27.06-.156.04-.152.026-.147.06-.291.04-.24-.013-.23-.061-.26-.144-.347-.13-.187-.14-.148-.17-.182-.213-.165-.209-.13-.2-.109-.24-.095-.19-.07-.301-.078-.222-.048-.24-.039-.24-.03-.278-.026-.2-.022-.392-.026-.3-.009-.118-.008-.24-.009-.239-.017-.243-.022-.248-.017-.331-.018-.48-.026-.169-.008-.178-.01h-.005v-.003l-.265.004-.048.008h-.005l-.27.066-.156.034-.388.092-.108.026-.27.234-.113.087-.17.13-.179.152-.335.317-.209.174-.23.2-.149.139-.021.052.16.1.37-.014.392-.034.288-.03.191-.04.196-.082.1-.052.67-.222.64-.165.497-.1.531-.082.318-.035.261-.022.43-.021.68.008.379.048.34.057.321.078.37.139.28.134.282.191.261.235.122.239.03.39-.039.387-.078.3-.157.382-.07.13-.156.13-.361.26-.318.214-.749.32-.466.2-.618.287-.178.187-.035.03-.292.235-9.703.056c1.18 1.507 2.538 2.55 4.088 3.131l-.188.221-.413.53-.126.295-.183.543.013.27.017.273.092.187.204.308.244.217.496.248.244.065.57.078.523.022.383-.009.344-.026.378-.035.4-.056.789-.091-.005.108-.017.009.013.082-.004.087-.005.03-.043.165-.092.226-.174.374-.052.117-.017.026-.14.195-.165.165h.004l-.004.005-.057.047-.039.035-.03.03-.087.062-.074.047-.074.057-.083.047-.074.044-.052.03-.096.044-.078.039-.114.039-.056.017-.109.013v.005l-3.308.16.021.065.71.183.662.174 1.236.29 1.15.135.726.087.727.095.004.118.014.112.03.24h-.688l-.514-.022-.374-.04-.379-.038-.265-.044-.166-.026-.304-.04-.283-.051-.235-.057-.349-.065-.335-.082-.209-.057-.296-.095-.348-.096-.57-.19-.488-.166-.644-.286-.31-.152-.139-.026-.165-.014-.152.083.013.126.03.126.336.165.444.19.478.21.248.095.575.204.514.152.6.148.797.134 1.158.23 2.007.17.152.013.2.582.17.29.392.682.296.343.152.083.013-.083-.07-.26-.1-.278-.1-.295-.095-.304-.074-.291-.057-.348v-.113l.945-.104 1.558-.147 1.184-.157 1.02-.256.918-.217 1.998-.847v-.36l-.1-.07-.11.044-.195.056-1.445.647-1.128.382-.47.118-.335.082-.462.074-.988.13-.54.03-.322.018-1.227.104-.366.03v-.004l-.013-.182.004-.187.013-.165.066-.004.618-.035.283-.013.235-.022.361-.035.475-.06.365-.044.383-.06.366-.057.505-.1.387-.113.21-.056.265-.078.24-.07.221-.065.231-.056.153-.048.309-.087.121-.026h.131v-.087h-.231l-.13-.009h-.2l-.253.005-.244-.013-.2.004-.196-.013-.244-.009-.33-.008-.388-.022-.287-.017-.174-.022-.188-.022-.387-.065-.244-.096-.209-.078-.113-.043.057-.087.108-.117.07-.07v.005l.244-.204.291-.187.266-.178.1-.174.066-.17.034-.134.018-.143-.005-.126-.017-.109-.017-.1-.04-.13-.104-.226-.118-.225-.135-.235-.126-.117-.144-.109-.17-.039-.226-.056-.335-.057-.274-.017h-.244l-.252.022-.318.052-.1.013-.04-.621-.026-.334.096-.013.31-.04.517-.065.444-.073.31-.066.383-.086.64-.165.309-.1.505-.165.478-.2.854-.4.291-.182a7.838 7.838 0 0 0 1.023-.634l.048-.03v-.005c.379-.282.74-.599 1.08-.95l.26-.244.066-.065.052-.056.061-.066.044-.052.04-.039.047-.052.057-.07.06-.069.044-.06.035-.053.04-.06.025-.044.018-.039.008-.03.005-.03-.013.017.013-.022-6.36.04v-.023h.013Zm3.526-51.412-.3-.013-.314.018-.366.082-.465.165-.392.178-.627.239-.34.056-.435.026-.453.018h-.313l-.41.03-.583.074-.435.082-.3.1-.357.135-.31.165-.152.139-.187.3-.135.286-.065.165-.07.421.048.612.057.465.26.652.027-.326.383-.03.2-.504.013-.03.135-.179.819-.425.679-.304.679-.26.596-.235.492-.183.3-.152.257-.165.192-.19.213-.261.135-.135.126-.082.014-.013.27-.317.147-.135.148-.113.218-.121.178-.07.192-.082.23-.083ZM40.359 23.38h-.706v-2.654a2.48 2.48 0 0 1-.91.535v-.639a2.07 2.07 0 0 0 .601-.343 1.34 1.34 0 0 0 .444-.59h.57v3.69Zm1.07-.847.684-.078c.017.139.06.243.13.308.075.065.166.1.28.1.147 0 .269-.065.373-.2.1-.134.166-.412.196-.834a.838.838 0 0 1-.666.309.979.979 0 0 1-.748-.335c-.214-.221-.318-.512-.318-.868 0-.373.113-.673.335-.903a1.14 1.14 0 0 1 .844-.343c.375 0 .684.147.923.434.24.29.357.764.357 1.424 0 .669-.122 1.155-.374 1.45-.248.3-.575.448-.975.448-.288 0-.518-.074-.697-.23-.178-.152-.291-.383-.344-.682Zm1.598-1.542c0-.225-.052-.403-.157-.53a.46.46 0 0 0-.361-.186c-.13 0-.24.052-.327.152-.087.104-.13.274-.13.508 0 .235.048.412.144.521a.43.43 0 0 0 .352.165.434.434 0 0 0 .34-.156c.096-.109.14-.265.14-.474Zm1.228 1.416.679-.082c.026.173.083.303.178.395a.466.466 0 0 0 .349.139.481.481 0 0 0 .365-.165c.1-.113.148-.26.148-.448 0-.173-.043-.317-.14-.42a.46.46 0 0 0-.352-.157c-.087 0-.196.017-.322.056l.079-.573c.191.004.335-.039.435-.126a.444.444 0 0 0 .152-.352.417.417 0 0 0-.109-.295.402.402 0 0 0-.296-.108.415.415 0 0 0-.309.125.568.568 0 0 0-.157.365l-.648-.108c.043-.226.113-.404.204-.534a.898.898 0 0 1 .38-.313c.165-.078.348-.117.548-.117.348 0 .627.113.836.334a.85.85 0 0 1 .26.612c0 .322-.178.578-.53.769a.879.879 0 0 1 .505.304.88.88 0 0 1 .191.569c0 .321-.117.599-.357.825a1.217 1.217 0 0 1-.88.338c-.334 0-.609-.095-.83-.286a1.122 1.122 0 0 1-.38-.747Zm4.692.973h-.71v-2.654a2.48 2.48 0 0 1-.909.535v-.639a2.07 2.07 0 0 0 .6-.343c.218-.169.366-.364.445-.59h.574v3.69ZM9.368 59.289l1.032 2.262-2.852 1.294-.26-.573 2.372-1.077-.51-1.111-2.372 1.072-.261-.573 2.851-1.294Zm-.017 3.608a2.08 2.08 0 0 1 .766-.282c.174-.017.348-.009.518.035.174.043.322.113.448.208.17.126.318.296.449.517.235.395.3.786.191 1.168-.104.382-.379.704-.818.964-.435.252-.85.334-1.232.243-.388-.09-.697-.338-.927-.734-.235-.399-.3-.79-.196-1.168.104-.382.374-.699.8-.95Zm.348.552c-.305.178-.496.386-.57.62a.787.787 0 0 0 .082.674c.127.217.31.347.549.395.235.048.514-.017.827-.204.31-.182.5-.382.57-.608.074-.226.044-.447-.087-.673a.805.805 0 0 0-.553-.408c-.23-.044-.505.022-.818.204Zm2.481 4.538.2.612c-.335.121-.63.139-.892.06-.261-.082-.492-.26-.688-.534-.24-.338-.322-.699-.248-1.08.079-.383.318-.717.718-1 .427-.303.832-.425 1.224-.373.392.052.714.256.97.612.223.309.31.63.262.956-.027.19-.122.39-.283.595l-.483-.426a.667.667 0 0 0 .178-.408.64.64 0 0 0-.135-.43.707.707 0 0 0-.531-.317c-.218-.022-.479.078-.784.295-.322.226-.513.447-.566.66a.68.68 0 0 0 .118.6.643.643 0 0 0 .379.26c.156.035.348.009.561-.082Zm2.46-.03 1.454 1.64-2.347 2.068-.422-.474 1.955-1.72-.627-.703-1.001.886a5.872 5.872 0 0 1-.627.5.566.566 0 0 1-.388.09c-.13-.017-.265-.104-.405-.26a6.732 6.732 0 0 1-.252-.317l.366-.321.095.104c.087.1.157.156.214.165.056.013.14-.03.244-.122l.4-.356 1.34-1.18Zm-.14 4.463 2.273-2.15 1.598 1.681-.388.365-1.158-1.225-.505.478 1.08 1.138-.383.36-1.08-1.138-.622.587 1.205 1.267-.383.36-1.636-1.723Zm4.65.113 1.645 1.403-1.698 1.975.21.178-.784.916-.4-.338.443-.517-1.497-1.281-.444.517-.4-.339.787-.916.2.17c.27-.118.54-.296.802-.54.26-.242.57-.568.918-.976l.218-.252Zm.117.79c-.622.721-1.136 1.19-1.55 1.407l.902.773 1.354-1.576-.706-.604Zm2.225 1.103.479.343-1.21 1.694 2.241-.956.514.365-1.82 2.54-.483-.343 1.189-1.659-2.22.925-.514-.369 1.824-2.54Zm2.699 1.85 2.168 1.224-1.546 2.719-.548-.313 1.284-2.258-1.067-.603-1.284 2.257-.553-.308 1.546-2.718Zm3.082 1.676 1.998.912-1.302 2.84-.574-.26 1.08-2.363-.858-.39-.558 1.21c-.156.348-.278.587-.365.713a.58.58 0 0 1-.318.247c-.126.035-.283.009-.474-.078-.07-.03-.188-.095-.362-.186l.205-.448.126.061c.122.056.209.078.266.065.056-.013.113-.082.174-.213l.222-.486.74-1.624Zm2.146 2.636c.117-.295.261-.53.427-.695.126-.122.27-.217.43-.29.162-.07.323-.11.48-.114.213-.004.435.04.674.135.431.17.718.434.87.803.153.365.136.786-.051 1.26-.183.468-.458.785-.819.95-.361.165-.757.161-1.184-.008-.43-.17-.723-.439-.875-.804-.152-.364-.135-.777.048-1.237Zm.614.217c-.13.33-.153.612-.07.838.087.23.248.39.479.486a.806.806 0 0 0 .679-.026c.218-.108.392-.334.527-.668.13-.335.157-.613.074-.834-.079-.222-.244-.378-.483-.474a.808.808 0 0 0-.688.018c-.213.104-.388.326-.518.66Zm2.546 2.501.845-3.01.91.253-.026 2.206 1.114-1.902.914.252-.84 3.009-.566-.157.662-2.366-1.263 2.201-.583-.165.061-2.535-.662 2.37-.566-.156Zm3.983.955.523-3.078.622.104-.204 1.211 1.223.204.205-1.211.622.104-.518 3.083-.622-.104.226-1.346-1.223-.209-.227 1.346-.627-.104Zm3.535-1.085c.026-.322.096-.582.21-.79a1.45 1.45 0 0 1 .326-.404c.13-.113.274-.196.422-.248.205-.065.431-.087.684-.07.46.04.818.21 1.07.517.253.304.362.713.318 1.22-.039.504-.209.886-.505 1.147-.296.26-.675.373-1.132.339-.465-.04-.822-.209-1.075-.513-.248-.304-.357-.703-.318-1.198Zm.653.03c-.026.352.03.625.183.82a.789.789 0 0 0 .6.322.79.79 0 0 0 .64-.221c.175-.17.275-.43.306-.795.03-.356-.03-.625-.17-.816a.808.808 0 0 0-.605-.313.795.795 0 0 0-.649.217c-.174.165-.274.426-.305.786Zm3.117-1.39 2.125-.052.013.526-1.49.039.066 2.597-.635.017-.079-3.126Zm2.625 1.499c-.03-.317-.008-.59.066-.812.056-.165.139-.317.252-.456.109-.135.235-.243.374-.317.188-.1.41-.16.662-.187.462-.043.84.065 1.145.321.3.257.479.643.527 1.147.048.504-.053.907-.3 1.22-.249.308-.601.482-1.059.525-.461.048-.844-.06-1.144-.317-.3-.256-.475-.63-.523-1.124Zm.649-.083c.03.352.14.608.318.778a.817.817 0 0 0 .648.212.8.8 0 0 0 .592-.33c.144-.195.2-.473.166-.834-.035-.356-.14-.616-.314-.777-.17-.16-.387-.226-.648-.204a.811.811 0 0 0-.601.326c-.144.195-.196.469-.161.83Zm5.333-.76c-.079-.308-.1-.577-.061-.812.026-.169.087-.334.174-.486a1.23 1.23 0 0 1 .322-.373c.17-.13.374-.226.622-.287.449-.117.84-.07 1.18.139.34.208.575.556.7 1.05.127.487.092.904-.104 1.247-.196.347-.513.573-.962.69-.448.113-.844.07-1.18-.134-.339-.209-.57-.552-.691-1.034Zm.626-.182c.087.343.235.582.436.716a.805.805 0 0 0 .674.113.793.793 0 0 0 .532-.42c.113-.214.121-.496.034-.848-.091-.347-.235-.586-.43-.716-.196-.135-.423-.165-.675-.1a.808.808 0 0 0-.544.413c-.11.212-.118.495-.027.842Zm2.538-2.34 2.207-.778.175.495-1.611.57.24.68.796-.281c.222-.079.413-.113.579-.113.165.004.322.06.479.169.152.109.26.26.33.452.07.2.079.39.027.568a.865.865 0 0 1-.248.417c-.114.096-.297.191-.54.278l-1.393.49-1.04-2.948Zm1.463 2.24.579-.204c.187-.065.313-.117.383-.165a.422.422 0 0 0 .152-.191.395.395 0 0 0 0-.265c-.048-.139-.135-.221-.252-.247-.122-.03-.296 0-.531.082l-.61.213.279.777Zm2.93-.53-1.346-2.822.92-.434c.343-.165.578-.257.696-.278a.818.818 0 0 1 .54.082c.178.091.317.248.426.474a.995.995 0 0 1 .113.481.87.87 0 0 1-.109.391.963.963 0 0 1-.23.274c-.127.091-.314.2-.575.321l-.37.178.505 1.064-.57.27Zm-.544-2.614.378.8.314-.148c.226-.105.37-.191.43-.257a.414.414 0 0 0 .114-.225.388.388 0 0 0-.044-.248.4.4 0 0 0-.209-.213.446.446 0 0 0-.291-.017 3.11 3.11 0 0 0-.418.178l-.275.13Zm5.693.005-.605.33-.579-.495-1.1.595.112.746-.592.317-.418-3.326.588-.317 2.594 2.15Zm-1.61-.535-.936-.812.183 1.22.753-.408Zm1.371-2.049-.592.217c-.17-.495.004-.916.522-1.255.305-.204.584-.286.828-.256.243.03.426.139.548.317.083.126.122.26.113.408a1.084 1.084 0 0 1-.143.478c.213-.057.4-.057.557-.009.156.052.291.16.396.317.152.23.187.47.113.72-.074.253-.279.492-.614.709-.274.182-.518.278-.735.29-.218.014-.453-.078-.697-.273l.379-.478c.152.126.287.183.4.174a.766.766 0 0 0 .353-.13c.165-.109.261-.226.292-.347a.388.388 0 0 0-.048-.322.365.365 0 0 0-.3-.174c-.131-.008-.284.044-.453.157l-.122.082-.261-.395.06-.039c.161-.109.262-.226.3-.352a.426.426 0 0 0-.06-.373.398.398 0 0 0-.266-.174.498.498 0 0 0-.361.1c-.222.148-.292.348-.209.608Zm2.36-.682c-.2-.247-.336-.482-.401-.707a1.595 1.595 0 0 1-.048-.517c.018-.174.061-.335.135-.474.1-.186.248-.36.444-.525.357-.29.731-.412 1.128-.37.396.044.757.266 1.08.657.321.39.465.781.434 1.176-.03.395-.226.738-.578 1.03-.362.295-.736.42-1.128.373-.396-.043-.749-.256-1.067-.643Zm.491-.43c.222.274.457.43.701.47a.811.811 0 0 0 .658-.187.798.798 0 0 0 .304-.604c.01-.239-.1-.504-.33-.782-.231-.277-.462-.434-.693-.468a.788.788 0 0 0-.653.19.793.793 0 0 0-.317.608c-.01.24.1.496.33.773Zm1.376-3.122.892-.873c.179-.173.318-.295.418-.364.1-.07.21-.117.323-.14a.834.834 0 0 1 .356.023c.122.03.231.095.323.19a.73.73 0 0 1 .2.374.734.734 0 0 1-.035.421.82.82 0 0 1 .51-.108c.17.026.317.104.443.23a.94.94 0 0 1 .253.786.936.936 0 0 1-.2.4c-.07.082-.244.264-.531.55l-.762.743-2.19-2.232Zm.814-.07.51.517.295-.29c.175-.17.283-.283.318-.33a.397.397 0 0 0 .105-.257.34.34 0 0 0-.105-.238.343.343 0 0 0-.222-.113.384.384 0 0 0-.248.087c-.048.039-.178.165-.392.373l-.26.252Zm.875.887.583.599.418-.408c.166-.161.261-.265.296-.317a.385.385 0 0 0 .079-.252.392.392 0 0 0-.122-.252.44.44 0 0 0-.218-.122.406.406 0 0 0-.244.035c-.078.04-.226.16-.43.36l-.362.357Zm4.723-3.11-.44.53-.722-.243-.797.964.383.651-.426.513-1.637-2.927.427-.512 3.212 1.025Zm-1.697.11-1.171-.409.626 1.064.545-.656Zm2.224-.67-2.516-1.862.374-.508.993.733.74-.99-.993-.734.379-.508 2.516 1.863-.378.508-1.102-.816-.736.994 1.097.812-.374.508Zm-.583-4.58.309-.504 1.776 1.09-1.11-2.167.326-.539 2.669 1.637-.31.504-1.74-1.068 1.08 2.145-.332.538-2.668-1.637Zm5.306-3.101-1.18-.564-.056.117c-.083.178-.118.317-.1.417.017.1.122.304.305.608l.417.707-.326.678-.388-.604c-.152-.243-.256-.421-.304-.547a1.47 1.47 0 0 1-.092-.417c-.165.243-.348.391-.544.439a.87.87 0 0 1-.596-.07.883.883 0 0 1-.396-.347.669.669 0 0 1-.1-.47c.021-.164.1-.386.235-.668l.574-1.198 2.826 1.35-.275.569Zm-2.346-1.12-.213.443a5.463 5.463 0 0 0-.2.451.337.337 0 0 0 .017.235c.035.078.1.143.196.186.095.048.187.061.27.04a.353.353 0 0 0 .2-.135c.052-.07.13-.222.244-.456l.2-.421-.714-.343ZM3.988 32.04l.761-2.21.497.17-.553 1.615.683.234.279-.799c.074-.221.165-.395.27-.52a.814.814 0 0 1 .426-.27.924.924 0 0 1 .562.022c.204.07.357.178.461.334a.864.864 0 0 1 .174.452c.005.152-.034.347-.117.595l-.483 1.393-2.96-1.016Zm2.668.248.2-.582c.066-.182.1-.317.11-.4a.374.374 0 0 0-.057-.238.367.367 0 0 0-.21-.165c-.134-.048-.252-.03-.348.043-.095.074-.187.23-.265.465l-.214.608.784.269Zm1.302-2.262-2.839-1.32.98-2.102.479.226-.714 1.528.631.291.666-1.42.475.222-.662 1.42.77.36.74-1.58.48.22-1.006 2.155Zm-1.454-4.364L7.53 23.73l2.769 1.468-.3.556-2.295-1.22-.444.833 1.18.626c.34.178.57.317.692.408a.593.593 0 0 1 .226.33c.027.126-.008.282-.108.469a6.312 6.312 0 0 1-.21.347l-.43-.23.07-.122c.06-.117.086-.204.078-.26-.013-.056-.079-.117-.2-.182l-.48-.252-1.575-.838Zm2.79-1.85c-.27-.174-.466-.356-.596-.556a1.41 1.41 0 0 1-.2-.478 1.174 1.174 0 0 1-.018-.49 1.66 1.66 0 0 1 .266-.63c.248-.386.57-.62.962-.695.391-.078.8.022 1.227.3.422.278.68.608.77.99.092.386.01.773-.239 1.155-.256.39-.574.621-.962.7-.391.073-.792-.023-1.21-.296Zm.335-.556c.3.195.57.274.81.235a.794.794 0 0 0 .57-.374.783.783 0 0 0 .11-.669c-.062-.23-.25-.447-.554-.647-.3-.19-.566-.273-.8-.238a.79.79 0 0 0-.562.382.804.804 0 0 0-.122.673c.065.23.248.443.548.638Zm2.908-1.615-2.433-1.967.64-.786c.24-.296.409-.482.509-.552a.828.828 0 0 1 .522-.156c.196.004.392.087.588.239.148.121.253.252.31.386a.87.87 0 0 1-.017.747c-.07.14-.197.317-.38.539l-.257.32.919.74-.4.49Zm-1.623-2.124.692.56.217-.269c.157-.195.248-.334.275-.417.03-.086.03-.169.004-.251a.38.38 0 0 0-.144-.209.42.42 0 0 0-.283-.1.429.429 0 0 0-.265.113c-.061.048-.161.16-.305.339l-.191.234Zm.883-2.032.475-.525 1.697.543-.792-1.546.444-.49 1.062 2.374c.114.257.179.474.2.652a.596.596 0 0 1-.16.482c-.122.139-.231.238-.318.3l-.353-.318c.065-.06.122-.117.17-.173.1-.109.148-.204.152-.287.005-.082-.043-.204-.135-.365l-2.442-.647Zm5.067-2.423.584-.278c.16.313.222.608.174.877-.044.27-.192.517-.436.747-.304.283-.652.413-1.044.387-.388-.026-.75-.217-1.089-.578-.352-.382-.53-.768-.53-1.16 0-.394.16-.742.482-1.037.28-.26.584-.39.915-.386.196 0 .405.065.627.2l-.357.533a.663.663 0 0 0-.431-.121.653.653 0 0 0-.41.191.7.7 0 0 0-.243.564c.008.222.139.465.396.739.27.286.513.447.731.473.218.026.41-.04.58-.195a.642.642 0 0 0 .208-.413c.013-.16-.04-.343-.157-.543Zm2.56-2.14.605-.222c.135.326.17.621.1.886s-.24.5-.505.708a1.354 1.354 0 0 1-1.07.295c-.384-.06-.732-.282-1.032-.669-.322-.412-.466-.812-.431-1.203.034-.395.226-.725.57-.994.3-.234.618-.339.945-.304.195.018.396.1.609.256l-.4.5a.692.692 0 0 0-.423-.161.69.69 0 0 0-.422.152.708.708 0 0 0-.292.547c-.013.217.096.473.327.769.244.312.474.49.688.534a.698.698 0 0 0 .592-.143.613.613 0 0 0 .244-.391c.03-.161-.005-.348-.105-.56Zm-.122-2.423.518-.36.766 1.09c.11-.092.166-.179.174-.253.005-.078-.026-.256-.091-.53-.087-.356-.1-.603-.04-.742.062-.143.21-.3.45-.465.012-.008.034-.03.073-.056l.266.382-.074.048a.638.638 0 0 0-.205.204.351.351 0 0 0-.035.204c.009.074.04.213.096.421.03.113.052.209.057.295a.654.654 0 0 1-.079.304.67.67 0 0 1 .423-.004c.148.048.326.13.544.248l.84.455-.605.426-.775-.447c-.009-.005-.03-.018-.065-.035-.013-.004-.061-.03-.148-.074-.157-.078-.266-.121-.331-.121a.425.425 0 0 0-.23.086l.787 1.12-.518.366-1.798-2.562Zm6.49-.387-.604.334-.584-.49-1.092.608.117.742-.588.326-.448-3.322.584-.326 2.616 2.128Zm-1.619-.517-.94-.807.192 1.22.748-.413Zm3.661-.469-.53-1.19-.118.053c-.183.082-.3.165-.349.252-.052.086-.108.308-.165.66l-.144.807-.687.304.1-.712c.039-.282.078-.482.122-.608.043-.126.109-.252.2-.378-.283.079-.518.07-.701-.021a.826.826 0 0 1-.405-.435.876.876 0 0 1-.074-.52.673.673 0 0 1 .227-.426c.121-.109.326-.226.613-.356l1.215-.539 1.275 2.853-.579.256Zm-1.057-2.37-.453.2c-.227.104-.379.173-.444.216a.34.34 0 0 0-.14.187.37.37 0 0 0 .027.27c.043.1.104.169.182.208a.349.349 0 0 0 .24.021c.083-.017.244-.082.483-.186l.427-.191-.322-.725Zm4.514.868-.81-3.018.914-.243 1.102 1.91-.009-2.201.914-.247.814 3.017-.57.152-.636-2.375.035 2.536-.587.156-1.237-2.214.64 2.375-.57.152Zm3.596-.99-.653-3.057 2.272-.482.109.517-1.65.351.144.678 1.536-.326.11.517-1.538.326.179.829 1.71-.36.11.512-2.33.495Zm2.768-3.717 2.15-.26.319 2.579.27-.035.147 1.198-.522.066-.083-.678-1.954.239.082.677-.522.066-.148-1.199.266-.03c.091-.283.139-.6.139-.956-.005-.356-.04-.803-.105-1.337l-.039-.33Zm.662.447c.117.943.117 1.642 0 2.093l1.18-.143-.253-2.063-.927.113Zm2.612-.842.592-.009.035 2.08 1.232-2.102.63-.013.053 3.127-.592.009-.035-2.041-1.232 2.062-.63.013-.053-3.126Zm3.321-.03.632.008-.044 2.601 1.223.022.048-2.601.631.013-.043 2.597.261.004-.022 1.207-.526-.009.013-.681-2.23-.04.057-3.122Zm3.587.143.588.074-.257 2.062 1.515-1.91.627.078-.383 3.1-.588-.074.248-2.023-1.506 1.871-.627-.078.383-3.1Zm2.773 3.521.653-3.057.619.13-.257 1.203 1.21.257.257-1.203.618.134-.649 3.053-.618-.13.283-1.338-1.21-.256-.288 1.338-.618-.13Zm5.42.165.535.356c-.182.3-.404.504-.661.6-.253.1-.544.104-.867.013-.4-.118-.692-.348-.87-.69-.179-.348-.2-.756-.065-1.23.143-.499.387-.85.727-1.055.335-.2.713-.243 1.136-.121.37.104.64.3.805.581.1.17.148.383.148.643l-.64-.03a.676.676 0 0 0-.117-.434.68.68 0 0 0-.375-.252.725.725 0 0 0-.614.087c-.182.117-.326.356-.43.716-.11.378-.118.669-.027.868a.7.7 0 0 0 .466.396.65.65 0 0 0 .462-.035c.143-.07.274-.209.387-.413Zm1.976-1.415.588.226-.474 1.241c.135.035.239.035.304 0 .066-.034.196-.16.388-.373.248-.265.444-.417.596-.447.152-.03.366.008.64.113.013.004.04.017.083.03l-.166.434-.082-.03a.688.688 0 0 0-.283-.06.41.41 0 0 0-.188.086 3.426 3.426 0 0 0-.3.317 1.355 1.355 0 0 1-.213.208.605.605 0 0 1-.296.105c.117.086.2.204.24.351.043.144.078.339.1.586l.09.951-.696-.264-.056-.89a.52.52 0 0 0-.013-.074c0-.013-.01-.07-.018-.165a1.06 1.06 0 0 0-.083-.34c-.034-.056-.104-.103-.204-.142l-.492 1.28-.588-.23 1.123-2.913Zm3.958 5.076-.627-.278.039-.76-1.145-.508-.523.543-.613-.27 2.39-2.362.61.274-.131 3.36Zm-.558-1.602.079-1.234-.862.89.783.344Zm2.525 2.783.636-1.138-.113-.065c-.175-.095-.314-.134-.414-.126-.1.013-.31.104-.627.265l-.731.373-.662-.364.631-.348c.253-.139.44-.23.566-.269.122-.043.266-.065.422-.065-.235-.182-.37-.373-.409-.573-.035-.2 0-.395.105-.586a.938.938 0 0 1 .374-.374.706.706 0 0 1 .475-.074c.16.03.383.122.657.274l1.162.647-1.519 2.731-.553-.308Zm1.263-2.267-.431-.239a4.36 4.36 0 0 0-.44-.225.363.363 0 0 0-.235 0 .384.384 0 0 0-.2.182.422.422 0 0 0-.057.27.374.374 0 0 0 .126.208c.066.052.214.143.44.269l.413.226.384-.69Zm4.066 6.105-.545-.42.227-.73-.988-.769-.645.404-.526-.412 2.89-1.716.527.413-.94 3.23Zm-.157-1.689.379-1.176-1.05.65.67.526Zm2.581-.295.466.43-.91.973c.113.087.205.126.283.117.074-.009.244-.074.5-.2.327-.156.567-.221.719-.191.152.03.335.143.548.343.014.009.035.03.07.06l-.318.34-.065-.061a.635.635 0 0 0-.24-.16.367.367 0 0 0-.204.008 3.339 3.339 0 0 0-.396.182 1.501 1.501 0 0 1-.279.113.655.655 0 0 1-.313-.013.687.687 0 0 1 .091.417c-.017.148-.06.343-.13.577l-.27.917-.544-.504.278-.847c0-.008.009-.034.018-.07.004-.012.017-.069.043-.164.044-.165.061-.283.048-.343-.009-.066-.056-.135-.13-.209l-.936 1.003-.462-.43 2.133-2.288Zm1.802 6.196-.478-.495.322-.69-.87-.899-.693.309-.466-.483 3.104-1.293.461.482-1.38 3.07Zm.083-1.693.536-1.116-1.132.5.596.616Zm2.778.4 1.362 1.68-2.024 1.637.174.213-.94.755-.331-.404.53-.43-1.24-1.528-.53.43-.332-.408.936-.76.17.204a2.83 2.83 0 0 0 .884-.386c.3-.191.661-.456 1.084-.795l.257-.209Zm-.031.798c-.74.595-1.332.964-1.776 1.108l.749.92 1.615-1.307-.588-.72Zm-.588 3.526 2.63-1.702 1.262 1.941-.444.287-.919-1.412-.583.378.858 1.316-.444.287-.858-1.316-.714.46.954 1.468-.444.286-1.298-1.993Zm1.602 2.493 2.765-1.468.444.834-1.62 1.502 2.15-.508.445.838-2.765 1.468-.274-.517 2.177-1.155-2.469.604-.287-.534 1.885-1.703-2.177 1.155-.274-.516Zm4.623 2.088.222.547-1.932.782 2.407.395.235.582-2.904 1.168-.222-.547 1.898-.764-2.372-.408-.235-.582 2.903-1.173Zm-1.114 5.95 1.236-.426-.043-.122c-.061-.187-.135-.308-.222-.369-.083-.056-.296-.13-.64-.221l-.797-.209-.244-.712.701.16c.279.066.48.122.601.174.122.053.24.13.357.235-.052-.291-.026-.521.083-.695a.86.86 0 0 1 .47-.369.915.915 0 0 1 .527-.026c.17.043.304.13.404.26.1.13.2.348.3.643l.436 1.255-2.964 1.016-.205-.595Zm2.46-.847-.162-.465a3.895 3.895 0 0 0-.174-.46.317.317 0 0 0-.178-.157.385.385 0 0 0-.27.005.406.406 0 0 0-.218.16.352.352 0 0 0-.048.24c.014.082.061.247.148.494l.153.443.749-.26Z" clip-rule="evenodd"/>
</symbol><symbol id="pointer" viewBox="0 0 792 792"><path d="m396.065 792-10.155-17.896c-1.455-2.568-146.629-258.487-186.97-333.421-25.627-47.655-55.543-125.467-55.543-187.953C143.397 113.377 256.721 0 396.012 0c139.275 0 252.591 113.377 252.591 252.73 0 60.357-27.957 141.853-54.273 187.899-47.099 82.138-186.792 330.929-188.192 333.429L396.065 792zm-.053-768.78c-126.489 0-229.394 102.96-229.394 229.51 0 54.436 26.502 128.099 52.764 176.947C253.354 492.774 362.109 685 395.958 744.746c33.089-58.896 138.5-246.399 178.201-315.65 25.171-44.041 51.209-122.069 51.209-176.366.015-126.55-102.883-229.51-229.356-229.51zm0 343.429c-63.214 0-114.639-51.441-114.639-114.67 0-63.244 51.425-114.701 114.639-114.701 63.189 0 114.606 51.457 114.606 114.701-.007 63.229-51.416 114.67-114.606 114.67zm0-206.15c-50.412 0-91.418 41.038-91.418 91.48 0 50.427 41.007 91.45 91.418 91.45 50.388 0 91.388-41.03 91.388-91.45-.008-50.442-41.008-91.48-91.388-91.48z"/></symbol><symbol id="raise" viewBox="0 0 655 587">
  <path d="M488.491 0.00487501C488.1 -0.00554099 487.715 -0.000332656 487.324 0.0309167C481.897 0.421543 477.459 4.52052 476.636 9.90065C475.813 15.2809 478.819 20.5204 483.886 22.5204L534.037 43.7084L85.7304 225.415C79.7408 227.821 76.8293 234.629 79.2304 240.623C81.6367 246.618 88.444 249.529 94.4384 247.128L542.958 65.2216L522.021 115.352C520.542 118.243 520.334 121.613 521.443 124.665C522.552 127.712 524.88 130.16 527.87 131.42C530.86 132.68 534.24 132.639 537.198 131.311C540.151 129.977 542.422 127.472 543.459 124.399L575.245 48.4298H575.25C575.266 48.3829 575.282 48.3413 575.297 48.2944C575.428 47.9819 575.542 47.659 575.641 47.3361V47.3152C575.657 47.2736 575.672 47.2371 575.688 47.2006C575.724 47.0756 575.75 46.9559 575.782 46.8361C575.849 46.5756 575.912 46.3204 575.964 46.06C576.099 45.3465 576.167 44.6225 576.172 43.8933V43.7371C576.162 43.3986 576.136 43.0652 576.099 42.7319C576.094 42.6798 576.084 42.6277 576.073 42.5704C576.037 42.2371 575.985 41.9038 575.917 41.5704C575.912 41.5236 575.901 41.4767 575.896 41.435C575.74 40.7215 575.516 40.0288 575.235 39.3621C575.209 39.3152 575.188 39.2683 575.162 39.2215C575.026 38.9142 574.87 38.6069 574.709 38.31C574.683 38.2683 574.662 38.2215 574.636 38.1746C574.469 37.8777 574.282 37.5913 574.089 37.31C574.068 37.2683 574.042 37.2319 574.016 37.1954C572.766 35.4298 571.042 34.0496 569.053 33.2058L568.553 32.9767H568.547C568.506 32.9662 568.459 32.9506 568.412 32.935L493.005 0.986982C491.578 0.361982 490.036 0.0286498 488.474 0.00780979L488.491 0.00487501ZM447.021 188.125H447.016C443.907 188.114 440.922 189.344 438.719 191.542C436.521 193.745 435.292 196.729 435.302 199.838V563.532H388.114V268.225C388.135 261.782 382.932 256.538 376.489 256.517H278.145C275.046 256.522 272.078 257.756 269.895 259.954C267.708 262.152 266.489 265.126 266.499 268.225V563.532H219.311V336.598C219.322 333.489 218.093 330.5 215.895 328.302C213.692 326.104 210.707 324.874 207.598 324.885H109.343C106.234 324.874 103.249 326.104 101.046 328.302C98.8484 330.499 97.6192 333.489 97.6296 336.598V563.532H11.9323V563.527C8.79159 563.459 5.7552 564.657 3.5104 566.85C1.2656 569.047 0 572.053 0 575.193C0 578.334 1.26562 581.344 3.5104 583.537C5.7552 585.735 8.79159 586.933 11.9323 586.86H642.679C645.82 586.933 648.856 585.735 651.101 583.537C653.346 581.344 654.611 578.334 654.611 575.193C654.611 572.053 653.346 569.047 651.101 566.85C648.856 564.657 645.82 563.459 642.679 563.527H557.002V199.833C557.012 196.724 555.783 193.74 553.585 191.536C551.387 189.338 548.403 188.109 545.288 188.12L447.021 188.125ZM458.667 211.458H533.656L533.651 563.525H458.662L458.667 211.458ZM289.854 279.844H364.775V563.537H289.854V279.844ZM120.96 348.224H195.976V563.53H120.96V348.224Z"/>
</symbol><symbol id="suitcase" viewBox="0 0 658 583">
  <path d="M222.597 0C215.259 0.692707 209.035 7.56254 209.067 14.932V74.6667H29.8666C21.153 74.6667 14.2519 78.3593 9.10125 83.5312C3.95059 88.7031 0.00231467 95.8333 0.00231467 104.531C-0.00289333 251.731 0.00231467 391.731 0.00231467 544.838C0.00231467 554.854 2.78351 565.073 10.0335 572.369C17.2887 579.665 27.3775 582.4 37.3362 582.4H619.736C629.689 582.4 639.783 579.619 647.039 572.369C654.294 565.113 657.07 555.025 657.07 545.066V258.999C657.075 258.765 657.075 258.53 657.07 258.301C657.081 206.979 657.07 155.817 657.07 104.541C657.07 95.8277 653.117 88.6866 647.971 83.5413C642.825 78.3959 635.914 74.6767 627.206 74.6767H448.006V14.9421C448.006 7.12435 440.891 0.0100759 433.074 0.0100759H222.607L222.597 0ZM238.931 29.864H418.131V74.6667H238.931V29.864ZM29.8639 104.531H627.197C627.187 155.296 627.197 205.9 627.197 256.664C625.473 267.122 616.333 277.519 600.833 285.596C585.099 293.794 563.927 298.804 545.068 298.664H380.801V268.8C380.801 260.919 377.76 254.273 373.332 248.966C368.911 243.659 362.582 238.935 353.499 238.935H303.567C294.484 238.935 288.155 243.659 283.734 248.966C279.312 254.274 276.265 260.919 276.265 268.8V298.664H111.998C93.1383 298.804 71.9676 293.794 56.233 285.596C40.733 277.518 31.5877 267.123 29.869 256.664C29.8794 205.915 29.869 155.309 29.869 104.531H29.8639ZM306.131 268.797H350.933V358.396H306.131V268.797ZM29.8639 304.495C33.8795 307.338 38.0827 309.911 42.4629 312.193C63.3482 323.078 88.1135 328.703 111.994 328.526H276.26V358.39C276.26 366.27 279.302 372.917 283.729 378.223C288.151 383.531 294.479 388.254 303.562 388.254H353.494C362.578 388.254 368.906 383.53 373.328 378.223C377.749 372.916 380.796 366.27 380.796 358.39V328.526H545.063C568.943 328.703 593.709 323.078 614.594 312.193C618.979 309.906 623.177 307.338 627.193 304.495V545.068C627.193 550.047 626.24 550.922 626.026 551.136C625.813 551.355 624.703 552.537 619.724 552.537H37.3239C32.3447 552.537 31.2354 551.349 31.0218 551.136C30.8082 550.917 29.8551 549.938 29.8551 544.834L29.8639 304.495Z"/>
</symbol><symbol id="tg" viewBox="0 0 19 17">
<path d="M17.879 0.00125071C17.6685 0.0103346 17.4637 0.0679619 17.2789 0.140745C17.0961 0.213041 16.0434 0.655097 14.4888 1.30901C12.9342 1.96292 10.9133 2.81444 8.91012 3.65882C4.90368 5.34756 0.966658 7.00916 0.966658 7.00916L0.995353 6.99837C0.995353 6.99837 0.757734 7.07651 0.516821 7.24165C0.396365 7.32422 0.266773 7.43082 0.160665 7.58623C0.0545572 7.74165 -0.0230148 7.9619 0.00621837 8.19486C0.108898 9.01312 0.970878 9.24522 0.970878 9.24522L0.974254 9.24688L4.82108 10.5422C4.91916 10.8641 5.98783 14.3733 6.22291 15.1164C6.35274 15.5273 6.47426 15.7643 6.60101 15.926C6.66444 16.0069 6.73091 16.0695 6.80441 16.1153C6.83361 16.1335 6.86433 16.1471 6.89472 16.1593C6.89536 16.1596 6.89576 16.159 6.8964 16.1593C6.90014 16.1609 6.90365 16.1611 6.90738 16.1626L6.89725 16.1601C6.90431 16.1629 6.91128 16.1677 6.91835 16.1701C6.93206 16.1748 6.94046 16.1747 6.95801 16.1784C7.39857 16.3297 7.76316 16.0489 7.76316 16.0489L7.77835 16.0372L10.1415 13.8809L13.9765 16.8227L14.0246 16.8443C14.6959 17.1375 15.3029 16.9739 15.6391 16.7048C15.9753 16.4357 16.1075 16.0887 16.1075 16.0887L16.1219 16.0522L18.9399 1.60211C19.012 1.27883 19.0222 0.999389 18.9542 0.746879C18.8862 0.494369 18.721 0.274864 18.5137 0.153199C18.3064 0.0315348 18.0895 -0.00783318 17.879 0.00125071ZM17.9018 0.865615C17.9873 0.861721 18.0506 0.871334 18.0706 0.883052C18.0906 0.89477 18.0995 0.893228 18.1187 0.964423C18.1379 1.03562 18.1483 1.18558 18.0959 1.42027L18.0942 1.42525L15.2922 15.7915C15.2856 15.8059 15.2272 15.9388 15.0939 16.0455C14.9579 16.1544 14.8066 16.2394 14.4052 16.0738L10.2115 12.8563L10.0934 12.7649L10.0908 12.7674L8.83669 11.8416L15.8847 3.68373C15.9389 3.6212 15.9734 3.54458 15.9843 3.46313C15.9951 3.38168 15.9817 3.29889 15.9458 3.22476C15.9098 3.15063 15.8527 3.08834 15.7816 3.04543C15.7104 3.00251 15.628 2.98081 15.5446 2.98293C15.463 2.98502 15.3837 3.00978 15.3159 3.05434L5.11731 9.74341L1.26458 8.44562C1.26458 8.44562 0.882005 8.23617 0.863694 8.09024C0.862678 8.08215 0.858161 8.08947 0.878041 8.06035C0.897921 8.03123 0.947893 7.98207 1.01054 7.93912C1.13585 7.85323 1.27893 7.80129 1.27893 7.80129L1.29328 7.79631L1.30762 7.79049C1.30762 7.79049 5.24485 6.1288 9.25109 4.44015C11.2542 3.59582 13.2747 2.74492 14.8289 2.09117C16.3827 1.43759 17.5054 0.967149 17.6005 0.92955C17.7087 0.886911 17.8163 0.869509 17.9018 0.865615ZM13.2279 5.44567L7.88301 11.6324L7.88048 11.6349C7.87213 11.6448 7.86424 11.655 7.85684 11.6656C7.84836 11.6771 7.84048 11.689 7.83321 11.7013C7.80318 11.7514 7.78394 11.8071 7.77667 11.8649C7.77666 11.866 7.77666 11.8671 7.77667 11.8682L7.08039 14.9487C7.06881 14.9154 7.06071 14.9032 7.04832 14.864V14.8632C6.82717 14.1641 5.8189 10.8546 5.6794 10.3969L13.2279 5.44567ZM8.48645 12.6462L9.44689 13.3553L8.03577 14.6423L8.48645 12.6462Z"/>
</symbol><symbol id="tw" viewBox="0 0 19 16">
<path d="M12.9996 0C10.7282 0 8.88109 1.89642 8.88109 4.22848C8.88109 4.36862 8.91521 4.50571 8.92856 4.6428C6.12006 4.3671 3.63646 2.97791 1.94958 0.853008C1.87095 0.750952 1.74929 0.696116 1.6217 0.705255C1.49559 0.714395 1.38283 0.789033 1.32052 0.901752C0.965935 1.5278 0.762678 2.24829 0.762678 3.02209C0.762678 3.95887 1.08908 4.81645 1.59351 5.52018C1.49559 5.47601 1.38877 5.45164 1.29678 5.39832C1.17958 5.33435 1.03863 5.3374 0.924394 5.40746C0.810154 5.47753 0.740424 5.60396 0.73894 5.73953V5.78827C0.73894 7.22468 1.46295 8.4722 2.53116 9.23686C2.51929 9.23534 2.50742 9.23991 2.49556 9.23686C2.365 9.21401 2.23295 9.26123 2.14542 9.36329C2.05788 9.46535 2.0297 9.60701 2.06827 9.73648C2.49259 11.0906 3.57564 12.1249 4.91684 12.5027C3.84862 13.1546 2.60979 13.5385 1.27305 13.5385C0.983739 13.5385 0.7063 13.5232 0.430346 13.4897C0.25231 13.4653 0.081693 13.572 0.022348 13.7456C-0.0384807 13.9193 0.0282825 14.1127 0.181096 14.2087C1.89469 15.3374 3.92874 16 6.11561 16C9.65999 16 12.4403 14.4798 14.3052 12.3077C16.1702 10.1356 17.1419 7.31455 17.1419 4.67936C17.1419 4.56816 17.133 4.46002 17.1301 4.35034C17.8259 3.8035 18.4475 3.16222 18.9341 2.4128C19.0306 2.26809 19.0202 2.07464 18.9089 1.94059C18.7991 1.80655 18.6137 1.76542 18.4594 1.84006C18.2635 1.92993 18.0351 1.93907 17.8303 2.01066C18.1004 1.64052 18.3318 1.24143 18.4713 0.792079C18.5187 0.638233 18.4668 0.469155 18.3437 0.368622C18.2205 0.269611 18.0484 0.257426 17.9134 0.341203C17.2651 0.73572 16.547 1.01295 15.7889 1.18203C15.053 0.475248 14.0842 0 12.9996 0ZM12.9996 0.779893C13.9684 0.779893 14.8438 1.20487 15.4565 1.87662C15.5485 1.97411 15.6835 2.01523 15.8126 1.98629C16.3081 1.88576 16.7784 1.738 17.2369 1.5476C16.9728 1.91318 16.6464 2.22544 16.2636 2.46154C16.09 2.54836 16.0084 2.754 16.0722 2.94136C16.1345 3.12719 16.3244 3.23534 16.5129 3.19269C16.8927 3.14547 17.2309 2.98705 17.593 2.88804C17.268 3.24905 16.912 3.57502 16.5247 3.86291C16.4194 3.94212 16.3615 4.07007 16.3704 4.20411C16.3764 4.36253 16.3823 4.51942 16.3823 4.67936C16.3823 7.11653 15.4714 9.76238 13.7355 11.7837C11.9997 13.805 9.4508 15.2201 6.11561 15.2201C4.60082 15.2201 3.17061 14.8759 1.87837 14.2696C3.48068 14.1432 4.95838 13.5613 6.15121 12.6002C6.27584 12.4981 6.3248 12.3275 6.27435 12.1721C6.22391 12.0168 6.08445 11.9101 5.9257 11.9056C4.67352 11.8827 3.6246 11.1348 3.06527 10.0777C3.08604 10.0777 3.10384 10.0777 3.12461 10.0777C3.49997 10.0777 3.87088 10.0289 4.21656 9.93145C4.38273 9.88119 4.49697 9.72277 4.49103 9.54455C4.4851 9.36634 4.36196 9.21401 4.19282 9.17593C2.84124 8.89566 1.82792 7.76542 1.59351 6.36101C1.97629 6.49657 2.36796 6.6032 2.79228 6.61691C2.96587 6.62757 3.12313 6.51638 3.17654 6.3473C3.22995 6.17822 3.16467 5.99238 3.01779 5.89794C2.11575 5.27799 1.5223 4.22239 1.5223 3.02209C1.5223 2.5773 1.63505 2.16908 1.78341 1.77913C3.68246 3.91927 6.34112 5.34044 9.34398 5.49581C9.46267 5.5019 9.57839 5.45164 9.65554 5.35872C9.73269 5.26428 9.76236 5.13938 9.73566 5.02056C9.6778 4.76771 9.64071 4.49962 9.64071 4.22848C9.64071 2.31836 11.1392 0.779893 12.9996 0.779893Z"/>
</symbol><symbol id="yt" viewBox="0 0 21 16">
<path d="M10.4286 0C7.21191 0 4.19124 0.25 2.58289 0.599609C1.51128 0.849609 0.584338 1.59961 0.390193 2.75C0.196048 3.94922 0 5.75 0 8C0 10.25 0.194145 12 0.437778 13.25C0.633826 14.3496 1.55887 15.1504 2.63047 15.4004C4.33781 15.75 7.25949 16 10.4762 16C13.6929 16 16.6146 15.75 18.32 15.4004C19.3935 15.1504 20.3186 14.4004 20.5127 13.25C20.7088 12 20.9524 10.2012 21 7.95117C21 5.70117 20.7564 3.90039 20.5127 2.65039C20.3186 1.55078 19.3935 0.75 18.32 0.5C16.6146 0.25 13.6434 0 10.4286 0ZM10.4286 1C13.9366 1 16.7612 1.29883 18.1259 1.54883C18.8568 1.75 19.4411 2.25 19.5382 2.90039C19.8313 4.5 20.0255 6.20117 20.0255 7.95117C19.9779 10.0996 19.7343 11.8496 19.5382 13.0996C19.3935 14.0488 18.419 14.3496 18.1259 14.4512C16.371 14.8008 13.4474 15.0488 10.5238 15.0488C7.6002 15.0488 4.62902 14.8496 2.92359 14.4512C2.19269 14.25 1.60836 13.75 1.51128 13.0996C1.12109 11.6992 0.974531 9.84961 0.974531 8C0.974531 5.69922 1.17058 4 1.36472 2.95117C1.51128 2 2.5334 1.69922 2.77703 1.59961C4.38539 1.25 7.35847 1 10.4286 1ZM7.79625 4V12L14.618 8L7.79625 4ZM8.77078 5.70117L12.6689 8L8.77078 10.2988V5.70117Z"/>
</symbol></svg>